<svg xmlns="http://www.w3.org/2000/svg" viewBox="0 0 382 149"><defs><style>.cls-1{fill:#055b00}.cls-2{fill:#00a810}.cls-3{fill:#fff}</style></defs><g id="Capa_2" data-name="Capa 2"><g id="Capa_1-2" data-name="Capa 1"><path d="M17 0h20v25H17z" class="cls-1"/><path d="M0 13h18v31H0z" class="cls-2"/><path d="M0 13A13 13 0 0113 0h5v25h-5A13 13 0 010 13z" class="cls-1"/><path d="M363 43a62 62 0 010 88 62 62 0 01-43 18H13a13 13 0 01-13-13V25h320a62 62 0 0143 18z" class="cls-2"/><path d="M22 104a1 1 0 01-1-1v-2a1 1 0 011-1h7V73l-7 3-1-1v-2-1l9-4a2 2 0 011 0h2a1 1 0 011 1v31h7a1 1 0 011 1v2a1 1 0 01-1 1zM64 86l-4 3c-5 4-7 6-7 10v1h16a1 1 0 011 1v2a1 1 0 01-1 1H51a1 1 0 01-1-1v-4c0-5 2-9 7-13l4-3c4-3 5-4 5-7s-2-5-7-5a61 61 0 00-8 1l-1-1v-1l1-1a35 35 0 018-1c8 0 11 2 11 8 0 4-1 7-6 10zM101 69l-11 34v1h-3a1 1 0 010-1l10-34 1-1h2a1 1 0 011 1zM106 104a1 1 0 01-1-1v-2a1 1 0 011-1h8V73l-8 3-1-1v-2l1-1 8-4a2 2 0 011 0h2a1 1 0 011 1v31h7a1 1 0 011 1v2a1 1 0 01-1 1zM144 104c-6 0-11-3-11-10v-1a9 9 0 014-8 8 8 0 01-4-7v-1c0-6 5-9 11-9 7 0 12 3 12 9v1a8 8 0 01-5 7 9 9 0 015 8v1c0 7-5 10-12 10zm8-27c0-4-3-6-8-6s-7 2-7 6v1c0 3 2 6 6 6h3c4 0 6-3 6-6zm0 16c0-3-2-6-6-6h-3c-5 0-6 3-6 6v1c0 4 2 7 7 7s8-3 8-7zM204 104a26 26 0 01-7 0c-7 0-13-3-13-15v-6c0-12 6-15 13-15a25 25 0 017 0l1 2v4l-1 1h-7c-3 0-5 2-5 8v6c0 7 2 8 5 8h7l1 1v5l-1 1zM224 104c-8 0-14-2-14-13V69a1 1 0 011-1h6a1 1 0 011 1v22c0 4 2 7 6 7s5-3 5-7V69a1 1 0 011-1h6a1 1 0 011 1v22c0 11-6 13-13 13zM257 104c-8 0-14-4-14-15v-6c0-11 6-15 14-15s13 4 13 15v6c0 11-6 15-13 15zm5-21c0-6-2-8-5-8s-6 2-6 8v6c0 6 2 8 6 8s5-2 5-8zM297 75h-8v28a1 1 0 01-1 1h-6a1 1 0 01-1-1V75h-8a1 1 0 010-1v-5a1 1 0 010-1h24a1 1 0 011 1v5a1 1 0 01-1 1zM325 104h-7a1 1 0 01-1-1l-1-8h-10l-1 8a1 1 0 01-1 1h-7a1 1 0 01-1-1l7-30c1-5 5-5 8-5s7 0 8 5l7 30a1 1 0 01-1 1zm-13-29h-1-1l-2 14h6zM339 104a33 33 0 01-9-1v-5-1h9c4 0 4-1 4-3 0-1 0-2-3-4l-6-4c-4-2-6-5-6-9 0-5 3-9 12-9a50 50 0 0110 1 1 1 0 011 1v4a1 1 0 01-1 1h-10c-2 0-3 1-3 2 0 2 0 2 3 4l6 3c4 3 6 6 6 10 0 5-3 10-13 10z" class="cls-3"/></g></g></svg>