<svg xmlns="http://www.w3.org/2000/svg" width="512" height="512" viewBox="0 0 60 60" style="fill:#01f603"><defs/><path d="M30.76 33.48a6.92 6.92 0 010 4.73l1.53 1.5h.02a9.12 9.12 0 00-.02-7.78zM6.5 40.77l1.4-1.41 1.42 1.41-1.41 1.42zM21.8 42.4l-1.5 1.54a9.07 9.07 0 007.74 0l-1.52-1.53a6.91 6.91 0 01-4.73-.01zM34.07 24.51l1.42 1.42 1.41-1.42-1.41-1.41zM17.59 38.17a6.85 6.85 0 010-4.73l-1.54-1.5a9.06 9.06 0 000 7.78zM34.07 13.2l1.41-1.42 1.42 1.41-1.42 1.42zM28.43 18.85l1.42-1.41 1.41 1.4-1.4 1.43zM12.15 46.43L13.56 45l1.41 1.42-1.4 1.41zM17.81 52.09l1.42 1.41 1.4-1.41-1.4-1.42zM39.73 18.86l1.4-1.42 1.42 1.42-1.41 1.41zM23.47 36.53a1.02 1.02 0 001.41 0 1 1 0 00-1.41-1.41 1 1 0 000 1.41zM24.17 28.83a6.98 6.98 0 012.39.42l1.5-1.54a9.08 9.08 0 00-7.78 0l1.55 1.53a6.8 6.8 0 012.34-.41z"/><path d="M49.41 10.6a33.25 33.25 0 00-8.3-6.18A3.86 3.86 0 0039.36 4a4.02 4.02 0 00-2.83 1.18L3.18 38.53a3.96 3.96 0 00-.76 4.59 33.23 33.23 0 006.17 8.29 33.25 33.25 0 008.3 6.17 3.96 3.96 0 004.59-.76l33.34-33.35a3.96 3.96 0 00.76-4.59 33.2 33.2 0 00-6.17-8.29zm-9.68 5.43a2 2 0 012.83 0l1.41 1.41a2 2 0 010 2.83l-1.41 1.41a2 2 0 01-2.83 0l-1.41-1.41a2 2 0 010-2.83zm-7.07-4.25l1.41-1.41a2 2 0 012.83 0l1.42 1.41a2 2 0 010 2.83l-1.42 1.42a2 2 0 01-2.83 0l-1.41-1.42a2 2 0 010-2.83zM27 17.44l1.41-1.41a2 2 0 012.83 0l1.42 1.41a2 2 0 010 2.83l-1.42 1.41a2 2 0 01-2.82 0L27 20.27a2 2 0 010-2.83zm-8.68 9.91a1.97 1.97 0 011.08-1.44 10.96 10.96 0 019.54 0 1.97 1.97 0 011.08 1.45 2.02 2.02 0 01-.56 1.76l-1.53 1.53a2 2 0 01-1.41.6 1.9 1.9 0 01-.65-.12 4.96 4.96 0 00-3.4 0 1.98 1.98 0 01-2.06-.48l-1.53-1.53a2.02 2.02 0 01-.56-1.77zm2.85 8.48a2.98 2.98 0 01.88-2.13 3.08 3.08 0 014.24 0 3 3 0 01-4.24 4.25 2.98 2.98 0 01-.87-2.13zm-6.91-4.77a1.97 1.97 0 011.44-1.09 2 2 0 011.77.56L19 32.07a1.98 1.98 0 01.47 2.06 4.94 4.94 0 000 3.4 1.98 1.98 0 01-.47 2.05l-1.53 1.54a2.02 2.02 0 01-1.43.59 2.04 2.04 0 01-.34-.03 1.97 1.97 0 01-1.44-1.09 11.1 11.1 0 010-9.53zM7.9 44.19a2 2 0 01-1.41-.59l-1.42-1.41a2 2 0 010-2.83l1.42-1.41a2 2 0 012.83 0l1.41 1.41a2 2 0 010 2.83L9.32 43.6a2 2 0 01-1.4.59zm5.66 5.66a2 2 0 01-1.42-.59l-1.41-1.41a2 2 0 010-2.83l1.41-1.42a2 2 0 012.83 0l1.42 1.42a2 2 0 010 2.83l-1.42 1.41a2 2 0 01-1.41.58zm8.48 3.65l-1.41 1.41a2 2 0 01-2.83 0L16.4 53.5a2 2 0 010-2.83l1.41-1.41a2 2 0 012.83 0l1.42 1.41a2 2 0 010 2.83zm7.98-9.2a1.97 1.97 0 01-1.09 1.45 10.96 10.96 0 01-9.53 0 1.97 1.97 0 01-1.09-1.45 2.02 2.02 0 01.56-1.76L20.41 41a1.98 1.98 0 012.07-.48 4.94 4.94 0 003.39 0 1.98 1.98 0 012.06.48l1.54 1.53a2.02 2.02 0 01.56 1.77zm4.06-3.7a1.97 1.97 0 01-1.45 1.08 2.05 2.05 0 01-.34.03 2.02 2.02 0 01-1.42-.58l-1.53-1.54a1.98 1.98 0 01-.48-2.06 4.95 4.95 0 000-3.4 1.98 1.98 0 01.48-2.06l1.53-1.53a2.02 2.02 0 011.76-.56 1.97 1.97 0 011.45 1.08 11.1 11.1 0 010 9.53zm1.4-12.67a2 2 0 01-1.41-.58l-1.42-1.42a2 2 0 010-2.83l1.41-1.42a2 2 0 012.83 0l1.42 1.42a2 2 0 010 2.83l-1.42 1.41a2 2 0 01-1.41.58zm8.49 3.66L42.56 33a2 2 0 01-2.83 0l-1.41-1.41a2 2 0 010-2.83l1.41-1.42a2 2 0 012.83 0l1.41 1.41a2 2 0 010 2.83zm5.65-5.66l-1.41 1.41a2 2 0 01-2.83 0l-1.42-1.41a2 2 0 010-2.83l1.42-1.42a2 2 0 012.83 0l1.41 1.42a2 2 0 010 2.83zM49 20a3 3 0 113-3 3 3 0 01-3 3z"/><circle cx="49" cy="17" r="1"/><path d="M45.39 24.51l1.41 1.42 1.42-1.42-1.42-1.41zM39.72 30.16l1.42-1.41 1.41 1.41-1.41 1.42zM59.89 8.2a18.56 18.56 0 00-3.45-4.64A18.61 18.61 0 0051.8.1a1 1 0 10-.91 1.78 16.62 16.62 0 014.14 3.08 16.61 16.61 0 013.08 4.15 1 1 0 101.78-.92zM50.54 6.2a8.08 8.08 0 013.26 3.26 1 1 0 101.78-.92 9.47 9.47 0 00-1.76-2.36 9.45 9.45 0 00-2.37-1.76 1 1 0 10-.9 1.78z"/></svg>