<svg xmlns="http://www.w3.org/2000/svg" width="512" height="512" viewBox="0 0 60 60" style="fill:#01f603"><defs/><path d="M7.176 52.822a35.217 35.217 0 008.8 6.537 5.868 5.868 0 002.67.641 6.018 6.018 0 004.242-1.763l33.351-33.35a5.956 5.956 0 001.116-6.916 35.192 35.192 0 00-6.533-8.791 35.217 35.217 0 00-8.795-6.537 5.956 5.956 0 00-6.917 1.12L1.759 37.115a5.956 5.956 0 00-1.116 6.916 35.181 35.181 0 006.533 8.791zm-4-14.3L36.524 5.177A4.02 4.02 0 0139.354 4a3.863 3.863 0 011.763.423 33.254 33.254 0 018.293 6.171 33.2 33.2 0 016.167 8.288 3.958 3.958 0 01-.752 4.593L21.476 56.823a3.959 3.959 0 01-4.593.756 33.254 33.254 0 01-8.293-6.171 33.231 33.231 0 01-6.167-8.288 3.958 3.958 0 01.752-4.593zM50.883 1.89a16.624 16.624 0 014.144 3.085 16.613 16.613 0 013.083 4.142 1 1 0 101.78-.917 18.561 18.561 0 00-3.449-4.642A18.614 18.614 0 0051.8.11a1 1 0 10-.914 1.78zM50.543 6.2A8.083 8.083 0 0153.8 9.457a1 1 0 101.779-.914 9.466 9.466 0 00-1.757-2.367 9.453 9.453 0 00-2.369-1.759 1 1 0 10-.91 1.783z"/><path d="M15.705 41.677a2.042 2.042 0 00.339.029 2.017 2.017 0 001.425-.589L19 39.585a1.977 1.977 0 00.475-2.064 4.941 4.941 0 010-3.391A1.98 1.98 0 0019 32.065l-1.531-1.531a2.008 2.008 0 00-1.764-.56 1.971 1.971 0 00-1.446 1.085 11.1 11.1 0 000 9.533 1.971 1.971 0 001.446 1.085zm.35-9.729l1.541 1.5a6.852 6.852 0 000 4.72l-.006.007-1.524 1.556a9.062 9.062 0 01-.011-7.783zM27.935 41a1.981 1.981 0 00-2.065-.475 4.941 4.941 0 01-3.391 0 1.98 1.98 0 00-2.064.475l-1.532 1.532a2.016 2.016 0 00-.56 1.764 1.971 1.971 0 001.085 1.445 10.956 10.956 0 009.532 0 1.969 1.969 0 001.086-1.441 2.017 2.017 0 00-.56-1.764zM20.3 43.946l1.5-1.542a6.913 6.913 0 004.727.01l1.525 1.538a9.066 9.066 0 01-7.752-.006zM32.645 29.974a2.023 2.023 0 00-1.765.56l-1.531 1.531a1.978 1.978 0 00-.475 2.065 4.953 4.953 0 010 3.391 1.975 1.975 0 00.475 2.064l1.531 1.532a2.018 2.018 0 001.425.588 2.051 2.051 0 00.339-.029 1.974 1.974 0 001.446-1.085 11.1 11.1 0 000-9.532 1.974 1.974 0 00-1.445-1.085zm-.336 9.731h-.015l-1.541-1.5a6.921 6.921 0 00.01-4.728l1.524-1.554a9.118 9.118 0 01.022 7.782zM20.414 30.651a1.976 1.976 0 002.065.475 4.956 4.956 0 013.392 0 1.9 1.9 0 00.651.115 2.005 2.005 0 001.413-.59l1.531-1.531a2.015 2.015 0 00.56-1.763 1.971 1.971 0 00-1.086-1.447 10.957 10.957 0 00-9.532 0 1.974 1.974 0 00-1.085 1.444 2.02 2.02 0 00.56 1.766zm7.64-2.948l-1.5 1.541a6.978 6.978 0 00-2.387-.421 6.8 6.8 0 00-2.341.411l-1.555-1.524a9.081 9.081 0 017.783-.01zM24.175 38.825A3 3 0 0026.3 33.7a3.075 3.075 0 00-4.242 0 3 3 0 000 4.243 2.978 2.978 0 002.117.882zm-.707-3.707a1 1 0 011.414 1.414 1.025 1.025 0 01-1.414 0 1 1 0 010-1.414zM34.074 16.026a2 2 0 002.828 0l1.414-1.414a2 2 0 000-2.828L36.9 10.37a2 2 0 00-2.828 0l-1.412 1.414a2 2 0 000 2.828zm1.414-4.242L36.9 13.2l-1.413 1.415-1.413-1.415zM38.316 20.269l1.414 1.414a2 2 0 002.83 0l1.414-1.414a2 2 0 000-2.828l-1.414-1.414a2 2 0 00-2.83 0l-1.414 1.414a2 2 0 000 2.828zm2.83-2.828l1.414 1.414-1.414 1.415-1.416-1.415zM43.388 24.512a1.985 1.985 0 00.586 1.414l1.414 1.414a2 2 0 002.828 0l1.414-1.414a2 2 0 000-2.828l-1.414-1.414a2 2 0 00-2.828 0L43.974 23.1a1.986 1.986 0 00-.586 1.412zM46.8 23.1l1.414 1.414-1.414 1.413-1.414-1.414zM28.417 21.683a2 2 0 002.828 0l1.416-1.416a2.006 2.006 0 000-2.828l-1.415-1.413a2 2 0 00-2.828 0L27 17.441a2 2 0 000 2.828zm1.414-4.242l1.415 1.413-1.414 1.416-1.415-1.415zM38.9 24.512a1.986 1.986 0 00-.586-1.414L36.9 21.684a2 2 0 00-2.828 0L32.66 23.1a2 2 0 000 2.828l1.414 1.414a2 2 0 002.828 0l1.414-1.414a1.985 1.985 0 00.584-1.416zm-3.413 1.415l-1.414-1.414 1.415-1.413 1.412 1.412zM42.56 27.34a2 2 0 00-2.83 0l-1.414 1.414a2 2 0 000 2.829L39.73 33a2 2 0 002.83 0l1.414-1.414a2 2 0 000-2.829zm-1.414 4.244l-1.416-1.416 1.416-1.414 1.414 1.415zM6.5 43.6a2 2 0 002.828 0l1.414-1.415a2 2 0 000-2.828l-1.417-1.411a2 2 0 00-2.828 0l-1.414 1.415a2 2 0 000 2.828zm1.414-4.243l1.414 1.414-1.416 1.419L6.5 40.775zM10.739 47.846l1.414 1.414a2 2 0 002.829 0l1.418-1.414a2 2 0 000-2.828L14.982 43.6a2 2 0 00-2.829 0l-1.414 1.414a2 2 0 000 2.832zm2.829-2.828l1.414 1.414-1.414 1.415-1.415-1.415zM20.639 49.261a2 2 0 00-2.828 0L16.4 50.675a2 2 0 000 2.828l1.415 1.414a2 2 0 002.828 0l1.41-1.417a2 2 0 000-2.828zM19.226 53.5l-1.414-1.414 1.414-1.414 1.414 1.414zM49 20a3 3 0 10-3-3 3 3 0 003 3zm0-4a1 1 0 11-1 1 .989.989 0 011-1z"/></svg>