<?xml version="1.0" encoding="UTF-8"?>
<svg id="Capa_1" data-name="Capa 1" xmlns="http://www.w3.org/2000/svg" viewBox="0 0 155.74 155.33">
  <defs>
    <style>
      .cls-1 {
        fill: #16e000;
      }

      .cls-2 {
        fill: none;
      }
    </style>
  </defs>
  <g>
    <path class="cls-1" d="m78.07,0C35.18,0,.41,34.77.41,77.67c0,19.02,6.83,36.44,18.18,49.93,14.24,16.96,35.6,27.74,59.49,27.74,31.09,0,57.93-18.27,70.33-44.67,4.71-10.02,7.34-21.2,7.34-33C155.74,34.77,120.97,0,78.07,0Zm0,140.68c-16.53,0-31.58-6.38-42.81-16.79-12.41-11.51-20.19-27.96-20.19-46.22,0-34.79,28.19-63.01,63-63.01s63.01,28.22,63.01,63.01c0,12.44-3.61,24.04-9.84,33.81-11.18,17.56-30.81,29.2-53.17,29.2Z"/>
    <path class="cls-1" d="m108.32,49.42c-.53.4-3.37,10.96-.78-4.03.75-4.32-1.54-7.66-4.72-10.27-8.21-6.76-20.8-8.74-31.06-7.21-6.99,1.05-15.78,3.41-20.63,9.02-1.98,2.28-3.05,5.45-2.54,8.47,2.6,14.98-.25,4.43-.77,4.03,0,0-4.58,44.67-3.33,48.99,1,3.42,17.81,14.77,24.86,19.42.42.28.81.54,1.16.76l2.95,9.32-1.06-8.1s.04.02.04.02c0,0-.11-.88-.26-2.43-.68-6.51-2.42-24.87-2.24-39.6,0,0-15.49-12.47-16.33-13.84-.83-1.36,0-1.64-.82-2.84.62.32,20.57,10.65,20.57,11.4s1.3,18.85,1.57,19.76c.28.89,3.16,3.33,3.16,3.33,0,0,2.87-2.44,3.15-3.33.27-.92,1.57-19.01,1.57-19.76s19.94-11.09,20.56-11.4c-.82,1.2.01,1.48-.82,2.84-.83,1.37-16.32,13.84-16.32,13.84.12,10.53-.74,25.33-1.48,32.9l-.66,5.08-1.59,12.12,2.89-9.16c1.34-.87,3.38-2.22,5.75-3.82,8-5.4,19.7-13.69,20.51-16.53,1.26-4.32-3.33-48.99-3.33-48.99Zm-34.69-19.25c-4.1,1.73-8.37,3.51-11.81,6.39-2.17,1.83-3.83,4.13-4.71,6.85-.63,1.93-.9,3.97-.86,6,.02,1.02.6,2.75.27,3.73-.18.54-.73.66-1.09.18-13.43-18.02,16.45-22.64,19.81-23.83-.54.22-1.07.45-1.61.68Z"/>
  </g>
  <rect class="cls-2" width="155" height="155"/>
</svg>