<svg xmlns="http://www.w3.org/2000/svg" viewBox="0 0 512 512" style="fill:#01f603"><defs/><path d="M494.933 93.867h-68.267c-.015-14.132-11.468-25.585-25.6-25.6H247.248a42.258 42.258 0 008.752-25.6C256 19.103 236.897 0 213.333 0s-42.667 19.103-42.667 42.667a42.245 42.245 0 008.752 25.6H25.6C11.468 68.282.015 79.735 0 93.867v256c.015 14.132 11.468 25.585 25.6 25.6h136.533V460.8h-25.6c-14.132.015-25.585 11.468-25.6 25.6v17.067a8.53 8.53 0 008.534 8.534H307.2a8.53 8.53 0 008.534-8.534V486.4c-.015-14.132-11.468-25.585-25.6-25.6h-25.6v-85.333H358.4v119.467c.011 9.421 7.645 17.056 17.067 17.067h119.467c9.421-.011 17.056-7.645 17.067-17.067v-384c-.012-9.422-7.646-17.057-17.068-17.067zm-68.266 78.481a25.028 25.028 0 018.533-1.681c14.138 0 25.6 11.461 25.6 25.6s-11.462 25.6-25.6 25.6a25.023 25.023 0 01-8.533-1.681v-47.838zM256 85.333h145.067a8.54 8.54 0 018.533 8.533v8.533H256V85.333zm-42.667-68.266c14.138 0 25.6 11.462 25.6 25.6s-11.461 25.6-25.6 25.6c-14.132-.015-25.585-11.468-25.6-25.6 0-14.139 11.462-25.6 25.6-25.6zm-25.6 68.266h51.2V102.4h-51.2V85.333zM17.067 93.867a8.54 8.54 0 018.533-8.533h145.067V102.4h-153.6v-8.533zm0 25.6H409.6v204.8H17.067v-204.8zm273.066 358.4a8.54 8.54 0 018.533 8.533v8.533H128V486.4a8.54 8.54 0 018.533-8.533h153.6zM179.2 460.8v-85.333h68.267V460.8H179.2zM25.6 358.4a8.54 8.54 0 01-8.533-8.533v-8.533H409.6v8.533a8.54 8.54 0 01-8.533 8.533H25.6zm469.333 136.533H375.467v-17.067h119.467v17.067zm0-34.133H375.467v-17.067h119.467V460.8zm0-34.133H375.467V409.6h119.467v17.067zm0-34.134H375.467v-17.067h25.6c14.132-.015 25.585-11.468 25.6-25.6V281.6h25.6a8.533 8.533 0 000-17.066h-25.6v-26.57c2.804.614 5.663.939 8.533.97 23.564 0 42.667-19.103 42.667-42.667S458.764 153.6 435.2 153.6c-2.87.031-5.729.356-8.533.97v-43.636h68.267v281.599z"/><path d="M48.7 202.3l25.6-25.6a8.533 8.533 0 00-12.066-12.066l-25.6 25.6A8.532 8.532 0 1048.7 202.3zM87.808 151.125a8.44 8.44 0 009.3 1.792 9.862 9.862 0 002.817-1.792 9.991 9.991 0 001.792-2.817 7.145 7.145 0 00.683-3.242 8.546 8.546 0 00-.683-3.242 8.845 8.845 0 00-1.792-2.817 14.455 14.455 0 00-1.279-1.025 14.093 14.093 0 00-1.538-.858 11.858 11.858 0 00-1.537-.425 8.888 8.888 0 00-4.95.425 12.691 12.691 0 00-2.813 1.883 9.804 9.804 0 00-1.796 2.817 8.071 8.071 0 000 6.483 9.887 9.887 0 001.796 2.818zM139.034 139.034L45.167 232.9a8.532 8.532 0 1012.066 12.066L151.1 151.1a8.533 8.533 0 00-12.066-12.066zM213.333 51.2a8.533 8.533 0 008.533-8.533 8.979 8.979 0 00-2.475-6.059 8.551 8.551 0 00-9.305-1.791 9.842 9.842 0 00-2.813 1.792 8.963 8.963 0 00-2.475 6.058 8.536 8.536 0 008.535 8.533z"/></svg>