<svg xmlns="http://www.w3.org/2000/svg" viewBox="0 0 512 512" style="fill:#01f603"><path d="M164.6 73.1H9c-5 0-9 4.1-9.1 9.2v9.1h164.6V73.1zM411.4 365.7c5 0 9.2-4 9.2-9.1v-9.2H0v9.2c0 5 4 9.1 9.1 9.1h402.3zM182.9 73.1h54.9v18.3h-54.9zM420.6 109.7H0v219.4h420.6V109.7zm-346.7 24c.4-1.1 1-2.2 1.9-3 .9-.9 2-1.5 3-2a9.5 9.5 0 018.6.9l1.4 1c.8 1 1.5 2 1.9 3 .5 1.2.7 2.3.7 3.5 0 1.2-.2 2.4-.7 3.5-.5 1.1-1.1 2.1-2 3-.8.8-1.8 1.5-3 2a9 9 0 01-10-2c-.7-.9-1.4-1.9-1.8-3-1-2.2-1-4.7 0-7zM21 198.4a9.1 9.1 0 010-12.9l27.4-27.4a9.1 9.1 0 0113 13l-27.5 27.4a9.1 9.1 0 01-12.9 0zm122.6-54.8L43 244.2a9.1 9.1 0 01-12.9-13l100.6-100.5a9.1 9.1 0 0113 13zM210.3 54.9a27.4 27.4 0 100-54.9 27.4 27.4 0 000 54.9zm-6.5-34c.9-.8 1.9-1.4 3-1.9a9.2 9.2 0 0110 2 9.1 9.1 0 11-13 0zM420.6 82.3c0-5-4.1-9.2-9.2-9.2H256v18.3h164.6v-9.1zM475.4 192a27.5 27.5 0 00-27.4-27.4c-3.1 0-6.2.6-9.1 1.8v51.2c2.9 1.2 6 1.8 9.1 1.8a27.5 27.5 0 0027.4-27.4zM384 420.6h128v18.3H384zM384 457.1h128v18.3H384zM384 493.7h128V512H384z"/><path d="M438.9 100.6v46.7a45.7 45.7 0 110 89.4V265h27.4a9.1 9.1 0 010 18.3h-27.4v73.2a27.5 27.5 0 01-27.5 27.4H384v18.3h128V100.6h-73.1zM292.6 493.7H128c-5 0-9.1 4.1-9.1 9.2v9.1h182.8v-9.1c0-5-4-9.2-9.1-9.2zM173.7 384h73.1v91.4h-73.1z"/></svg>