<svg xmlns="http://www.w3.org/2000/svg" viewBox="0 0 512 512" style="fill:#01f603"><defs/><path d="M503.5 111a8.5 8.5 0 008.5-8.6V17.1A17 17 0 00495 0H17A17 17 0 000 17v85.4c0 4.7 3.8 8.5 8.5 8.5a8.5 8.5 0 010 17.1 8.5 8.5 0 00-8.5 8.5V495A17 17 0 0017 512h478a17 17 0 0017-17V136.4a8.5 8.5 0 00-8.5-8.5 8.5 8.5 0 110-17zm-8.6-15.7a25.6 25.6 0 000 48.3v351.3H17.1V143.6a25.6 25.6 0 000-48.3V17.1h477.8v78.2z"/><path d="M42.7 51.2a8.5 8.5 0 008.5-8.5 8.5 8.5 0 10-17 0 8.5 8.5 0 008.5 8.5zM46 461.5c-2.2-.9-4.5-.9-6.6 0-1 .4-2 1-2.8 1.8a8.5 8.5 0 006 14.6 9 9 0 006.1-2.5 10 10 0 001.8-2.8c.5-1 .7-2.2.7-3.3a9 9 0 00-2.5-6 8.9 8.9 0 00-2.8-1.8zM461.5 46a14.2 14.2 0 001.8 2.8 8.7 8.7 0 0012 0l1.1-1.4.8-1.5.5-1.5.2-1.7a9.7 9.7 0 00-.7-3.3l-.8-1.5-1-1.3a9 9 0 00-12.1 0l-1 1.3c-.4.5-.6 1-.8 1.5-.3.5-.5 1-.5 1.6l-.2 1.7c0 .5 0 1.1.2 1.7 0 .5.2 1 .5 1.5zM469.3 477.9a8.5 8.5 0 007.9-11.8c-.4-1-1-2-1.8-2.8a9 9 0 00-12.1 0c-.8.8-1.4 1.7-1.8 2.8a8.5 8.5 0 007.9 11.8zM93.9 452.3h72.5a29.9 29.9 0 0029.9-29.9c0-7 5.7-12.8 12.8-12.8h93.8c7.1 0 12.8 5.7 12.8 12.8a29.9 29.9 0 0029.9 29.9h72.5a34.2 34.2 0 0034.2-34.2V94A34.2 34.2 0 00418 59.7H94A34.2 34.2 0 0059.7 94V418A34.2 34.2 0 0094 452.3zM209 392.5h-89.6a8.5 8.5 0 01-8.6-8.5V119.5c0-4.7 3.9-8.6 8.6-8.6h273c4.7 0 8.6 3.9 8.6 8.6V384c0 4.7-3.9 8.5-8.6 8.5H209.1zM76.8 94a17 17 0 0117-17.1h324.3a17 17 0 0117.1 17v324.3a17 17 0 01-17 17.1h-72.6c-7 0-12.8-5.7-12.8-12.8 0-4.4-1-8.8-3-12.8h62.7a25.6 25.6 0 0025.6-25.6V119.5a25.6 25.6 0 00-25.6-25.6h-273a25.6 25.6 0 00-25.6 25.6V384a25.6 25.6 0 0025.6 25.6h62.7c-2 4-3 8.4-3 12.8 0 7-5.7 12.8-12.8 12.8H93.9a17 17 0 01-17.1-17V93.8z"/><path d="M256 247.5a8.5 8.5 0 100-17.1c-32.4 0-59.7-15.6-59.7-34.1S223.6 162 256 162s59.7 15.7 59.7 34.2a8.5 8.5 0 1017.1 0c0-28.7-33.7-51.2-76.8-51.2s-76.8 22.5-76.8 51.2c0 28.7 33.7 51.2 76.8 51.2zM341.3 298.7H170.7a25.6 25.6 0 000 51.2h170.6a25.6 25.6 0 000-51.2zm0 34.1H170.7a8.5 8.5 0 010-17h170.6a8.5 8.5 0 110 17z"/></svg>