<svg version="1.1" id="Capa_1" xmlns="http://www.w3.org/2000/svg" x="0" y="0" viewBox="0 0 855 153" xml:space="preserve"><style>.st1{fill:#fff}</style><path class="st1" d="M68.8 68.7l3.7-26.1h-61L8.4 66.2 3 103.5h61l3.6-26.1H50.2L49 86H22.9L26.6 60h26l-1.2 8.7h17.4zM80.3 42.6h60.9l-8.6 60.9h-61l8.7-61zm15 17.4l-3.8 26h26.2l3.7-26H95.2zM164 60l-6.2 43.5h-17.4l8.5-61h61l-8.6 61H184L190 60h-4.3l-6.1 43.5H162l6.2-43.5h-4.4zM217.6 42.6h61l-6.8 47.9h-43.5l-1.8 13H209l8.5-61zm15 17.4l-1.9 13H257l1.8-13h-26zM286.3 42.6h17.4L297.6 86h26.1l6.2-43.5h17.4l-8.6 60.9h-61l8.6-61zM411.2 61l2.5-17.2-59.2-.2-8.3 60.3 58.9.1 5.5-38.7h-25.9l-2.4 17.1h8.6l-.6 4.4-25.8-.1 3.7-25.8h43zM421.3 43.8l60.3.1-8.6 60.2h-17.3l1.9-13h-25.8l-1.9 13h-17.2l8.6-60.3zM436.1 61l-1.9 13H460l1.9-13h-25.8zM500.5 85.5l-2.7 18.7h-17.2l8.6-60.3 60.3.1-6.8 47.4h-12.9l11.1 12.9h-24.3l-16.1-18.8zm3.5-24.3L502 74H528l2-12.9h-26zM557.1 44l-8.5 59.7v.6h42.1l.9-.6 19.8-17.3 6-42.2L557 44zm38 35.3l-9 7.9h-17.9l3.7-25.9h25.8l-2.6 18z"/><path d="M855 97l-2.3 27.1H749.5c-7 0-12.6-5.2-13.4-12l14 .1 5-34.3H836a19 19 0 0119 19z" fill="#ff003d"/><path class="st1" d="M636.1 87.3h43l-2.4 17.3-60.3-.2 8.6-60.2 60.3.1-2.5 17.2h-43l-.7 4.2 43 .1-2.4 17.2h-43l-.6 4.3zM763.8 112.5H757l1-6.7h6.7l-1 6.8zM784.6 105.8l.5-3.4h6.7l-1.4 10.1h-23.6L770 89h23.6L792.3 99h-6.8l.5-3.3H776l-1.4 10.1h10.1zM796.7 89h23.7l-3.3 23.6h-23.7l3.3-23.7zm5.8 6.7l-1.4 10.1h10.1l1.5-10.1h-10.2zM829.2 95.7l-2.4 16.9h-6.7l3.3-23.7H847l-3.3 23.7h-6.8l2.4-17h-1.7l-2.3 17h-6.8l2.4-17h-1.7zM735.6 43.4l-4.4 30.9-26.4-31h-12.2l-8.6 60.3h17.2l4.4-30.8 26.5 30.9h12.1l4.3-29.7 4.3-30.5h-17.2z"/></svg>