<svg xmlns="http://www.w3.org/2000/svg" viewBox="0 0 512 512" style="fill:#01f603"><path d="M329.1 15.2c-6 1.7-12 2.7-18.2 2.9v91.6H329V15.2zM493.7 18a74.6 74.6 0 01-18.3-2.8v94.5h18.3V18.1zM457.1 0H347.4v109.7h109.7V0zM384 64h-9.1a9.1 9.1 0 010-18.3h9.1a9.1 9.1 0 010 18.3zm45.7 0h-9.1a9.1 9.1 0 010-18.3h9.1a9.1 9.1 0 010 18.3zM374.9 438.9h54.9V512h-54.9zM292.6 128v197.4l49.5 49.5c3.4 3.4 5.3 8 5.3 12.9v32.8h109.7v-32.8c0-4.9 2-9.5 5.4-13l49.5-49.4V128H292.6zM448 365.7h-91.4a9.1 9.1 0 010-18.3H448a9.1 9.1 0 010 18.3zm0-36.6h-91.4a9.1 9.1 0 010-18.2H448a9.1 9.1 0 010 18.2zm0-36.5h-91.4a9.1 9.1 0 010-18.3H448a9.1 9.1 0 010 18.3zm45.7-54.9c0 10.1-8.2 18.3-18.3 18.3H329.1c-10 0-18.2-8.2-18.2-18.3v-64c0-10 8.1-18.3 18.2-18.3h146.3c10.1 0 18.3 8.2 18.3 18.3v64z"/><path d="M329.1 173.7h146.3v64H329.1zM36.6 15.2c-6 1.7-12.1 2.7-18.3 2.9v91.6h18.3V15.2zM164.6 0H54.9v109.7h109.7V0zM91.4 64h-9.1a9.1 9.1 0 010-18.3h9.1a9.1 9.1 0 010 18.3zm45.7 0H128a9.1 9.1 0 010-18.3h9.1a9.1 9.1 0 010 18.3zM201.1 18a74.6 74.6 0 01-18.2-2.8v94.5H201V18.1zM82.3 438.9h54.9V512H82.3zM36.6 173.7h146.3v64H36.6z"/><path d="M0 325.4l49.5 49.5c3.4 3.4 5.3 8 5.4 12.9v32.8h109.7v-32.8c0-4.9 2-9.5 5.3-13l49.5-49.4V128H0v197.4zm155.4 40.3H64a9.1 9.1 0 010-18.3h91.4a9.1 9.1 0 010 18.3zm0-36.6H64a9.1 9.1 0 010-18.2h91.4a9.1 9.1 0 010 18.2zm0-36.5H64a9.1 9.1 0 010-18.3h91.4a9.1 9.1 0 010 18.3zM18.3 173.7c0-10 8.2-18.3 18.3-18.3h146.3c10 0 18.2 8.2 18.2 18.3v64c0 10.1-8.1 18.3-18.2 18.3H36.6c-10.1 0-18.3-8.2-18.3-18.3v-64z"/></svg>