<svg xmlns="http://www.w3.org/2000/svg" viewBox="0 0 512 512" style="fill:#01f603"><defs/><path d="M230 9h-25a9 9 0 00-9-9h-51a9 9 0 00-8 9h-26a9 9 0 00-9 8v291l8 94c1 9 8 16 17 16h1v77c0 9 8 17 17 17h51c10 0 17-8 17-17v-77h1c9 0 16-7 17-16l5-61 3-33V17a9 9 0 00-9-8zm-76 8h34v26h-34V17zm0 43h34v42h-34V60zm25 59v77h-17v-77h17zm-60-93h18v17h-18V26zm0 34h18v51a9 9 0 008 8v60h-26V60zm26 435v-77h51v77h-51zm69-85v-9 9zm0-9h-87l-1-17h89l-1 17zm3-34h-93l-1-17h95l-1 17zm3-34h-98l-2-17h101l-1 17zm2-34H119V196h26v9a9 9 0 009 8h34a9 9 0 008-8v-9h26v103zm0-120h-26v-60a9 9 0 009-8V60h17v119zm0-136h-17V26h17v17zM407 11c-1-2-4-2-6-2h-26a9 9 0 00-8-9h-51a9 9 0 00-9 9h-25a9 9 0 00-9 8v291l8 94c1 9 8 16 17 16h1v77c0 9 7 17 17 17h51c9 0 17-8 17-17v-77h1c9 0 16-7 17-16l5-61 3-33V17l-3-6zm-83 6h34v26h-34V17zm0 43h34v42h-34V60zm26 59v77h-17v-77h17zm-60-93h17v17h-17V26zm0 34h17v51a9 9 0 009 8v60h-26V60zm26 435v-77h51v77h-51zm69-85v-9 9zm0-9h-87l-1-17h89l-1 17zm3-34h-93l-1-17h95l-1 17zm2-34h-98l-1-17h101l-2 17zm3-34H290V196h26v9a9 9 0 008 8h34a9 9 0 009-8v-9h26v103zm0-120h-26v-60a9 9 0 008-8V60h18v119zm0-136h-18V26h18v17z"/></svg>