<svg xmlns="http://www.w3.org/2000/svg" viewBox="0 0 397.9 187.5"><defs/><defs><style>.cls-3{fill:#fff}</style></defs><g id="Capa_2" data-name="Capa 2"><g id="Capa_1-2" data-name="Capa 1"><path fill="#4600b5" d="M359 1.2A49.7 49.7 0 00348 0H50A50 50 0 000 50v87.5a50 50 0 0050 50h298a50 50 0 0050-50V50a50 50 0 00-39-48.8zM31.6 103.6a9.8 9.8 0 119.8-9.8 9.8 9.8 0 01-9.8 9.8z"/><path fill="#00cc0a" d="M398 50v87.5a50 50 0 01-50 50H66.2V0H348a50 50 0 0150 50z"/><path d="M125.5 71.1V41.7l-8.7 3.9a2.2 2.2 0 01-.8.2c-.4 0-.7-.4-.7-1v-7.7a1 1 0 01.7-1l12-5.8a3.4 3.4 0 011.5-.3h6a1.2 1.2 0 011.3 1.3v39.8h8.9a1.3 1.3 0 011.3 1.3v7a1.4 1.4 0 01-1.3 1.4h-29a1.4 1.4 0 01-1.4-1.4v-7a1.3 1.3 0 011.3-1.3zM181.9 55.3l-5.7 4c-5.6 3.8-9.6 6.8-9.6 11.6v.2h21a1.3 1.3 0 011.4 1.3v7a1.4 1.4 0 01-1.4 1.4H158a1.4 1.4 0 01-1.3-1.4v-7a21.6 21.6 0 019-17.3l6.2-4.5c5.8-4.2 6.8-4.7 6.8-8 0-2.9-1.7-4-7.1-4-4 0-9 .5-13.1.9h-.2a1.3 1.3 0 01-1.2-1.4v-5.3c0-.6.6-1 1.3-1.2a52 52 0 0114.2-2.2c12.3 0 17 4.3 17 13 0 5.6-2.8 9.5-7.7 13zM249.8 43.2l-11.2 40.3c-2 7.4-4.8 11.2-14.6 11.2a33.8 33.8 0 01-8-1.1c-.8-.3-1.5-.5-1.5-1.3v-5.5a1.3 1.3 0 011.4-1.3h.1c2.2.1 6.1.5 8.3.5 2.4 0 3.6-.8 4.4-3.5l.6-2.1h-1c-2.4 0-4.5-.4-6.2-6.4l-8.8-30.8a1.5 1.5 0 010-.4c0-.7.4-1.1 1.3-1.1h8.9a1.4 1.4 0 011.2 1.3l6 25.7c.2 1 .4 1.3.8 1.3h.6l6.2-27a1.5 1.5 0 011.4-1.3h8.9a1.3 1.3 0 011.3 1.2l-.1.3zM285.6 71.1V41.7l-8.7 3.9a2.2 2.2 0 01-.8.2c-.5 0-.7-.4-.7-1v-7.7a1 1 0 01.6-1l12.1-5.8a3.4 3.4 0 011.5-.3h6a1.2 1.2 0 011.3 1.3v39.8h8.9a1.3 1.3 0 011.3 1.3v7a1.4 1.4 0 01-1.3 1.4h-29a1.4 1.4 0 01-1.4-1.4v-7a1.3 1.3 0 011.3-1.3zM333.5 81.5h-.7c-10.5 0-17.7-5.3-17.7-15.2v-1a13.6 13.6 0 015.7-10.8 11.8 11.8 0 01-5.4-10.3v-.8c0-9.5 6.8-14 17.4-14h.7c10.5 0 17.5 4.5 17.5 14v.8a11.9 11.9 0 01-5.5 10.3 13.6 13.6 0 015.7 10.9v.9c0 9.9-7.2 15.2-17.7 15.2zm6.7-37.3c0-3.6-1.8-6.2-6.7-6.2h-.7c-4.9 0-6.8 2.6-6.8 6.2v.3c0 3.5 2 6 6 6h2.1c4.2 0 6.1-2.4 6.1-6zm0 21c0-3.1-1.6-6.6-6-6.6H332c-4.4 0-6 3.5-6 6.6v.7c0 4 2.3 6.9 6.7 6.9h.7c4.4 0 6.7-3 6.7-7zM141.8 157.2a36.9 36.9 0 01-10 1.2c-10.1 0-19.7-5.5-19.7-21.7V128c0-16.3 9.6-21.7 19.7-21.7a37.3 37.3 0 0110 1.1c.9.3 1.4.6 1.4 1.6v6.6a1.2 1.2 0 01-1.2 1.4h-.2c-2.6-.3-6.2-.6-9.9-.6-4.6 0-8.3 2.5-8.3 11.6v8.6c0 9 3.7 11.5 8.3 11.5 3.7 0 7.3-.3 9.9-.5h.2a1.2 1.2 0 011.2 1.3v6.7c0 1-.5 1.3-1.4 1.5zM169.6 158.4c-10.6 0-19.2-4.1-19.2-19.7v-30.4a1.3 1.3 0 011.4-1.3h8.7a1.3 1.3 0 011.3 1.3v30.4c0 7 1.8 10 7.8 10s7.9-3 7.9-10v-30.4a1.3 1.3 0 011.3-1.3h8.7a1.4 1.4 0 011.4 1.3v30.4c0 15.6-8.7 19.7-19.3 19.7zM216.6 158.4c-11 0-19.7-6-19.7-22v-8c0-16 8.7-22 19.7-22s19.7 6 19.7 22v8c0 16-8.7 22-19.7 22zm8.3-30c0-8.3-2.7-11.8-8.3-11.8s-8.2 3.5-8.2 11.7v8.2c0 8.2 2.6 11.7 8.2 11.7s8.3-3.5 8.3-11.7zM274 116.6H263v39.8a1.4 1.4 0 01-1.3 1.4H253a1.4 1.4 0 01-1.4-1.4v-39.8H241a1.3 1.3 0 01-1.4-1.3v-7a1.3 1.3 0 011.4-1.3h33a1.4 1.4 0 011.4 1.3v7a1.4 1.4 0 01-1.4 1.3zM314.5 157.8h-9.3a1.4 1.4 0 01-1.4-1.2l-2.4-11.2h-13.6l-2.4 11.2a1.4 1.4 0 01-1.3 1.2h-9.4a1 1 0 01-1.1-1.1 2.4 2.4 0 000-.3l10-42.4c1.5-6.6 6.4-7.6 11-7.6s9.5 1 11 7.6l10 42.4a2.4 2.4 0 000 .3 1 1 0 01-1 1zm-19-40.7c-.1-.7-.3-1-.9-1s-.8.3-.9 1l-4 18.9h9.9zM335.1 158.4a48.3 48.3 0 01-12.6-1.5c-.7-.2-1.3-.6-1.3-1.4v-6.7c0-1 .5-1.3 1.2-1.3h.2c2.7.3 10 .9 12.6.9 4.6 0 6-1.6 6-4.8 0-2-1-3.1-4.4-5.2l-9.2-5.6c-6.2-3.8-7.9-8.1-7.9-13 0-7.6 4.1-13.4 17-13.4a71.2 71.2 0 0114.2 1.5 1.2 1.2 0 011 1.2v6.9a1 1 0 01-1.1 1.2h-.2c-1.8-.2-9.6-.8-14.1-.8-3.8 0-5.2 1.2-5.2 3.6 0 2 .9 2.8 4.5 4.8l8.5 4.7c7 3.9 9 8.4 9 14 0 7.2-4.7 14.9-18.2 14.9z" class="cls-3"/></g></g></svg>