<svg xmlns="http://www.w3.org/2000/svg" width="512" height="512" viewBox="0 0 60 60" style="fill:#01f603"><defs/><path d="M8 36a3 3 0 10-3-3 3 3 0 003 3zm0-4a1 1 0 11-1 1 1 1 0 011-1zM8 46a4 4 0 10-4-4 4 4 0 004 4zm0-6a2 2 0 11-2 2 2 2 0 012-2z"/><path d="M57 26h-1V9a3 3 0 00-3-3H7a3 3 0 00-3 3v17H3a3 3 0 00-3 3v18a2.982 2.982 0 00.513 1.676A1.983 1.983 0 000 50v2a2 2 0 002 2h56a2 2 0 002-2v-2a1.983 1.983 0 00-.513-1.324A2.982 2.982 0 0060 47V29a3 3 0 00-3-3zm1 3v18a1 1 0 01-1 1H47a1 1 0 01-1-1V29a1 1 0 011-1h10a1 1 0 011 1zm-8-3h-3a3 3 0 00-3 3v7H16v-7a3 3 0 00-3-3h-3V12h40zm-6 14H16v-2h28zm-16 4v-2h4v2zm-12 3v-5h10v2h-5a3 3 0 00-3 3 2.966 2.966 0 00.184 1h-2.368A2.966 2.966 0 0016 47zm4 0a1 1 0 011-1h18a1 1 0 010 2H21a1 1 0 01-1-1zm19-3h-5v-2h10v5a2.966 2.966 0 00.184 1h-2.368A2.966 2.966 0 0042 47a3 3 0 00-3-3zM6 9a1 1 0 011-1h46a1 1 0 011 1v17h-2V12a2 2 0 00-2-2H10a2 2 0 00-2 2v14H6zM2 29a1 1 0 011-1h10a1 1 0 011 1v18a1 1 0 01-1 1H3a1 1 0 01-1-1zm0 23v-2h56v2z"/><path d="M52 36a3 3 0 10-3-3 3 3 0 003 3zm0-4a1 1 0 11-1 1 1 1 0 011-1zM52 46a4 4 0 10-4-4 4 4 0 004 4zm0-6a2 2 0 11-2 2 2 2 0 012-2zM13 17a1 1 0 00.707-.293l1-1a1 1 0 00-1.414-1.414l-1 1A1 1 0 0013 17zM13 22a1 1 0 00.707-.293l6-6a1 1 0 00-1.414-1.414l-6 6A1 1 0 0013 22z"/></svg>