<svg xmlns="http://www.w3.org/2000/svg" width="512" height="512" viewBox="0 0 60 60" style="fill:#01f603"><defs/><path d="M21 44h5v-2H16v5a2.966 2.966 0 01-.184 1h2.368A2.966 2.966 0 0118 47a3 3 0 013-3zM44.184 48A2.966 2.966 0 0144 47v-5H34v2h5a3 3 0 013 3 2.966 2.966 0 01-.184 1zM16 38h28v2H16zM46 29v18a1 1 0 001 1h10a1 1 0 001-1V29a1 1 0 00-1-1H47a1 1 0 00-1 1zm6 1a3 3 0 11-3 3 3 3 0 013-3zm0 8a4 4 0 11-4 4 4 4 0 014-4z"/><circle cx="52" cy="33" r="1"/><circle cx="52" cy="42" r="2"/><path d="M21 48h18a1 1 0 000-2H21a1 1 0 000 2zM28 42h4v2h-4z"/><circle cx="8" cy="33" r="1"/><circle cx="8" cy="42" r="2"/><path d="M8 12a2 2 0 012-2h40a2 2 0 012 2v14h2V9a1 1 0 00-1-1H7a1 1 0 00-1 1v17h2zM3 48h10a1 1 0 001-1V29a1 1 0 00-1-1H3a1 1 0 00-1 1v18a1 1 0 001 1zm5-18a3 3 0 11-3 3 3 3 0 013-3zm0 8a4 4 0 11-4 4 4 4 0 014-4z"/><path d="M47 26h3V12H10v14h3a3 3 0 013 3v7h28v-7a3 3 0 013-3zM12.293 15.293l1-1a1 1 0 011.414 1.414l-1 1a1 1 0 01-1.414-1.414zm7.414.414l-6 6a1 1 0 01-1.414-1.414l6-6a1 1 0 011.414 1.414zM58 50H2v2h56.001z"/></svg>