<svg xmlns="http://www.w3.org/2000/svg" fill="#fff" viewBox="0 0 512 512"><path d="M436 60h-90V45c0-25-20-45-45-45h-90c-25 0-45 20-45 45v15H76c-25 0-45 20-45 45v30c0 8 7 15 15 15h16l27 321c2 23 21 41 44 41h246a45 45 0 0044-41l27-321h16c8 0 15-7 15-15v-30c0-25-20-45-45-45zM196 45c0-8 7-15 15-15h90c8 0 15 7 15 15v15H196V45zm198 423c-1 8-8 14-15 14H133c-7 0-14-6-15-14L92 150h328l-26 318zm57-348H61v-15c0-8 7-15 15-15h360c8 0 15 7 15 15v15z"/><path d="M256 180c-8 0-15 7-15 15v212a15 15 0 0030 0V195c0-8-7-15-15-15zm90 0c-8 0-15 7-15 15v212a15 15 0 0030 0V195c0-8-7-15-15-15zm-180 0c-8 0-15 7-15 15v212a15 15 0 0030 0V195c0-8-7-15-15-15z"/></svg>