<svg xmlns="http://www.w3.org/2000/svg" viewBox="0 0 1346 352"><defs/><defs><style>.cls-1{fill:#5000ad}.cls-2{fill:#00d30a}.cls-3{fill:#fff}</style></defs><g id="Capa_2" data-name="Capa 2"><g id="Capa_1-2" data-name="Capa 1"><path d="M1346 176a176 176 0 01-176 176H320a16 16 0 0012-5l144-160a16 16 0 000-22L332 5a16 16 0 00-12-5h850a176 176 0 01176 176z" class="cls-1"/><path d="M268 187L129 341l-5 6a16 16 0 01-12 5H16a16 16 0 01-12-27l44-48 90-101L48 75 4 27A16 16 0 0116 0h96a16 16 0 0112 5l5 6 139 154a16 16 0 010 22z" class="cls-2"/><path d="M600 157h-65q-16 0-20-6t-1-20l12-40q4-13 13-20t24-6h66l-7 21h-55q-9 0-13 3t-6 11h70l-7 21h-69l-1 1a33 33 0 00-1 6 7 7 0 001 5 6 6 0 003 2 22 22 0 007 1h56zM736 65l-28 92h-23l-30-53-17 53h-25l29-92h22l31 53 16-53zM802 86l-22 71h-25l22-71h-34l6-21h94l-6 21zM906 125l17 32h-28l-17-32h-16l-10 32h-25l29-92h65q16 0 21 6t0 20l-2 8q-4 13-12 19t-22 7zm0-39h-32l-5 18h32a43 43 0 006 0 12 12 0 004-2 8 8 0 003-2 20 20 0 002-5 21 21 0 001-5 3 3 0 00-1-3 7 7 0 00-3-1 52 52 0 00-7 0zM1029 157h-65q-16 0-20-6t-1-20l12-40q4-13 13-20t24-6h66l-7 21h-55q-9 0-13 3t-6 11h70l-7 21h-69l-1 1a34 34 0 00-1 6 7 7 0 001 5 6 6 0 003 2 22 22 0 007 1h56zM1137 157h-66q-15 0-20-6t-1-20l12-40q4-13 13-20t25-6h65l-6 21h-56q-8 0-12 3t-6 11l-7 22a34 34 0 00-1 6 7 7 0 000 5 6 6 0 004 2 22 22 0 007 1h30l10-30h25zM1265 91l-21 66h-25l11-36h-44l-11 36h-25l20-66q4-13 13-20t24-6h36q16 0 21 6t1 20zm-73 9h45a38 38 0 001-6 7 7 0 00-1-5 6 6 0 00-3-2 22 22 0 00-7-1h-16q-9 0-13 3t-6 11zM508 195l-25 82h22l26-82zM603 195l-14 47-28-47h-19l-26 82h23l14-47 27 47h20l25-82zM717 195l-43 44-15-44h-22l-26 82h23l13-43 15 40h3l39-40-13 43h22l26-82zM767 217q4-3 12-3h49l5-19h-57q-14 0-22 6t-12 18l-10 34q-4 12 0 18t18 6h58l6-19h-49a19 19 0 01-6 0 5 5 0 01-3-3 6 6 0 01-1-4 31 31 0 011-5l1-1h61l6-19h-62q2-6 5-9zM920 201q-4-6-18-6h-57l-26 82h58q14 0 22-6t11-18l11-34q4-12-1-18zm-22 20a34 34 0 01-1 5l-6 20a35 35 0 01-3 5 12 12 0 01-3 4 13 13 0 01-4 3 24 24 0 01-7 0h-27l14-44h27a20 20 0 016 1 5 5 0 013 2 6 6 0 011 4zM940 195l-26 82h23l25-82zM1049 201q-5-6-18-6h-32q-14 0-22 6t-11 18l-18 58h22l10-32h39l-10 32h23l17-58q4-12 0-18zm-23 20a34 34 0 01-1 5h-39q1-6 5-9t11-3h14a20 20 0 016 1 5 5 0 013 2 6 6 0 011 4zM1068 195l-6 19h31l-20 63h22l20-63h30l6-19zM1238 201q-4-6-18-6h-32q-14 0-21 6t-12 18l-18 58h22l10-32h39l-9 32h22l18-58q3-12-1-18zm-23 20a34 34 0 01-1 5h-39q2-6 5-9t11-3h14a20 20 0 017 1 5 5 0 013 2 6 6 0 010 4z" class="cls-3"/><path d="M268 187L129 341a177 177 0 01-81-64l90-101L48 75a177 177 0 0181-64l139 154a16 16 0 010 22z" class="cls-1"/><path d="M476 187L332 347a16 16 0 01-12 5h-96a16 16 0 01-12-27l134-149L212 27a16 16 0 0112-27h96a16 16 0 0112 5l144 160a16 16 0 010 22z" class="cls-2"/></g></g></svg>