<svg xmlns="http://www.w3.org/2000/svg" viewBox="0 0 1940 352"><defs/><defs><style>.cls-1{fill:#5000ad}.cls-2{fill:#00d30a}.cls-3{fill:#fff}</style></defs><g id="Capa_2" data-name="Capa 2"><g id="Capa_1-2" data-name="Capa 1"><path d="M1346 176a176 176 0 01-176 176H320a16 16 0 0012-5l144-160a16 16 0 000-22L332 5a16 16 0 00-12-5h850a176 176 0 01176 176z" class="cls-1"/><path d="M1940 176a176 176 0 01-176 176H915a16 16 0 0012-5l144-160a16 16 0 000-22L927 5a16 16 0 00-12-5h849a176 176 0 01176 176z" class="cls-1"/><path d="M268 187L129 341l-5 6a16 16 0 01-12 5H16a16 16 0 01-12-27l44-48 90-101L48 75 4 27A16 16 0 0116 0h96a16 16 0 0112 5l5 6 139 154a16 16 0 010 22z" class="cls-2"/><path d="M268 187L129 341a177 177 0 01-81-64l90-101L48 75a177 177 0 0181-64l139 154a16 16 0 010 22z" class="cls-1"/><path d="M476 187L332 347a16 16 0 01-12 5h-96a16 16 0 01-12-27l134-149L212 27a16 16 0 0112-27h96a16 16 0 0112 5l144 160a16 16 0 010 22z" class="cls-2"/><path d="M536 215v-85h67v19h-44v14h40v19h-40v14h44v19zM634 164v51h-22v-85h23l37 51v-51h22v85h-23zM729 150h-28v-20h79v20h-28v65h-23zM846 182l20 33h-27l-16-29h-13v29h-22v-85h41q17 0 26 7t8 20a25 25 0 01-4 15q-4 6-13 10zm-6-24a8 8 0 00-2-7l-9-2h-19v18h19l8-2a8 8 0 003-7zM873 215v-85h66v19h-44v14h41v19h-41v14h44v19zM991 148a22 22 0 00-17 7 25 25 0 00-6 17q0 11 6 18t17 7q7 0 12-3a18 18 0 007-10h-23v-17h45l1 3v4q0 20-12 31t-31 12q-20 0-33-13t-12-31q0-19 13-32t33-13a48 48 0 0121 5 37 37 0 0115 13l-15 13a27 27 0 00-9-9 25 25 0 00-12-2zM1060 200l-6 15h-23l35-85h24l35 85h-24l-5-15zm18-46l-11 27h21zM1171 215v-85h23v85zM1227 164v51h-22v-85h23l37 51v-51h22v85h-23zM1363 130h34v85h-23v-60l-18 39h-19l-17-39v60h-23v-85h34l16 37zM1407 215v-85h67v19h-44v14h40v19h-40v14h44v19zM1483 215v-85h34q22 0 35 11t13 31q0 20-13 31t-35 12zm59-42q0-11-7-17t-18-6h-12v45h12q11 0 18-6t7-16zM1573 215v-85h23v85zM1630 200l-6 15h-23l34-85h25l35 85h-24l-6-15zm18-46l-11 27h21zM1713 150h-28v-20h79v20h-28v65h-23zM1782 200l-6 15h-23l35-85h25l35 85h-24l-6-15zm18-46l-10 27h21z" class="cls-3"/></g></g></svg>