<svg xmlns="http://www.w3.org/2000/svg" width="25" height="25" viewBox="15 -10 50 60"><g fill="none" fill-rule="nonzero" transform="translate(-1)" style="rotate:-45deg"><rect width="20" height="8" x="3" y="39" fill="#ffdb00" rx="1"/><path fill="#fdc008" d="M22 39h-3a1 1 0 011 1v6a1 1 0 01-1 1h3a1 1 0 001-1v-6a1 1 0 00-1-1z"/><path fill="#90562d" d="M9 47h8v11a1 1 0 01-1 1h-6a1 1 0 01-1-1z"/><path fill="#6d4122" d="M14 47v11a1 1 0 01-1 1h3a1 1 0 001-1V47z"/><path fill="#7f8d93" d="M19.04 39l.7-3.72c.08-.4-.08-.8-.42-1.04l-.98-.65a.7.7 0 01.08-1.21l1.65-.82c.28-.14.48-.41.53-.72L24 13.17c.05-.32-.04-.64-.26-.88L13.74 1.33a1 1 0 00-1.49 0L8.9 5.02a1 1 0 00-.24.86l.3 1.52a.5.5 0 01-.5.6H6.6c-.28 0-.55.12-.74.33l-3.61 3.96c-.21.24-.3.57-.24.88L4.8 27.7a1 1 0 00.61.75l2.13.86a.7.7 0 01.05 1.26l-1.36.69c-.4.2-.62.65-.54 1.1L6.95 39z"/><path fill="#545c60" d="M23.73 12.29L13.74 1.33a1 1 0 00-1.49 0l-.75.83 9.23 10.13c.22.24.3.56.26.88L17.6 30.84c-.06.31-.25.58-.53.72l-1.66.82a.7.7 0 00-.07 1.2l.98.66c.34.23.5.64.42 1.04l-.7 3.72h3l.7-3.72c.08-.4-.08-.8-.42-1.04l-.98-.65a.7.7 0 01.08-1.21l1.65-.82c.28-.14.48-.41.53-.72L24 13.17c.05-.32-.04-.64-.25-.88z"/><g fill="#000"><path d="M9 26a1 1 0 001-1V13a1 1 0 00-2 0v12a1 1 0 001 1zM17 26a1 1 0 001-1V12a1 1 0 00-2 0v13a1 1 0 001 1z"/><path d="M3.81 27.88c.12.67.59 1.24 1.23 1.5l1.5.6-.77.4c-.8.4-1.23 1.29-1.07 2.17L5.74 38H4a2 2 0 00-2 2v6c0 1.1.9 2 2 2h4v10c0 1.1.9 2 2 2h6a2 2 0 002-2V48h4a2 2 0 002-2v-6a2 2 0 00-2-2h-1.75l.48-2.52c.16-.8-.18-1.62-.85-2.07l-.55-.37 1.18-.58a2 2 0 001.07-1.43l3.4-17.7c.1-.62-.1-1.25-.5-1.71L14.47.65a2.07 2.07 0 00-2.97 0l-3.35 3.7a2 2 0 00-.49 1.73l.19.92H6.62c-.57 0-1.11.24-1.5.66l-3.61 3.97c-.42.47-.6 1.1-.47 1.73zM16 58h-2v-2a1 1 0 00-2 0v2h-2V48h2v4a1 1 0 002 0v-4h2zm6-16H11a1 1 0 000 2h11v2H4v-2h3a1 1 0 000-2H4v-2h18zM6.62 9h1.84a1.5 1.5 0 001.48-1.8l-.3-1.51L12 3.1V12a1 1 0 002 0V3.1l9 9.88-3.38 17.69-1.65.82a1.7 1.7 0 00-.19 2.93l.98.68-.55 2.9H14V16a1 1 0 00-2 0v22H7.78l-1.1-5.85 1.36-.69a1.7 1.7 0 00-.13-3.08l-2.13-.87L3 12.96z"/></g></g></svg>