<svg xmlns="http://www.w3.org/2000/svg" xmlns:xlink="http://www.w3.org/1999/xlink" viewBox="0 0 417.9 74.5"><defs/><defs><linearGradient id="Degradado_sin_nombre_314" x1="25.4" x2="82.7" y1="50" y2="50.9" gradientTransform="rotate(-15.2 63 30.8)" gradientUnits="userSpaceOnUse"><stop offset=".5" stop-color="#f15f29"/><stop offset="1" stop-color="#ce181e"/></linearGradient><linearGradient id="Degradado_sin_nombre_435" x1="36.7" x2="84.2" y1="58.9" y2="47.8" gradientTransform="rotate(-15.2 63 30.8)" gradientUnits="userSpaceOnUse"><stop offset=".2" stop-color="#f68628"/><stop offset=".6" stop-color="#f57e20"/><stop offset="1" stop-color="#bb1f19"/></linearGradient><linearGradient id="Degradado_sin_nombre_33" x1="-306.8" x2="-303.2" y1="375.4" y2="375.4" gradientTransform="rotate(-78.4 -314.9 3.9)" gradientUnits="userSpaceOnUse"><stop offset=".5" stop-color="#f15a29"/><stop offset="1" stop-color="#ed1c24"/></linearGradient><linearGradient id="Degradado_sin_nombre_33-2" x1="-285.7" x2="-282" y1="327.7" y2="327.7" xlink:href="#Degradado_sin_nombre_33"/><linearGradient id="Degradado_sin_nombre_445" x1="60.4" x2="124.3" y1="34.8" y2="36.6" gradientTransform="rotate(-15.2 63 30.8)" gradientUnits="userSpaceOnUse"><stop offset=".4" stop-color="#ed9d21"/><stop offset=".8" stop-color="#f47b20"/></linearGradient><linearGradient id="Degradado_sin_nombre_438" x1="66.5" x2="106.4" y1="39.2" y2="39" gradientTransform="rotate(-15.2 63 30.8)" gradientUnits="userSpaceOnUse"><stop offset="0" stop-color="#f3de8c"/><stop offset=".2" stop-color="#f3da86"/><stop offset=".4" stop-color="#f4cd76"/><stop offset=".6" stop-color="#f4b85c"/><stop offset=".9" stop-color="#f59a37"/><stop offset="1" stop-color="#f6871f"/></linearGradient><linearGradient id="Degradado_sin_nombre_314-2" x1="88.1" x2="417.9" y1="38.1" y2="38.1" xlink:href="#Degradado_sin_nombre_314"/><style>.cls-8{fill:#fff}</style></defs><g id="Capa_2" data-name="Capa 2"><g id="Capa_1-2" data-name="Capa 1"><path fill="url(#Degradado_sin_nombre_314)" d="M79 20.1a36.7 36.7 0 013.8 1.2 33 33 0 013 1.3c4.5 2.2 7.4 5.4 10 10.2v1.6l-1.2 12.5-1 9.7 4.6 3 15.3 9.6c-3.5 6-28.3 6.3-35.8 4-8.1-2.6-12.8-9.7-12.8-9.7s7.3 2 7.8-1.7c.3-1.9-2.8-3.6-12.2-4.2s-19-.4-25-4C27.6 49.3 21 40.9 21 40.9s9 3.6 18.3-5.4c8.3-8 13.2-15.2 23-16.5a25.6 25.6 0 013.8-.3A52.8 52.8 0 0179 20.1z"/><path fill="url(#Degradado_sin_nombre_435)" d="M83.1 21.2a31.2 31.2 0 012.8 1.4c4.2 2.5 7.3 6.2 9.8 11.8l-1.1 12.5-1 9.7 8.6 5.7c-2.1 1-13.2 1.8-16.4 1.1-6.8-1.4-7.2-2-7.2-2s6.6-2 2.5-8.2-9.5-7.8-15.7-9.1-11.6 0-16.5-.7l-1.3-.3c.4 0 4.7-2.1 7-5a39 39 0 0111.6-9.3 17 17 0 014-1.5c3.8-1 6.2-1.8 6-2.4 0-.2-.2-.3-.5-.4a6.6 6.6 0 00-1.2-.4c-3.6-.7-4.4-.2-4.4-.2a8.9 8.9 0 012.7-2.4l.6-.3a9.9 9.9 0 015.6-1 14.6 14.6 0 014.1 1z"/><path fill="url(#Degradado_sin_nombre_33)" d="M57.2 69a5.8 5.8 0 00-5 .9c-2.7 1.7-7.3-.6-7.3-.6a16 16 0 005.2-1c2.4-1 6 0 7 .7z"/><path fill="url(#Degradado_sin_nombre_33-2)" d="M17.5 39.6s-4.8 2.5-9.4 1A73.7 73.7 0 010 37a14.2 14.2 0 016.7-.5c3.3.7 10.8 3 10.8 3z"/><path fill="url(#Degradado_sin_nombre_445)" d="M126.7 5.5L98 19.8 96.9 32l-.2 1.6-1.2 13.1-1 10.1c-6-1.3-19.7-6.1-25.5-21l-3.1-8c-2-5-3-8.2-4-10.4a27.8 27.8 0 00-3-6l-2.6-4.2s11 3.8 14.2 4.4 6.4 1 7-1.8-4.1-5.2-4.1-5.2 43.4-11 53.3 1z"/><path fill="url(#Degradado_sin_nombre_438)" d="M97 21l-1.1 11.8-.2 1.6-1.1 12.5c-3.4-.5-7.4-2-8.8-5.7l-2.2-5.8c.3.2 3.4 2.2 4-.5s1.2-5.7-5.1-7a15.2 15.2 0 01-6.3-3l-.5-.4a19.9 19.9 0 01-2.9-3l-.4-.6a10.4 10.4 0 001 .2 21.2 21.2 0 009.4.2h.3l1.3-.4A19.8 19.8 0 0197 21z"/><rect width="329.8" height="70" x="88.1" y="3.1" fill="url(#Degradado_sin_nombre_314-2)" rx="35"/><path d="M156 30.3l-5.4 16a15.3 15.3 0 01-6 8.2q-4.1 2.7-11.2 2.7H117q-7 0-9.3-2.7t-.3-8.2l5.4-16a15.3 15.3 0 016-8.2q4.1-2.7 11.2-2.7h16.4q7.1 0 9.3 2.7t.4 8.2zM139 28h-7.3q-4 0-5.8 1.4a8.8 8.8 0 00-2.7 4.4l-3 9a12.7 12.7 0 00-.7 2.6 2.6 2.6 0 00.3 1.8 2.8 2.8 0 001.6 1 11.2 11.2 0 003.2.4h7.3a14 14 0 003.4-.4 6.8 6.8 0 002.4-1 6 6 0 001.6-1.8 15.6 15.6 0 001.1-2.6l3.1-9a14.6 14.6 0 00.6-2.5 2.8 2.8 0 00-.3-1.9 2.8 2.8 0 00-1.6-1 11.2 11.2 0 00-3.2-.4z" class="cls-8"/><path d="M133.4 58H117c-5 0-8.3-1-10-3s-1.8-5-.5-9l5.5-16a16.2 16.2 0 016.4-8.7c2.8-1.8 6.8-2.8 11.6-2.8h16.5c5 0 8.3 1 10 3s1.8 5.1.4 9.1l-5.4 16a16.1 16.1 0 01-6.4 8.7 21.4 21.4 0 01-11.7 2.8zM130 20.4c-4.5 0-8.1.9-10.7 2.5a14.5 14.5 0 00-5.6 7.8l-5.5 16c-1.1 3.3-1 5.8.2 7.3s4.2 2.3 8.6 2.3h16.4c4.5 0 8.1-.8 10.7-2.5a14.4 14.4 0 005.6-7.7l5.5-16c1.1-3.3 1-5.8-.2-7.3s-4.1-2.3-8.6-2.3zm1.8 29.2h-7.3a12 12 0 01-3.5-.4 3.7 3.7 0 01-2-1.5 3.5 3.5 0 01-.6-2.4 13.4 13.4 0 01.7-2.7l3.2-9a9.7 9.7 0 013-4.8c1.3-1.1 3.4-1.6 6.3-1.6h7.3a12 12 0 013.5.4 3.7 3.7 0 012.1 1.4 3.6 3.6 0 01.5 2.4 16.2 16.2 0 01-.6 2.7l-3.2 9a15.6 15.6 0 01-1.2 2.8 6.7 6.7 0 01-1.8 2 7.8 7.8 0 01-2.7 1.3 14.7 14.7 0 01-3.7.4zm-.2-20.6c-2.5 0-4.2.4-5.2 1.2a8 8 0 00-2.4 4l-3.1 9a11.6 11.6 0 00-.6 2.3 1.7 1.7 0 00.2 1.2 1.9 1.9 0 001 .7 10.3 10.3 0 003 .3h7.3a13 13 0 003.2-.3 6.1 6.1 0 002-.9 5 5 0 001.3-1.5 14.3 14.3 0 001.1-2.4l3.1-9a12.6 12.6 0 00.6-2.4 1.8 1.8 0 00-.2-1.2 2 2 0 00-1.1-.7 10.5 10.5 0 00-3-.3zM164 57.2h-11.4l9.3-27a15.2 15.2 0 016-8.1q4.1-2.7 11.1-2.7h29.8l-3 8.6h-25.2q-4 0-5.8 1.4a8.8 8.8 0 00-2.7 4.4h31.7l-2.9 8.7h-31.8z" class="cls-8"/><path d="M164.7 58h-13.4l9.7-28a16.2 16.2 0 016.3-8.7c3-1.8 6.9-2.8 11.7-2.8h31.1L206.5 29h-25.9c-2.5 0-4.2.4-5.2 1.3a7 7 0 00-2 2.7h31.7l-3.5 10.5h-31.8zM154 56.3h9.5l5-14.7h31.8l2.4-6.7h-31.7l.4-1.3a9.8 9.8 0 013-4.8c1.3-1 3.4-1.6 6.3-1.6h24.6l2.4-6.8H179c-4.5 0-8.1.9-10.7 2.6a14.4 14.4 0 00-5.6 7.7zM244.8 57.2H215q-7.1 0-9.3-2.7t-.3-8.2l5.4-16a15.2 15.2 0 016-8.2q4.1-2.7 11.2-2.7h29.8l-3 8.6h-25.2q-4 0-5.8 1.4a8.8 8.8 0 00-2.7 4.4h31.7l-2.9 8.7h-31.8v.3a12 12 0 00-.7 2.6 2.7 2.7 0 00.3 1.7 2.8 2.8 0 001.6 1.1 11.2 11.2 0 003.2.4h25.3z" class="cls-8"/><path d="M245.5 58H215c-5 0-8.3-1-10-3s-1.8-5-.5-9l5.5-16a16.3 16.3 0 016.3-8.7c3-1.8 6.9-2.8 11.7-2.8h31.1L255.5 29h-25.9c-2.5 0-4.2.5-5.2 1.3a6.9 6.9 0 00-2 2.7h31.7l-3.5 10.5h-31.8a10.5 10.5 0 00-.5 2 1.7 1.7 0 00.2 1.3 2 2 0 001 .7 10.5 10.5 0 003 .3H249zM228 20.4c-4.5 0-8.1.9-10.7 2.5a14.4 14.4 0 00-5.6 7.8l-5.5 16c-1.1 3.3-1 5.8.2 7.3s4.2 2.3 8.6 2.3H244l2.3-6.7h-24a12 12 0 01-3.5-.4 3.6 3.6 0 01-2-1.5 3.6 3.6 0 01-.5-2.4 14 14 0 01.7-2.7l.3-1h31.8l2.3-6.7-31.7-.1.4-1.2a9.8 9.8 0 013-4.8c1.3-1 3.4-1.6 6.4-1.6h24.6l2.3-6.8zM286.6 44l7.7 13.2h-12.7l-8-13h-7l-4.6 13h-11.4l13-37.8h29.8q7.1 0 9.3 2.7t.4 8.2l-1 3a16 16 0 01-5.5 7.9 17.6 17.6 0 01-10 2.9zm0-16h-14.5l-2.5 7.5H284a22.9 22.9 0 002.9-.2 5.8 5.8 0 002-.6 3.5 3.5 0 001.2-1.1 7.7 7.7 0 00.9-1.8 8.1 8.1 0 00.5-2 1.3 1.3 0 00-.4-1.2 3.3 3.3 0 00-1.6-.5 27.9 27.9 0 00-3-.1z" class="cls-8"/><path d="M296 58h-15l-8-13h-5.8l-4.5 13h-13.4L263 18.6h30.5c5 0 8.3 1 10 3s1.8 5 .4 9l-1 3a17 17 0 01-5.7 8.4 17.8 17.8 0 01-9.1 3zm-13.9-1.8h10.7l-7.8-13h1.5c4.2-.2 7.4-1.1 9.7-2.8a15.3 15.3 0 005-7.5l1-2.9c1.2-3.3 1.2-5.8-.1-7.3s-4.2-2.4-8.6-2.4h-29.2l-12.4 36h9.5l4.5-13h8.1zm2-19.8h-15.8l3.1-9.3h15.3a27.3 27.3 0 013 .1 4 4 0 012 .7 2.1 2.1 0 01.8 2 9.2 9.2 0 01-.5 2.2 8.8 8.8 0 01-1 2 4.4 4.4 0 01-1.6 1.4 7 7 0 01-2.2.7 23 23 0 01-3 .2zm-13.3-1.8h13.3a19 19 0 002.8-.2 4.8 4.8 0 001.6-.5 2.5 2.5 0 001-.8 7 7 0 00.7-1.6 6.6 6.6 0 00.5-1.8v-.3a2.3 2.3 0 00-1.2-.4 25.8 25.8 0 00-2.8 0h-14zM336.7 28l-10 29.2h-11.5l10-29.2h-15.7l3-8.6h43l-3 8.6z" class="cls-8"/><path d="M327.4 58H314l10-29h-15.8l3.7-10.5h44.9L353 28.9h-15.7zm-10.9-1.8h9.5l10-29.1h15.8l2.3-6.8h-41l-2.3 6.8h15.7zM400.6 30.3l-9.2 26.9h-11.5l5.1-14.8h-20.3l-5 14.8h-11.5l9.2-27a15.3 15.3 0 016-8.1q4.1-2.7 11.2-2.7H391q7.1 0 9.3 2.7t.3 8.2zm-32.9 3.5H388a14.6 14.6 0 00.6-2.5 2.8 2.8 0 00-.3-1.9 2.8 2.8 0 00-1.7-1 11.2 11.2 0 00-3.2-.4h-7.2q-4 0-5.8 1.4a8.7 8.7 0 00-2.7 4.4z" class="cls-8"/><path d="M392 58h-13.4l5-14.7h-18.2l-5.1 14.8h-13.4l9.6-28.1a16.2 16.2 0 016.4-8.7c2.9-1.8 6.8-2.8 11.7-2.8H391c5 0 8.3 1 10 3s1.9 5.1.5 9.1zm-10.8-1.8h9.5l9-26.2c1.1-3.4 1-5.8-.2-7.3s-4.2-2.4-8.6-2.4h-16.4c-4.5 0-8.1.9-10.7 2.5a14.5 14.5 0 00-5.6 7.8l-8.8 25.6h9.6l5-14.7h22.3zm7.4-21.5h-22.2l.4-1.2a9.8 9.8 0 013-4.8c1.4-1 3.5-1.6 6.4-1.6h7.3a12 12 0 013.4.4 3.8 3.8 0 012.1 1.4 3.6 3.6 0 01.5 2.5 15.2 15.2 0 01-.7 2.7zM369 33h18.3a11.4 11.4 0 00.4-1.7 1.8 1.8 0 00-.2-1.3 2 2 0 00-1.1-.7 10.5 10.5 0 00-3-.3h-7.2c-2.5 0-4.3.4-5.3 1.3a7.1 7.1 0 00-1.9 2.7z" class="cls-8"/></g></g></svg>