<svg xmlns="http://www.w3.org/2000/svg" xmlns:xlink="http://www.w3.org/1999/xlink" viewBox="0 0 493.6 89"><defs/><defs><linearGradient id="Degradado_sin_nombre_314" x1="25.4" x2="79.8" y1="42" y2="43" gradientUnits="userSpaceOnUse"><stop offset=".5" stop-color="#f15f29"/><stop offset="1" stop-color="#ce181e"/></linearGradient><linearGradient id="Degradado_sin_nombre_435" x1="36.9" x2="87.3" y1="52.8" y2="41.1" gradientUnits="userSpaceOnUse"><stop offset=".2" stop-color="#f68628"/><stop offset=".6" stop-color="#f57e20"/><stop offset="1" stop-color="#bb1f19"/></linearGradient><linearGradient id="Degradado_sin_nombre_33" x1="-265.7" x2="-262.1" y1="329.9" y2="329.9" gradientTransform="rotate(-63.2 -329.4 -53.7)" gradientUnits="userSpaceOnUse"><stop offset=".5" stop-color="#f15a29"/><stop offset="1" stop-color="#ed1c24"/></linearGradient><linearGradient id="Degradado_sin_nombre_33-2" x1="-243.8" x2="-239.9" y1="280.3" y2="280.3" xlink:href="#Degradado_sin_nombre_33"/><linearGradient id="Degradado_sin_nombre_445" x1="62.8" x2="108.2" y1="29.9" y2="31.1" gradientUnits="userSpaceOnUse"><stop offset=".4" stop-color="#ed9d21"/><stop offset=".8" stop-color="#f47b20"/></linearGradient><linearGradient id="Degradado_sin_nombre_438" x1="68.3" x2="111.6" y1="34.4" y2="34.2" gradientUnits="userSpaceOnUse"><stop offset="0" stop-color="#f3de8c"/><stop offset=".2" stop-color="#f3da86"/><stop offset=".4" stop-color="#f4cd76"/><stop offset=".6" stop-color="#f4b85c"/><stop offset=".9" stop-color="#f59a37"/><stop offset="1" stop-color="#f6871f"/></linearGradient><linearGradient id="Degradado_sin_nombre_470" x1="79.4" x2="492.6" y1="50" y2="50" gradientUnits="userSpaceOnUse"><stop offset=".5" stop-color="#5f00f4"/><stop offset="1" stop-color="#3d009e"/></linearGradient><linearGradient id="Degradado_sin_nombre_465" x1="-28.8" x2="47" y1="102.9" y2="143.1" gradientTransform="rotate(19.8 291 376.9)" gradientUnits="userSpaceOnUse"><stop offset=".5" stop-color="#15d800"/><stop offset="1" stop-color="#009b00"/></linearGradient><linearGradient id="Degradado_sin_nombre_470-2" x1="53.3" x2="84.9" y1="-23.9" y2="5.5" gradientTransform="rotate(50 78.4 57.8)" xlink:href="#Degradado_sin_nombre_470"/><style>.cls-9{fill:#fff}</style></defs><g id="Capa_2" data-name="Capa 2"><g id="Capa_1-2" data-name="Capa 1"><path fill="url(#Degradado_sin_nombre_314)" d="M84 19.1a38.4 38.4 0 013.5 2.3c1 .6 1.9 1.4 2.8 2.1a25 25 0 018.2 13.3l-.5 1.5-4.6 12.3-3.6 9.5-2 5.5.4 5.7c-4.2 1.4-14.2 2-20.6-.3-8.3-3-9.5-12.1-9.5-12.1s6.8 4 8.3.4c.7-1.9-1.9-4.4-11.2-7.6S36.2 46 31 41c-6.7-6.6-11-16.9-11-16.9s8 6 19.9-.4C50.5 17.9 57.4 12 67.7 13.3a26.9 26.9 0 013.8.7A55.2 55.2 0 0184 19.1z"/><path fill="url(#Degradado_sin_nombre_435)" d="M87.9 21.4a20.5 20.5 0 012.4 2.1A27 27 0 0198 38.3l-4.6 12.3-3.6 9.5-2 5.5a13.8 13.8 0 01-8.7-1.1c-6.5-3.3-6.7-4-6.7-4s7.2-.2 4.7-7.6-7.4-10.4-13.3-13.4-11.6-3-16.3-5.2l-1.3-.7c.4.2 5.3-.8 8.5-3.1a40.7 40.7 0 0114-6.2 18 18 0 014.5-.4c4.2 0 6.7 0 6.7-.8 0-.1-.1-.3-.4-.5a8 8 0 00-1-.7C75 20.2 74 20.4 74 20.4a9.2 9.2 0 013.3-1.6l.7-.2a10.2 10.2 0 016 .6 14.5 14.5 0 013.8 2.2z"/><path fill="url(#Degradado_sin_nombre_33)" d="M48.8 62.4a6 6 0 00-5.3-.5c-3.1 1-7.1-2.6-7.1-2.6a16.4 16.4 0 005.5.4c2.6-.4 6 1.7 6.9 2.6z"/><path fill="url(#Degradado_sin_nombre_33-2)" d="M16.9 22s-5.6 1.2-9.7-1.7A77.7 77.7 0 010 14.6a14.7 14.7 0 016.8 1.3c3.2 1.6 10 6 10 6z"/><path fill="url(#Degradado_sin_nombre_445)" d="M113.2 15.7l-9 8.5-4.5 12-.6 1.6-4.7 12.8-3.7 10c-5.7-3-19.3-11.9-21-28.4l-1-9-1-11.5A29 29 0 0066.3 5L64.7 0s10.1 6.8 13.1 8.3 6.1 2.7 7.5 0S82.6 2 82.6 2s23.9-1 30.6 13.7z"/><path fill="url(#Degradado_sin_nombre_438)" d="M102.8 25.3l-4.3 11.4-.5 1.6-4.6 12.3C90 49 85.5 46.3 85 42.2l-.6-6.4c.2.2 3.9 3.4 5.2.8s1.7-5.7-4.3-8.8a15.9 15.9 0 01-5.5-4.7l-.4-.5a21 21 0 01-2-3.8c-.3-.5-.3-.8-.3-.8l1 .6a22.1 22.1 0 009.4 2.8h1.7a24 24 0 0113.5 3.9z"/><rect width="413.3" height="76.1" x="79.4" y="11.9" fill="url(#Degradado_sin_nombre_470)" stroke="#fff" stroke-miterlimit="10" stroke-width="2" rx="38.1"/><path fill="url(#Degradado_sin_nombre_465)" stroke="#fff" stroke-miterlimit="10" stroke-width="3" d="M129.3 20.9A31 31 0 10148 60.5a31 31 0 00-18.7-39.6zm.8 8.8a3 3 0 11-1.2-4.1 3 3 0 011.2 4z"/><path d="M101 62.8l29.7-25.6h8.2l-29.6 25.6zm18.9-22.4l-1.9 5.4a5.3 5.3 0 01-2 2.8 6.9 6.9 0 01-3.8.9h-5.6c-1.5 0-2.6-.3-3.1-1s-.6-1.4-.1-2.7l1.8-5.4a5.3 5.3 0 012-2.8 6.8 6.8 0 013.8-1h5.6c1.6 0 2.6.4 3.1 1s.6 1.5.1 2.8zm-6.5 0h-1.9a2.3 2.3 0 00-1.4.4 2.5 2.5 0 00-.7 1.1l-.8 2.3a1.4 1.4 0 000 1c0 .3.5.5 1.1.5h1.9a2.3 2.3 0 001.5-.4 2.5 2.5 0 00.7-1.1l.7-2.3a1.5 1.5 0 00.1-1.1c-.1-.2-.5-.4-1.2-.4zm23 13.8l-1.8 5.4a5 5 0 01-2 2.8 6.9 6.9 0 01-3.8.9h-5.6c-1.6 0-2.6-.3-3.1-.9a2.8 2.8 0 01-.2-2.8l2-5.4a5 5 0 012-2.8 6.9 6.9 0 013.7-.9h5.6c1.6 0 2.6.3 3.1 1s.6 1.5.2 2.8zm-6.4 0h-1.9a2.2 2.2 0 00-1.4.4 2.7 2.7 0 00-.7 1.2l-.8 2.3a1.5 1.5 0 000 1c0 .3.4.4 1.1.4h1.9a2.4 2.4 0 001.5-.3 2.3 2.3 0 00.7-1.1l.8-2.3a1.5 1.5 0 000-1.1c-.1-.3-.5-.4-1.2-.4z" class="cls-9"/><path fill="url(#Degradado_sin_nombre_470-2)" stroke="#fff" stroke-miterlimit="10" d="M134.7 22.6a13.4 13.4 0 10-24-2.3l2.8-.6a10.4 10.4 0 1118.4 1.6 10.2 10.2 0 01-2 2.3 10.3 10.3 0 01-2.3 1.5 10 10 0 01-2 .7 3.2 3.2 0 00-1.1 3.1 13.2 13.2 0 006-2 13 13 0 001.4-1 13.2 13.2 0 002.8-3.3z"/><path d="M208 41.4l-6 17.4a16.6 16.6 0 01-6.5 9q-4.5 2.9-12.2 2.9h-17.8q-7.7 0-10.2-3t-.3-8.9l6-17.4a16.5 16.5 0 016.5-8.9q4.4-2.9 12.1-2.9h17.9q7.7 0 10 3t.4 8.8zM189.1 39h-7.9q-4.4 0-6.3 1.6a9.5 9.5 0 00-2.9 4.7l-3.4 9.7a14.2 14.2 0 00-.7 2.8 2.9 2.9 0 00.4 2 3 3 0 001.7 1.1 12.2 12.2 0 003.5.4h8a15.1 15.1 0 003.6-.4 7.3 7.3 0 002.6-1.2 6.2 6.2 0 001.8-1.9 16.5 16.5 0 001.2-2.8l3.4-9.8a15.7 15.7 0 00.6-2.7 3 3 0 00-.3-2 3 3 0 00-1.8-1.2 12.3 12.3 0 00-3.4-.3z" class="cls-9"/><path d="M183.3 71.7h-17.8c-5.5 0-9.1-1.1-11-3.3s-2-5.6-.4-9.9l5.9-17.4a17.6 17.6 0 017-9.4c3-2 7.3-3 12.6-3h17.9c5.5 0 9 1 10.8 3.2s2 5.5.6 9.9l-6 17.4a17.6 17.6 0 01-6.9 9.4 23 23 0 01-12.7 3zm-3.7-41c-4.9 0-8.8.9-11.6 2.7a15.7 15.7 0 00-6.1 8.4L156 59.2c-1.2 3.6-1.2 6.3.2 8s4.5 2.5 9.3 2.5h17.9c4.9 0 8.8-1 11.6-2.7a15.6 15.6 0 006-8.4l6-17.5c1.3-3.6 1.2-6.3-.2-8s-4.5-2.5-9.3-2.5zm2 31.7h-8a12.7 12.7 0 01-3.8-.5 4 4 0 01-2.3-1.6 3.9 3.9 0 01-.5-2.6 14.8 14.8 0 01.8-3l3.4-9.7a10.6 10.6 0 013.2-5.2c1.5-1.2 3.7-1.8 7-1.8h7.8a13.3 13.3 0 013.8.4 4 4 0 012.3 1.6 4 4 0 01.5 2.6 16.4 16.4 0 01-.6 3l-3.4 9.8a17.7 17.7 0 01-1.4 3 7.3 7.3 0 01-2 2.2 8.6 8.6 0 01-2.9 1.4 16.2 16.2 0 01-4 .3zm-.3-22.4c-2.7 0-4.6.5-5.6 1.3a8.7 8.7 0 00-2.6 4.3l-3.4 9.8a13.7 13.7 0 00-.7 2.6 2 2 0 00.2 1.3 2.1 2.1 0 001.2.7 11.7 11.7 0 003.2.4h8a14 14 0 003.4-.4 6.3 6.3 0 002.2-1 5.5 5.5 0 001.5-1.6 14.5 14.5 0 001.2-2.7l3.4-9.7a14.5 14.5 0 00.6-2.6 2 2 0 00-.3-1.3 2.2 2.2 0 00-1.2-.8 11.8 11.8 0 00-3.1-.3zM216.6 70.7h-12.4l10-29.3a16.6 16.6 0 016.5-8.9q4.4-2.9 12.2-2.9h32.4L262 39h-27.5q-4.4 0-6.3 1.6a9.6 9.6 0 00-2.9 4.7H260l-3.2 9.4h-34.5z" class="cls-9"/><path d="M217.3 71.7h-14.5L213.3 41a17.6 17.6 0 016.9-9.4c3.1-2 7.4-3 12.7-3h33.8l-4 11.3h-28c-2.8 0-4.7.4-5.8 1.3a7.6 7.6 0 00-2 3h34.4l-3.9 11.4h-34.5zm-11.7-2h10.3l5.5-16H256l2.5-7.4h-34.4l.4-1.4a10.6 10.6 0 013.2-5.2c1.5-1.2 3.7-1.8 7-1.8h26.7l2.5-7.3h-31c-4.9 0-8.8 1-11.6 2.7a15.7 15.7 0 00-6.1 8.4zM304.4 70.7H272q-7.7 0-10.1-3t-.4-8.9l6-17.4a16.6 16.6 0 016.5-8.9q4.5-2.9 12.2-2.9h32.4l-3.3 9.4H288c-3 0-5 .5-6.3 1.6a9.6 9.6 0 00-3 4.7h34.5l-3.1 9.4h-34.6l-.1.3a14 14 0 00-.7 2.8 2.8 2.8 0 00.3 2 3 3 0 001.8 1.1 12.3 12.3 0 003.5.4h27.4z" class="cls-9"/><path d="M305.2 71.7H272c-5.5 0-9-1.1-10.9-3.3s-2-5.6-.5-9.9l6-17.4a17.6 17.6 0 016.8-9.4c3.2-2 7.4-3 12.8-3H320L316 40H288c-2.7 0-4.6.5-5.7 1.3a7.7 7.7 0 00-2 3l34.3.1-3.8 11.3H276a11.9 11.9 0 00-.5 2.3 1.9 1.9 0 00.2 1.3 2.1 2.1 0 001.2.7 11.7 11.7 0 003.2.3H309zm-19-41c-5 0-8.9.9-11.7 2.7a15.6 15.6 0 00-6 8.4l-6 17.4c-1.3 3.6-1.2 6.3.2 8s4.5 2.5 9.3 2.5h31.7l2.5-7.3h-26a12.8 12.8 0 01-3.8-.4 4 4 0 01-2.3-1.6 3.9 3.9 0 01-.5-2.6 15 15 0 01.8-3l.4-1h34.5l2.5-7.4h-34.5l.4-1.3a10.7 10.7 0 013.3-5.4c1.5-1.2 3.7-1.8 7-1.8h26.7l2.5-7.3zM349.8 56.4l8.5 14.3h-13.9l-8.8-14.2h-7.5l-4.9 14.2h-12.5l14.2-41h32.4q7.7 0 10.1 2.9t.4 8.9l-1 3.2a17.4 17.4 0 01-6 8.6q-4 2.9-11 3.1zM350 39h-15.9l-2.8 8.1h15.9a22.8 22.8 0 003.1-.1 6.2 6.2 0 002.1-.7 3.8 3.8 0 001.4-1.3 8.3 8.3 0 001-2 8.4 8.4 0 00.6-2.2 1.3 1.3 0 00-.5-1.2 3.4 3.4 0 00-1.7-.6 29.5 29.5 0 00-3.2 0z" class="cls-9"/><path d="M360 71.7H344L335 57.5h-6.3l-4.9 14.2h-14.6l14.9-43h33.1c5.5 0 9 1 10.9 3.2s2 5.6.5 9.9l-1 3.2a18.5 18.5 0 01-6.3 9 19.3 19.3 0 01-9.9 3.4zm-15-2h11.5l-8.4-14.2h1.7c4.5-.2 8-1.3 10.4-3a16.5 16.5 0 005.6-8.2l1-3.2c1.3-3.6 1.2-6.3-.1-8s-4.6-2.5-9.4-2.5h-31.7l-13.4 39h10.3l4.9-14.2h8.8zm2.2-21.6h-17.3l3.5-10.1H350a29.4 29.4 0 013.3.1 4.3 4.3 0 012.2.8 2.3 2.3 0 01.9 2.1 10 10 0 01-.6 2.5 9.8 9.8 0 01-1.1 2.2 4.9 4.9 0 01-1.7 1.5 7 7 0 01-2.5.8 24.7 24.7 0 01-3.3 0zm-14.5-2h14.5a22.3 22.3 0 003-.2 5.3 5.3 0 001.8-.5 3 3 0 001-1 7.5 7.5 0 00.8-1.7 8 8 0 00.5-1.9v-.4a2.4 2.4 0 00-1.3-.3 27.6 27.6 0 00-3-.1h-15.2zM404.4 39l-11 31.7H381L392 39h-17.2l3.2-9.4h46.7l-3.2 9.4z" class="cls-9"/><path d="M394.2 71.7h-14.6l11-31.7h-17.2l4-11.3h48.8l-4 11.3h-17.1zm-11.8-2h10.4L403.6 38h17.2l2.5-7.3h-44.6l-2.5 7.3h17.1zM473.9 41.4l-10.1 29.3h-12.4l5.5-16.1h-22.1l-5.5 16h-12.5l10-29.2a16.6 16.6 0 016.6-8.9q4.4-2.9 12.1-2.9h17.9q7.7 0 10 3c1.7 1.8 1.8 4.8.5 8.8zM438 45.3h22a15.7 15.7 0 00.7-2.8 3 3 0 00-.3-2 3 3 0 00-1.8-1.2 12.2 12.2 0 00-3.5-.4h-7.9q-4.4 0-6.3 1.6a9.6 9.6 0 00-2.9 4.8z" class="cls-9"/><path d="M464.5 71.7H450l5.6-16.1h-20l-5.5 16h-14.6L426 41.2a17.6 17.6 0 017-9.4c3-2 7.3-3 12.6-3h17.9c5.5 0 9 1 10.9 3.2s2 5.5.5 9.9zm-11.8-2h10.4l9.8-28.6c1.2-3.6 1.2-6.3-.2-8s-4.5-2.5-9.3-2.5h-17.9c-4.9 0-8.8.9-11.6 2.7a15.7 15.7 0 00-6 8.4l-9.7 27.9h10.4l5.5-16h24.2zm8.2-23.4h-24.2l.4-1.3a10.6 10.6 0 013.2-5.3c1.5-1.2 3.8-1.7 7-1.7h7.9a13.1 13.1 0 013.7.4 4 4 0 012.4 1.6 4 4 0 01.4 2.6 15.7 15.7 0 01-.6 3zm-21.4-2h19.9a11 11 0 00.4-2 2 2 0 00-.2-1.3 2.2 2.2 0 00-1.3-.7 11.8 11.8 0 00-3.1-.3h-8c-2.6 0-4.5.4-5.6 1.3a7.7 7.7 0 00-2.1 3z" class="cls-9"/></g></g></svg>