<svg xmlns="http://www.w3.org/2000/svg" viewBox="0 0 577 770"><defs><style>.cls-4{fill:#fff}</style></defs><g id="Capa_2" data-name="Capa 2"><g id="Capa_1-2" data-name="Capa 1"><circle cx="370" cy="379.8" r="143.8" fill="#ff6700"/><path fill="#ff6700" stroke="#ff9d00" stroke-miterlimit="10" stroke-width="22" d="M521 318C460 215 358 152 358 19 243 85 222 239 219 318c-1 29-15 33-15 33s-16 5-36-33c-10-19-18-45-18-79A282 282 0 0011 482c0 153 124 277 278 277a278 278 0 00277-277c0-68-19-120-45-164zM263 462c134-34 109-29 109-29s109 189-59 231a104 104 0 11-50-202z"/><circle cx="288.6" cy="523.6" r="163.3" fill="#e03f00"/><path d="M155 469l56-7 9-42 32-4-23 110-32 4 9-43-57 7-9 43-32 4 23-110 32-4zM382 430l-9 47q-3 16-14 25t-30 11l-46 6q-20 3-27-4t-4-23l10-46q3-16 13-25t31-12l46-6q19-2 27 5t3 22zm-48 0l-21 3q-11 1-15 6t-6 13l-6 26a36 36 0 00-1 7 7 7 0 002 5 8 8 0 005 3 32 32 0 009 0l20-3a39 39 0 009-2 19 19 0 007-4 16 16 0 004-6 42 42 0 002-7l5-26a39 39 0 001-8 8 8 0 00-1-5 8 8 0 00-5-2 32 32 0 00-9 0zM476 412l-18 85-32 4 18-85-44 6 5-25 120-16-5 25zM190 565l-7 35q-2 11-10 18t-22 8l-62 8 17-81 62-8q14-2 20 3t2 17zm-36 0l-28 4-9 44 28-4a30 30 0 007-1 14 14 0 005-3 12 12 0 003-4 31 31 0 001-6l4-19a30 30 0 001-6 6 6 0 00-1-3 6 6 0 00-4-2 24 24 0 00-7 0zM292 552l-12 58-24 3 7-32-42 6-7 31-24 3 12-57q3-12 11-19t22-8l34-5q14-1 20 3t3 17zm-67 16l41-5a29 29 0 001-6 6 6 0 00-1-3 6 6 0 00-4-2 24 24 0 00-6 0l-15 2q-9 1-12 4t-4 10zM374 519l24-3-7 30q-2 12-10 18t-22 9h-5l-6 28-24 3 6-28-5 1q-15 2-20-3t-3-17l6-30 24-3-5 23a26 26 0 000 5 6 6 0 001 4 6 6 0 003 1 24 24 0 007 0l15-2a29 29 0 007-1 14 14 0 005-3 12 12 0 003-4 31 31 0 001-6zM486 569a35 35 0 01-9 12 25 25 0 01-13 6l-71 9 3-19 57-7q3 0 3-2v-2a9 9 0 00-1 0l-43-18a9 9 0 01-6-6 20 20 0 010-10 6 6 0 011-3 35 35 0 019-11 25 25 0 0113-6l71-9-4 19-57 7a4 4 0 00-1 0 3 3 0 00-2 2 3 3 0 001 1 4 4 0 001 1l43 18a9 9 0 013 2 11 11 0 012 3 15 15 0 011 5 22 22 0 010 6 8 8 0 01-1 2z" class="cls-4"/></g></g></svg>