<svg xmlns="http://www.w3.org/2000/svg" viewBox="0 0 4005 816"><defs/><defs><style>.cls-2{fill:#0df700}</style></defs><g id="Capa_2" data-name="Capa 2"><g id="Capa_1-2" data-name="Capa 1"><circle cx="408" cy="404" r="342.8" fill="#6400c4"/><path d="M536 289s19 188 14 207c-5 15-86 69-111 85l-12 39 9-73c3-32 7-94 6-138 0 0 66-53 69-59s0-7 4-12c0 0-87 45-87 48l-7 84c-1 4-13 14-13 14s-12-11-13-14l-7-84c0-4-87-48-87-48 4 5 0 7 4 12s69 59 69 59c-1 76 10 177 10 177l5 34-13-39c-26-17-105-70-110-86-5-18 15-206 15-206 2 2 14 46 3-17-2-13 2-26 10-36 21-23 58-33 87-38 44-6 97 2 131 31 14 11 23 25 20 43-11 63 1 19 4 17z" class="cls-2"/><path d="M408 0a408 408 0 100 816 408 408 0 000-816zm5 714a310 310 0 110-620 310 310 0 010 620zM1429 606h9v6h-173v-5h8a24 24 0 0017-8c5-5 7-11 6-17l-23-210-130 252h-6L988 374l-22 208c-1 6 1 12 6 17s10 8 16 8h9v5H876v-6h10c10 0 20-3 28-9s12-16 14-27l48-371h5l179 295 172-295h6l49 371c2 11 7 20 15 27a42 42 0 0027 9zM1917 606h5v6h-184v-6h5c8 0 15-2 19-7s6-11 6-15a37 37 0 00-3-14l-29-71h-135l-30 71a39 39 0 00-3 14c0 5 2 9 7 15s10 7 19 7h4v6h-123v-6h5c9 0 18-2 26-8s17-13 22-24l134-302q27-58 29-76h5l172 377q8 17 22 25 13 8 27 8zm-306-131h116l-56-143zM2210 606q12 0 20-11a26 26 0 003-12 23 23 0 00-3-12l-81-126-85 126a22 22 0 000 23c5 8 12 12 20 12h7v6h-142v-6h8q32 0 57-32l114-161-107-166a86 86 0 00-25-24 61 61 0 00-33-10h-9v-5h197v5h-8q-12 0-19 12a27 27 0 00-4 12 23 23 0 003 12l73 111 71-111a23 23 0 003-12 21 21 0 00-4-12c-5-8-11-12-20-12h-7v-5h142v5h-8a59 59 0 00-32 10 90 90 0 00-26 24l-98 146 116 180a81 81 0 0026 24c10 6 21 9 32 9h9v6h-198v-6zM2473 606a35 35 0 0026-10 37 37 0 0011-26V249a36 36 0 00-11-25 36 36 0 00-26-11h-8v-5h176v5h-7a37 37 0 00-26 11 34 34 0 00-11 25v321a34 34 0 0011 26 36 36 0 0026 10h7v6h-176v-6zM3250 606h9v6h-173v-5h9a24 24 0 0016-8c5-5 7-11 6-17l-22-210-131 252h-6l-148-250-23 208c-1 6 1 12 6 17s10 8 17 8h8v5h-120v-6h9a42 42 0 0028-9c8-7 12-16 14-27l48-371h5l179 295 173-295h5l49 371c2 11 7 20 15 27a42 42 0 0027 9zM3694 213h-10a30 30 0 00-20 8 27 27 0 00-10 19v226q0 71-44 113t-122 41q-92 0-140-40-49-41-49-113V242q0-17-15-25a32 32 0 00-15-4h-10v-5h167v5h-9c-9 0-16 3-22 8a27 27 0 00-9 20v221c0 41 10 73 30 97s48 36 83 36 63-11 83-34 31-53 31-92V241q-1-17-15-24a33 33 0 00-15-4h-10v-5h121zM3726 558q0-41 18-71h5a74 74 0 000 10q0 39 28 69t79 30q38 0 60-18t22-47a46 46 0 00-11-30q-11-14-35-30l-101-66q-56-38-56-93a56 56 0 011-11q3-46 36-74t85-28c22 0 48 2 79 6h36l-7 85h-6q0-30-22-48t-59-18q-45 0-66 27c-7 9-10 18-10 27s2 16 5 23q8 15 35 32l111 72q52 34 52 89 0 61-42 94t-111 32q-40 0-73-9t-49-26q-4-11-4-27z" class="cls-2"/></g></g></svg>