<svg xmlns="http://www.w3.org/2000/svg" xmlns:xlink="http://www.w3.org/1999/xlink" viewBox="0 0 267.12 34.46"><defs><linearGradient id="Degradado_sin_nombre_10" x1="90.31" x2="115.94" y1="18.62" y2="18.62" gradientTransform="matrix(1 0 0 -1 0 42.26)" gradientUnits="userSpaceOnUse"><stop offset="0" stop-color="#0a73b8"/><stop offset="1" stop-color="#2b4570"/></linearGradient><linearGradient id="Degradado_sin_nombre_10-2" x1="124.09" x2="124.09" y1="3.22" y2="33.43" xlink:href="#Degradado_sin_nombre_10"/><linearGradient id="Degradado_sin_nombre_10-3" x1="132.89" x2="132.89" y1="3.77" y2="30.18" xlink:href="#Degradado_sin_nombre_10"/><linearGradient id="Degradado_sin_nombre_10-4" x1="141.99" x2="141.99" y1="3.22" y2="33.43" xlink:href="#Degradado_sin_nombre_10"/><linearGradient id="Degradado_sin_nombre_10-5" x1="156.04" x2="156.04" y1="3.22" y2="33.42" xlink:href="#Degradado_sin_nombre_10"/><linearGradient id="Degradado_sin_nombre_10-6" x1="170.09" x2="170.09" y1="3.22" y2="33.43" xlink:href="#Degradado_sin_nombre_10"/><linearGradient id="Degradado_sin_nombre_10-7" x1="182.74" x2="182.74" y1="3.22" y2="33.42" xlink:href="#Degradado_sin_nombre_10"/><linearGradient id="Degradado_sin_nombre_10-8" x1="192.44" x2="192.44" y1="3.22" y2="33.42" xlink:href="#Degradado_sin_nombre_10"/><linearGradient id="Degradado_sin_nombre_10-9" x1="201.59" x2="201.59" y1="3.22" y2="33.42" xlink:href="#Degradado_sin_nombre_10"/><linearGradient id="Degradado_sin_nombre_10-10" x1="211.99" x2="211.99" y1="3.32" y2="33.53" xlink:href="#Degradado_sin_nombre_10"/><style>.cls-1{fill:#333539}.cls-13{fill:#323337}.cls-14{fill:#124066}</style></defs><g id="Capa_2" data-name="Capa 2"><g id="Capa_1-2" data-name="Capa 1"><path d="M35.44 13.43h3.9v21.1h-3.9zM47.84 19.13c4.5 0 7.9 3 7.9 8a7.48 7.48 0 01-7.9 7.8c-5 0-7.9-3.4-7.9-7.8 0-5 3.4-8 7.9-8zm0 12.7c3 0 3.8-2.7 3.8-5.2 0-2.3-1.2-4.5-3.8-4.5s-3.8 2.2-3.8 4.5c-.04 2.5.8 5.2 3.8 5.2zM56.54 13.43h3.9v8h.1a5.45 5.45 0 014.5-2.3c4.6 0 6.3 3.7 6.3 7.8s-1.7 7.9-6.3 7.9a5.41 5.41 0 01-4.6-2.2h-.1v1.8h-3.8zm7.8 18.4c2.6 0 3.3-2.8 3.3-4.9s-.7-4.8-3.2-4.8-3.5 2.7-3.5 4.8.8 4.9 3.4 4.9zM73 20.33a13.48 13.48 0 015.2-1.1c4.6 0 6.5 1.9 6.5 6.3v1.9c0 1.5 0 2.7.1 3.8s.1 2.2.2 3.4h-3.4c-.1-.8-.1-1.8-.2-2.3h-.1a5.72 5.72 0 01-4.7 2.6c-2.7 0-5.3-1.6-5.3-4.5a4.45 4.45 0 012.6-4.3 12.31 12.31 0 015-.9h2.2c0-2.4-1.1-3.2-3.4-3.2a7.55 7.55 0 00-4.6 1.6zM77.64 32a3.23 3.23 0 002.7-1.3 5.13 5.13 0 00.8-3.1h-1.7c-1.8 0-4.4.3-4.4 2.6.1 1.23 1.2 1.8 2.6 1.8zM85.64 13.43h3.9v21.1h-3.9zM27.94 34.93c-6.1 0-9.5-3.8-9.5-10.6 0-6.4 3.9-10.5 10-10.5a12.58 12.58 0 014.7 1l.9.5-1.5 3.2-.9-.4a9 9 0 00-3.1-.6c-1.4 0-5.9.5-5.9 6.7 0 6.4 3.1 7.2 5.5 7.2a11.15 11.15 0 002.7-.3v-4.6h-2.4v-3h6.1v10l-.6.3a20.75 20.75 0 01-6 1.1z" class="cls-1" transform="translate(-.44 -1.97)"/><path fill="url(#Degradado_sin_nombre_10)" d="M103.34 24h-.1a.76.76 0 01-.4-.2.44.44 0 01-.1-.5l3.3-12.2a13.58 13.58 0 00-2.9-.3 12.8 12.8 0 1012.8 12.8 16.41 16.41 0 00-.2-2.3z" transform="translate(-.44 -1.97)"/><path fill="#eb6c27" d="M104 22.73l3.5-12.8a13.59 13.59 0 019.2 10z" transform="translate(-.44 -1.97)"/><path fill="url(#Degradado_sin_nombre_10-2)" d="M117.84 13.23h5.1c3.5 0 6.8 1.2 6.8 5.3a4.54 4.54 0 01-3.9 4.9v.1c2.7.5 4.5 2.3 4.5 5.1 0 4.7-3.8 6.1-8.2 6.1h-4.3zm2.1 19.6h2.2c2.8 0 6.1-.8 6.1-4.2 0-3.8-3.3-4.2-6.4-4.2h-1.9zm.1-10.2h2.4c2.2 0 5.2-.6 5.2-4 0-3.1-2.8-3.5-4.7-3.5H120z" transform="translate(-.44 -1.97)"/><path fill="url(#Degradado_sin_nombre_10-3)" d="M131.94 14.23h1.9v20.4h-1.9z" transform="translate(-.44 -1.97)"/><path fill="url(#Degradado_sin_nombre_10-4)" d="M148 30.93v3.68h-1.6v-2.8h-.1a5 5 0 01-5.1 3.2c-3.9 0-5.3-2.6-5.3-6V19h1.9v9.5c0 2.9 1 4.8 3.7 4.8 3.5 0 4.6-3.1 4.6-5.7V19h1.9v11.9z" transform="translate(-.44 -1.97)"/><path fill="url(#Degradado_sin_nombre_10-5)" d="M161.24 34.13a11.66 11.66 0 01-4.5.9c-5.2 0-7.1-3.5-7.1-8.2s2.6-8.2 6.6-8.2c4.4 0 6.2 3.6 6.2 7.8v1h-10.7c0 3.3 1.8 6 5.1 6a9.87 9.87 0 004.4-1.2zm-.9-8.4c0-2.7-1.1-5.4-4-5.4s-4.6 2.8-4.6 5.4z" transform="translate(-.44 -1.97)"/><path fill="url(#Degradado_sin_nombre_10-6)" d="M164.14 13.23h5.3c4 0 6.6 2 6.6 6.1s-3 6.1-6.8 6.1h-2.9v9.3h-2.1v-21.5zm2.1 10.3h1.5c3.2 0 6.2-.4 6.2-4.2 0-2.7-1.5-4.2-4.2-4.2h-3.4v8.4z" transform="translate(-.44 -1.97)"/><path fill="url(#Degradado_sin_nombre_10-7)" d="M182.74 18.63c5.1 0 7.3 3.9 7.3 8.2s-2.2 8.2-7.3 8.2-7.3-3.9-7.3-8.2 2.2-8.2 7.3-8.2zm0 14.7c3.4 0 5.2-2.9 5.2-6.5s-1.8-6.5-5.2-6.5-5.2 2.9-5.2 6.5 1.8 6.5 5.2 6.5z" transform="translate(-.44 -1.97)"/><path fill="url(#Degradado_sin_nombre_10-8)" d="M191.54 19h1.9v15.6h-1.9zm2.1-2.8a1.2 1.2 0 11-1.2-1.2 1.16 1.16 0 011.2 1.23z" transform="translate(-.44 -1.97)"/><path fill="url(#Degradado_sin_nombre_10-9)" d="M195.54 22.59v-3.52h1.6v2.8h.1a5 5 0 015.1-3.2c3.9 0 5.3 2.6 5.3 6v10h-1.9v-9.5c0-2.9-1-4.8-3.7-4.8-3.5 0-4.6 3.1-4.6 5.7v8.6h-1.9v-12z" transform="translate(-.44 -1.97)"/><path fill="url(#Degradado_sin_nombre_10-10)" d="M216.14 20.53h-3.6v10.1c0 1.4.5 2.6 2.1 2.6a5.26 5.26 0 001.8-.4l.1 1.6a7 7 0 01-2.4.4c-3.4 0-3.6-2.4-3.6-5.2v-9.1h-3.1v-1.6h3.1v-3.8l1.9-.7v4.5H216v1.6z" transform="translate(-.44 -1.97)"/><path d="M2.24 2.12h2.7c1.74 0 3 .57 3 2C7.91 6.19 6.14 7 3.85 7H2.6l-.67 3H.44zM4 6c1.6 0 2.47-.58 2.47-1.7 0-.81-.64-1.16-1.78-1.16h-1.2L2.84 6zM8.64 6.82A4.72 4.72 0 0113.13 2a3 3 0 013.26 3.32 4.71 4.71 0 01-4.49 4.85 3 3 0 01-3.26-3.35zm6.23-1.44c0-1.39-.6-2.28-1.81-2.28-1.61 0-2.9 1.8-2.9 3.63 0 1.39.6 2.27 1.84 2.27 1.58 0 2.87-1.79 2.87-3.62zM18.18 2.12h1.52l-.21 4.05c-.07.84-.12 1.7-.21 2.54.41-.84.85-1.71 1.23-2.54l2.06-4h1.29l.14 4v2.54c.34-.85.72-1.71 1.07-2.54l1.74-4h1.43L24.65 10h-1.89V5.72c0-.54 0-1.23.08-1.84h-.05c-.26.61-.56 1.22-.85 1.84L19.81 10H18zM29.72 2.12h5.17l-.25 1.09h-3.7l-.48 2.12h3.13l-.24 1.1h-3.12l-.59 2.47h3.82l-.25 1.1h-5.3zM36.83 2.12h2.66c1.73 0 2.95.53 2.95 1.92 0 1.92-1.79 2.84-3.85 2.84h-1.37l-.7 3.12H35zm1.8 3.73c1.53 0 2.34-.64 2.34-1.62 0-.76-.61-1.08-1.76-1.08h-1.14l-.6 2.7zm-.19.75l1.1-.81L41.46 10h-1.58zM44.79 2.12H50l-.25 1.09H46l-.48 2.12h3.14l-.25 1.1H45.3l-.59 2.47h3.82l-.25 1.1H43zM51.9 2.12h1.84c2.51 0 3.91 1.08 3.91 3.08 0 3-2 4.79-4.93 4.79H50.1zm.8 6.82c2 0 3.42-1.34 3.42-3.66 0-1.39-.89-2.11-2.43-2.11h-.55l-1.32 5.77zM62.94 2.12h2.58c1.77 0 2.93.58 2.93 1.77a2.26 2.26 0 01-2 2v.05c1 .2 1.61.7 1.61 1.54 0 1.8-1.7 2.55-3.83 2.55h-3.1zM64.22 9c1.49 0 2.39-.48 2.39-1.49 0-.72-.61-1.17-1.76-1.17h-1.39L62.84 9zm.55-3.57c1.48 0 2.15-.54 2.15-1.32 0-.62-.53-1-1.7-1h-1l-.53 2.3zM68 12.21l.46-.94a1.18 1.18 0 00.5.11 1.92 1.92 0 001.53-1.09l.2-.36-1.15-5.85H71l.43 3c.07.53.13 1.22.17 1.78.3-.56.64-1.22 1-1.78l1.69-3h1.44l-3.81 6.22c-.83 1.29-1.68 2.12-3 2.12a2.3 2.3 0 01-.92-.21z" class="cls-13" transform="translate(-.44 -1.97)"/><path d="M226.76 19.23h10.13v3.07h-6.47v3.24h5.51v3.07h-5.51v3.72h6.72v3.07h-10.38zM240.36 19.23h5.82c3.43 0 6.24 1.19 6.24 5s-2.81 5.31-6.24 5.31H244v5.86h-3.65zm5.52 7.45c1.93 0 3-.82 3-2.41s-1-2.14-3-2.14H244v4.55zm-.37 1.94l2.49-2.34 5.16 9.12h-4.09zM255.57 19.23h5.55c3.56 0 6.43 1.27 6.43 5.2s-2.9 5.48-6.33 5.48h-2v5.49h-3.65zM261 27c2 0 3-.89 3-2.58s-1.08-2.3-3.06-2.3h-1.69V27z" class="cls-14" transform="translate(-.44 -1.97)"/></g></g></svg>