<?xml version="1.0" encoding="UTF-8"?>
<svg id="Capa_1" data-name="Capa 1" xmlns="http://www.w3.org/2000/svg" viewBox="0 0 2000 214">
  <defs>
    <style>
      .cls-1 {
        fill: #fff;
      }

      .cls-2 {
        fill: #60c4dd;
      }
    </style>
  </defs>
  <path class="cls-1" d="M310.4,43.75l21.91,51.8,57.77-51.8h29.88l-33.87,97.62h-29.88l17.93-51.8-53.79,47.81h-3.98l-19.92-47.81-17.93,51.8h-29.88l33.87-97.62s27.89,0,27.89,0Zm227.1,27.89l-23.91,69.73h-29.88l11.95-37.85h-51.8l-13.95,37.85h-29.88l23.91-69.73c3.98-9.96,7.97-15.94,15.94-21.91,7.97-3.98,17.93-5.98,29.88-5.98h41.84c11.95,0,19.92,1.99,23.91,5.98,3.98,5.98,3.98,11.95,1.99,21.91Zm-85.66,9.96h51.8l1.99-7.97v-3.98l-5.98-1.99-7.97-1.99h-17.93l-15.94,3.98c-1.99,1.99-5.98,5.98-5.98,11.95Zm153.4,59.76l-11.95-27.89-31.87,27.89h-35.86l57.77-47.81-21.91-49.8h31.87l13.95,27.89,31.87-27.89h33.87l-55.78,49.8,21.91,47.81h-33.87Zm77.69,0h-29.88l33.87-97.62h29.88l-33.87,97.62Zm77.69-97.62l21.91,51.8,57.77-51.8h27.89l-33.87,97.62h-29.88l17.93-51.8-51.8,47.81h-5.98l-19.92-47.81-17.93,51.8h-29.88l33.87-97.62h29.88Zm207.18,0h29.88l-25.9,69.73c-1.99,9.96-7.97,15.94-13.95,21.91-7.97,3.98-17.93,5.98-29.88,5.98h-43.83c-11.95,0-19.92-1.99-23.91-5.98-3.98-5.98-3.98-11.95,0-21.91l23.91-69.73h29.88l-21.91,59.76v11.95l3.98,3.98h35.86l5.98-3.98,3.98-3.98,3.98-7.97,21.91-59.76Zm131.48,79.69l-13.95,13.95-17.93,3.98h-89.65l7.97-21.91h71.72l3.98-1.99v-1.99h-1.99l-49.8-29.88-5.98-7.97c-1.39-5.38-.6-11.16,1.99-15.94l13.95-13.95,15.94-3.98h91.64l-7.97,21.91h-75.7v5.98l51.8,27.89,1.99,1.99,1.99,3.98,1.99,7.97-1.99,7.97v1.99Z"/>
  <path class="cls-2" d="M278.52,199.13h-37.85l-11.95-3.98v-9.96l7.97-19.92c0-3.98,3.98-7.97,5.98-9.96l13.95-3.98h37.85l-3.98,11.95h-31.87l-5.98,1.99-3.98,3.98-3.98,11.95v5.98h21.91l5.98-13.95h13.95l-9.96,25.9h1.99Zm69.73-33.87l-9.96,33.87h-13.95l5.98-17.93h-25.9l-5.98,17.93h-13.95l11.95-33.87,5.98-9.96,13.95-3.98h21.91l9.96,3.98v9.96Zm-39.84,3.98h25.9v-3.98l-1.99-1.99h-13.95l-5.98,1.99-3.98,3.98Zm65.74-17.93l9.96,25.9,27.89-25.9h13.95l-15.94,47.81h-13.95l7.97-25.9-25.9,23.91h-1.99l-7.97-23.91-9.96,25.9h-13.95l15.94-47.81h13.95Zm55.78,47.81h-13.95l15.94-47.81h15.94l-17.93,47.81Zm77.69-47.81l-15.94,47.81h-13.95l-15.94-27.89-9.96,27.89h-13.95l15.94-47.81h11.95l17.93,27.89,9.96-27.89h13.95Zm43.83,47.81h-35.86l-11.95-3.98v-9.96l5.98-19.92,7.97-9.96,13.95-3.98h35.86l-3.98,11.95h-29.88l-7.97,1.99-3.98,3.98-3.98,11.95v5.98h23.91l3.98-13.95h13.95l-7.97,25.9Zm61.76-29.88h25.9l5.98-17.93h13.95l-15.94,47.81h-13.95l5.98-17.93h-23.91l-7.97,17.93h-13.95l15.94-47.81h13.95l-5.98,17.93Zm101.6-3.98l-11.95,33.87h-13.95l5.98-17.93h-23.91l-5.98,17.93h-13.95l9.96-33.87,7.97-9.96,13.95-3.98h19.92l11.95,3.98v9.96Zm-39.84,3.98h23.91l1.99-1.99-1.99-1.99-1.99-1.99h-11.95l-7.97,1.99-1.99,3.98Zm79.69,13.95l9.96,15.94h-15.94l-9.96-15.94h-7.97l-5.98,15.94h-13.95l15.94-47.81h35.86l11.95,3.98v13.95l-7.97,9.96-11.95,3.98Zm0-19.92h-17.93l-3.98,7.97h23.91l1.99-1.99,1.99-1.99v-3.98h-5.98Zm79.69,1.99l-5.98,19.92-7.97,9.96-13.95,3.98h-35.86l15.94-47.81h35.86l11.95,3.98v9.96Zm-19.92-1.99h-17.93l-7.97,23.91h23.91l1.99-3.98,1.99-1.99,3.98-11.95v-3.98l-1.99-1.99h-3.98Zm75.7,17.93l9.96-29.88h13.95l-9.96,33.87-7.97,9.96-13.95,3.98h-35.86l-9.96-3.98v-9.96l9.96-33.87h13.95l-9.96,29.88v5.98h11.95l11.95-35.86h13.95l-11.95,35.86h11.95l1.99-3.98v-1.99Zm79.69-15.94l-9.96,33.87h-13.95l5.98-17.93h-25.9l-5.98,17.93h-13.95l11.95-33.87c0-3.98,3.98-7.97,5.98-9.96l13.95-3.98h19.92l11.95,3.98v9.96Zm-39.84,3.98h25.9v-3.98l-1.99-1.99h-13.95l-5.98,1.99-3.98,3.98Zm79.69,13.95l9.96,15.94h-15.94l-9.96-15.94h-7.97l-5.98,15.94h-13.95l15.94-47.81h37.85c5.98,0,7.97,1.99,9.96,3.98l1.99,9.96-1.99,3.98-5.98,9.96-13.95,3.98h0Zm0-19.92h-17.93l-1.99,7.97h23.91l1.99-1.99v-1.99l1.99-1.99-1.99-1.99h-5.98Zm69.73,35.86h-35.86l-11.95-3.98v-9.96l5.98-19.92,7.97-9.96,13.95-3.98h35.86l-3.98,11.95h-29.88l-7.97,1.99-3.98,3.98h39.84l-3.98,11.95h-37.85l-1.99,1.99v3.98h37.85l-3.98,11.95Z"/>
  <path class="cls-2" d="M107.2,3.9C50.03,3.9,3.61,50.32,3.61,107.49s46.42,103.59,103.59,103.59,103.59-46.42,103.59-103.59S164.37,3.9,107.2,3.9Zm0,187.26c-46.22,0-83.67-37.45-83.67-83.67S60.98,23.82,107.2,23.82s83.67,37.45,83.67,83.67-37.45,83.67-83.67,83.67Z"/>
  <path class="cls-1" d="M143.06,73.63c-1.99,0-3.98,13.95-1.99-3.98,1.99-5.98-1.99-9.96-5.98-11.95-7.97-7.97-23.91-11.95-35.86-9.96-7.97,1.99-17.93,3.98-23.91,11.95l-3.98,9.96c3.98,17.93,0,3.98,0,3.98,0,0-5.98,53.79-3.98,57.77l29.88,23.91,3.98,11.95-1.99-9.96-1.99-49.8-19.92-15.94v-3.98l23.91,13.95,1.99,21.91,3.98,3.98,3.98-3.98,1.99-21.91,23.91-13.95-1.99,3.98-17.93,15.94-1.99,37.85-3.98,21.91,3.98-11.95,31.87-23.91s-3.98-57.77-3.98-57.77Zm-41.84-21.91l-13.95,5.98-5.98,7.97v11.95h-1.99c-15.94-19.92,21.91-25.9,23.91-27.89l-1.99,1.99Z"/>
  <g>
    <path class="cls-1" d="M1314.04,24.82c-.8-.6-1.79-1.2-2.59-1.99-3.59-2.99-7.77-3.79-12.35-2.59-2.59,.6-5.38,.8-7.97,1-2.79,0-5.58-1-7.77-2.79-6.18-4.38-12.35-4.18-18.73-.4-3.98,2.39-7.57,5.38-10.76,8.77,0,0,0,.2-.2,.2,2.39-1.79,4.98-3.79,7.37-5.38,3.59-2.39,7.37-4.38,11.75-4.98,2.39-.2,4.38,.2,6.37,1.79,5.18,3.98,10.76,6.97,17.13,8.37,1.2,.2,2.39,.4,3.59,.4,1.59,0,2.99-.4,4.18-1.39,1.99-1.99,4.38-2.19,6.77-1,1.59,.8,3.19,1.79,4.58,2.59,.4,.2,.6,.8,1,1.2,4.58,7.97,6.77,16.73,7.57,25.9,.2,2.59,.2,4.98,.4,7.57,.4,5.78-1.39,11.16-3.59,16.34-4.78,11.75-10.56,22.91-16.53,34.07-3.59,6.77-7.37,13.55-11.16,20.12-.2,.2-.2,.4-.4,.8-.27-.66-.8-.86-1.59-.6-.2-.2-.2-.4-.4-.4-.2-.2-.2-.4-.6-.6-.4,.6-.6,1-1,1.39-.2-.2-.4-.2-.6-.4-.13,0-.27,.07-.4,.2,.2,.8,.2,1.79,.6,2.39,.6,1.39,1.59,2.59,2.19,3.98,.4,1,.6,1.99,1,2.99,.6,0,1-.4,.8-1-.2-1-.6-1.79-1-2.79-.6-1-1.39-1.79-1.79-2.79-.2-.4,0-1.2,.2-1.59,.2-.2,1.2-.4,1.59-.2,.6,.4,.8,1,1.2,1.59,0,0-.2,.4-.4,.4s-.6,0-.8-.2c-.2-.2-.4-.8-.8-1.39-.2,.6-.4,1-.4,1,.4,.6,1,1.2,1.39,1.39,.6,.2,1.2-.4,1.99-.8,.8,1.2,1.59,2.79,2.59,4.38h-1c-1.59-.2-2.39,.6-1.99,2.19,.2,.8,.4,1.79,1,2.39,1.39,1.59,2.99,2.99,4.38,4.58,1.39,1.39,2.59,2.79,2.39,4.98h.4c.4-1,.6-1.99,1-2.99,.8,1.59,1.59,3.19,2.59,4.78,0,0-.2,0-.2,.2-.6-.8-1-1.59-1.59-2.59-1.99,3.39,.4,5.98,1.39,8.77,1.39-.6,1.79-1.59,1.79-3.59,.4,.8,1,1.79,1,2.59s-.8,1.59-1.39,2.39c.8-.2,1.59-.4,2.19-.6,.2,.8,.4,1.39,.8,1.99-1,.2-1.99,.4-2.99,.8,0,.13-.07,.27-.2,.4,1.39,.4,1.79,1.39,1.99,2.99,.6-.6,1.2-1,1.79-1.79,.2,1,.4,1.99,.6,2.99-.8-.4-1.59-.6-2.59-1,.8,2.19,1.39,2.79,2.99,2.79,.2,1.39,.4,2.99,.4,4.38,.4,5.98-.4,11.95-1.99,17.73-1.39,4.78-4.78,7.97-9.36,9.76-1.79,.8-3.59,1.2-5.38,1.59-.2,0-.6,.2-1,0-1.59-.6-2.99-.2-4.58,.4-.8,.4-1.59,.4-2.39,.4,.8-1,1.79-1.79,2.99-1.79,1.79-.2,3.79,0,5.58-.2,.8,0,1.79-.2,2.19-.8,1-1.39,1.79-3.19,2.59-4.58l-.2-.2c-.2,0-.4,.2-.8,.2,.2-.8,.4-1.59,.4-2.19l-.2-.2c-.4,1.2-1.2,1-2.19,.8-1.99-.4-3.79,1.39-2.99,3.39,.2,.4,.8,1,1.2,1s.8-.4,1.2-.8c-1,0-1.2-.2-1-1.2,.2-.4,.4-.8,.8-1s1-.2,1.39,0c.2,.2,.2,1,.2,1.39-.6,1.79-1.79,2.79-3.79,2.79h-1.59c-2.79-.6-4.78,.8-6.77,2.79-.2,.2-.6,.4-1,.8l-.2-.2c.6-.8,1.39-1.79,2.19-2.79-2.19,0-3.59,1.2-4.98,2.19-.4,.4-1,.4-1.59,.8v-.2c1.2-1.2,2.39-2.59,3.59-3.79,.2-.2,.4-.2,.6,0,2.39,.6,3.79,0,4.78-2.19,.2-.4,.4-1,.6-1.39s.4-1,.8-1.39c.8-1,1.2-.8,1.99,.4,.2-.8,.4-1.39,.4-1.99,0-.4-.4-1-.8-1.2s-1.2,0-1.39,.2c-.6,.6-1.2,1.39-1.59,1.99s-.8,1.2-1.39,1.79c.4-1.2,.8-2.19,1.2-3.39,0,0-.2,0-.2-.2-1,1-1.99,2.19-2.99,3.19l-.2-.2c.4-.6,.8-1.2,1-1.79,.2-.4,.6-.6,.8-1,.6-.6,.8-1.39,.4-2.19-.2-.4-.8-.6-1.39-.6-1,0-1.59,.4-1.99,1.2,.6,.4,1.2,.6,1.39,.8,0,.4-.2,1-.6,1.39-.6,.6-1.2,1-1.79,1.39-1.39,1-1.79,2.19-.8,3.59,.4,.6,.4,1,0,1.39-1.39,1.2-2.79,2.39-3.98,3.59-.2,.2-.6,.4-.8,.2-4.58-.6-9.16-1-13.55-2.39-7.57-2.59-11.95-8.17-13.55-15.94-1.39-6.57-.8-12.95,.6-19.32,2.39-12.35,6.97-24.1,12.75-35.46,.4-.6,.2-1,0-1.59-6.57-12.15-13.35-24.1-19.92-36.26-3.98-7.57-7.37-15.34-9.36-23.51-2.99-12.15-1.99-23.91,3.19-35.26,2.59-5.38,6.18-9.96,10.96-13.35,.4-.4,1.2-.4,1.79-.8,.6-.4,1.39-.6,1.79-1.2,1.59-1.59,2.99-3.19,4.38-4.78s3.19-2.39,5.38-2.59c4.58-.4,8.96-1.2,13.55-1.59,1.99-.2,3.98-.4,5.98-.6,2.19-.2,4.18,.2,6.18,1.2,3.59,1.59,7.37,2.99,11.36,4.38,1.79,.6,3.79,.6,5.78,.8,2.39,.2,4.18,1,5.58,2.99,1.79,.8,2.79,1.99,3.59,3.39,.2-.2,0,0,0,0h0Zm-49.41,11.75c1.99-.4,3.59-.8,5.18-1.2,10.36-1.99,19.32,2.59,23.51,12.35,2.39,5.18,3.19,10.76,2.79,16.53-.4,7.17-2.39,13.95-4.58,20.52-3.19,8.96-6.97,17.73-11.16,26.3-.4,.6-.4,1.2,0,1.79,1.2,1.99,2.39,3.98,3.79,5.98,1.59,2.39,3.19,4.98,4.78,7.57,.2-.4,.4-.6,.6-.8,2.79-4.58,5.78-8.96,8.57-13.75,6.57-11.36,12.15-22.91,15.54-35.66,2.19-8.77,3.39-17.53,1.99-26.5-1.39-8.77-4.98-16.14-11.95-21.91-1-.8-1.39-.8-2.39,0-1.2,1.39-2.79,1.79-4.58,1.59-1.2,0-2.59-.4-3.79-.8-3.19-1-6.37-2.19-9.56-3.39-1.99-.8-3.98-.8-5.98,0-5.38,2.39-9.16,6.57-12.75,11.36Zm12.55,70.72c.2-.4,.4-.4,.4-.6,6.18-10.76,11.16-22.11,13.95-34.26,1.39-6.37,2.19-12.95,.6-19.52-1.79-7.37-6.18-12.35-13.55-14.54-5.78-1.59-10.96,0-16.14,2.59-.4,.2-.6,.6-.8,1-4.58,9.36-5.18,18.93-1.99,28.69,2.99,8.96,6.97,17.53,11.55,25.9,1.79,3.59,3.79,6.97,5.98,10.76Zm-10.56,27.49c-.2,.6-.4,.8-.6,1.2-1.99,5.38-4.18,10.56-5.98,16.14-2.59,7.97-4.78,16.14-5.38,24.5-.2,3.59,0,7.37,1.2,10.76,1.59,4.18,4.58,6.37,8.96,6.77,4.38,.4,7.77-1.39,9.96-5.38,.8-1.59,1.59-3.39,1.99-5.18,1-3.79,1.2-7.77,1-11.75-.6-10.56-3.19-20.72-7.77-30.28-.8-2.19-1.99-4.38-3.39-6.77h0Zm-18.53-79.09c4.38,0,7.97-3.59,7.97-7.77s-3.59-7.97-7.97-7.97-7.97,3.59-7.77,7.97c-.2,4.38,3.39,7.77,7.77,7.77Zm39.44,133.08c-.6-1-.6-1.59,0-1.99,.2-.2,.8-.2,1-.2,.4,.6,.6,1.2,.8,1.79,0,.2,0,.4-.2,.8-.2,.6-.4,1-.4,1.59-.2,1.39,.4,1.99,1.79,2.19,.4,0,.6,0,1,.2,1.59,.6,2.39,.2,2.99-1.59,.2-.8,.6-1.79,1-2.59,.2-.4,.8-.6,1.2-.6,.4,.2,.8,.8,.8,1.2s-.4,.8-.6,1.2l-.4-.2c0-.4,.2-.8,.2-1.2v-.2c-.8-.2-1,.4-1.2,1s0,1.39,.6,1.59c.6,.2,1-.2,1.39-.8,.4-.8,.6-1.39,1-2.19-.2,0-.4-.2-.8-.4,0-.4,.2-.6,.2-.8-.6-.2-1-.6-1.79-.8-.4,.4-1,.8-1.59,1.2-.2-.4-.4-1-.4-1.39v-.8c.6-.8,.6-1.39-.4-1.59,.4-2.19,.4-2.59-.4-3.39,0,.2-.2,.2-.2,.4-.2,1-.4,2.19-.6,3.19-.2,0-.6,0-.8,.2,0,.6,.2,1.2,.2,1.59-.4,.6-.8,1.2-1.39,1.99-.4-.8-.8-1.59-1.2-2.59l-.2,.2c-.6,0-1-.2-1.59-.2,0,.2,0,.6-.2,.8-.8,0-1.39,.2-.8,1.2,0,.2-.2,.6-.2,.8,0,.4-.2,1,0,1.39s.8,.8,1,.6c.4-.4,.8-.8,1-1.39,.2-.2-.2-.8-.2-1.39-.2,.4-.4,.8-.6,1.2h0Zm-6.37-29.28c.8,1.59,1.99,2.19,4.18,1.79,1.2-.2,2.39-.8,3.39-.8,1.2-.2,2.59-.4,3.79-.2,2.59,.6,3.79,2.99,3.19,5.98-.2,.6-.2,1-.4,1.59,1.79-1.99,1.39-5.38-.4-7.17-1.59-1.59-3.59-1.99-5.58-1.79-1,.2-2.19,.2-3.19,0-1.39,0-2.39-.6-2.99-1.99-.8-1.39,.2-3.19,1.79-3.59,.8-.2,1.39,.2,1.79,1,.2,.4,.2,1.2,0,1.59,0,.2-.8,.2-1.39,.2,0,.6,0,1.39,.8,1.59,.8,.2,1.39-.2,1.79-1,0-.2,.2-.2,.2-.4,.4-1.39-.2-2.99-1.59-3.98-1.2-.8-2.19-.6-3.39,.6,0,0-.2,0-.2,.2-.4-.4-.8-.6-1.2-1-.8,1.2-.2,2.19,.2,3.39-.6,0-1-.2-1.79-.2,.2,.8,.4,1.39,.6,1.99,.4,.6,.8,1,1.39,1.39-.4,.4-.8,.6-1,.8h0Zm26.1,12.55c.2-1.99,.6-3.79-1.2-5.18-.4-.2-.4-.8-.6-1.2-1.59-3.39-3.19-6.97-4.78-10.36-.2-.4-.4-.8-.4-1.2,.2-1-.2-1.99-.8-2.79-1.59-2.39-3.59-4.38-5.98-5.98h-.4c1.2,2.39,2.19,4.78,3.59,6.97,.4,.8,1.2,1.59,1.99,2.39,.4,.4,1.2,.8,1.39,1.39,1.59,3.59,2.99,6.97,4.58,10.56,.2,.4,.2,.8,.2,1-.4,1.99,1,3.19,2.39,4.38h0Zm-22.31-34.46q0,.13,0,0c-.8-.6-1.39-1.39-2.19-2.19-.2-.2-1-.2-1.39-.4,.2,.4,.2,1,.4,1.2,1,.8,2.19,1.59,2.59,2.79h0c1,1,1.99,1.79,3.19,2.79,.6,.6,1.59,.8,2.39,.4,.8-.6,.8-1.59,.6-2.39,0-.2-.2-.4-.4-.8-.6-.8-1-1.59-1.59-2.19-1.39-1.39-2.79-2.79-4.18-3.98-.2-.2-.6,0-.8,0,0,.4,0,.8,.2,1,.6,.6,1.2,1,1.99,1.59-.4-.2-.6-.2-.8-.2h-1c0,.4,0,.8,.2,1,.2,.6,.6,1,.8,1.39h0Zm4.58,13.35c.6-.6,.8-1.39,1.39-1.59,.8-.2,1.59,.4,1.99,1.2,.2,.6,.4,1.2,.6,1.59,.6,1.39,1,2.79,1.79,3.79,1,1.39,2.79,1.39,3.79,.2-1.59-1.33-2.86-3.05-3.79-5.18-.4-1-1-2.19-1.79-3.19-.6-.8-1.39-1.39-2.19-1.79-1-.6-1.99-.2-2.59,.6-.6,1.39-.2,3.59,.8,4.38h0Zm-13.95,50.8c.4,.2,.4,.4,.6,.4,2.39,.4,5.38-2.39,4.78-4.78-.2-.6-.6-1.39-1-1.99-.6-1-1.2-1.99-1.39-2.99-.4-1.59,1.2-2.99,2.39-2.39,.4,.2,.8,.8,.8,1.2s-.4,1-.6,1c-.4,0-.8-.4-1.2-.6-.8,.6-.8,1.2,.2,1.79,.8,.6,1.99,.4,2.79-.4,.8-1,.8-2.39,0-3.19-.4-.4-.8-.6-1.2-1,0-.4,.2-.6,.2-1.39-.8,.6-1.39,1-1.99,1.39-.2-.4-.2-.6-.6-1.2-.6,.8-1.2,1.59-1.59,2.39-.6-.2-.8-.2-1,.6-.4,.8,0,1.59,.6,2.39,.8,1,1.59,1.79,2.19,2.79,1.59,2.19,.2,4.98-2.39,5.38-.8,.2-1,.4-1.59,.6h0Zm19.52-37.25c-.2-.4-.2-.6-.4-.6-2.99-3.98-7.77-2.39-9.96,1.39,.4,0,.8,.2,1.2,.2-.2,.6-.2,1.2-.4,1.59,2.99-2.39,5.98-3.19,9.56-2.59h0Zm-12.15-22.31v.4c.4,.2,.6,.2,.8,.6,.2,.2,.2,.6,.2,1,0,0-.4,.4-.4,.2-.6-.4-1.2-.8-1.39-1.39-.2-.4,0-1.2,.4-1.39s1.2-.4,1.59-.2c1,.6,1.79,1.39,2.59,1.99,.8,.6,1.79,1,2.59,1.2,.6,.2,1.2-.2,1.39-1-1.39,.2-2.39-.4-3.39-1-1.2-.8-2.59-1.79-3.79-2.59-.6-.4-1.39-.4-1.99-.6,0,0,0,.2-.2,.2,.2,.2,.2,.4,.4,.6-.4,.4-1,.6-1.59,1,.6,.4,.8,.6,1.2,.8-.2,.6-.4,1-.4,1.2,.6,.4,1.2,.8,1.59,1.2,.4,.2,1,.6,1.39,.6s1-.4,1.2-.8c.4-.8,0-1.59-.8-1.99h-1.39Zm20.32,21.52c-.4-1.2-1-2.39-1.39-3.59-.6-1.39-2.39-2.19-3.98-1.99,.6,1.59,1.2,2.99,1.79,4.58,.4,1.59,1.99,1.99,3.59,1Zm-5.98,9.16c1.2-2.99,3.39-4.98,5.78-7.17-1.79-.2-3.19,.2-4.38,1-1.99,1.2-3.19,2.99-3.19,5.58,.4-.2,.8-.4,1.39-.6,0,.6,.2,.8,.4,1.2h0Zm-48.61-138.45c.6,1.2,1.2,2.19,1.99,3.19,1.2-.6,2.19-1.2,3.19-1.79-.6-1.2-1.2-2.19-1.99-3.39-1.2,.8-2.19,1.39-3.19,1.99Zm-1.39,23.31c-.8,.8-1.59,1.79-2.19,2.39,.8,.8,1.59,1.79,2.39,2.59,.8-.8,1.79-1.59,2.59-2.39-1-.8-1.79-1.59-2.79-2.59Zm29.88,142.44c1.2-1.2,1.59-2.99,.4-4.38-.8-1-1.99-1.59-3.19-2.39v1.2c-.4,0-.6,0-1.2,.2,2.39,1.2,3.59,2.99,3.98,5.38h0Zm.8-71.92c-.2,0-.2,.2-.4,.2,0,1.39,1,2.39,1.79,3.19,0,.6-.2,1,0,1.2,.4,.4,1,1,1.59,1.2,.4,0,1-.4,1.39-.6,.2-.2,.2-.6,.2-.8-.4-.6-.8-1.2-1.2-1.99-.2,.2-.6,.4-.8,.6-.8-1.2-1.59-1.99-2.59-2.99Zm26.5,39.25c-1.39,.6-2.99,2.39-3.19,3.98,0,.6,.2,1.2,.4,1.79h.6c.4-.8,.8-1.59,1.2-2.59,.4,0,1-.2,1.2-.2,0-.8-.2-1.99-.2-2.99Zm-25.5,37.05c2.59-1.99,3.19-2.79,2.39-4.78-.8,.6-1.59,1.2-2.39,1.79-1.2,1-1.2,1.79,0,2.99Zm-.8,.8c-.6-2.19-2.79-3.19-5.58-2.99,0,.4,.2,.8,.2,1,1.79,.8,3.59,1.39,5.38,1.99Zm10.16-47.61c1.39-.2,1.99-1,1.99-2.39s-1.2-2.59-2.39-2.79c1.2,1.59,1.59,3.19,.4,5.18Zm14.74,16.93c.4,.4,1,.4,1.59,0,.6-.6,1.2-2.39,.4-3.59-.6,1.2-1.2,2.39-1.99,3.59Zm2.59,.8c.8,0,1.39-.2,1.79-1,.2-.8-.4-1.79-1.39-2.19v1.59c0,.6-.2,1-.4,1.59Zm-22.51-37.65c-1-.2-1.79-.6-2.59-.6s-1.2,.6-.8,1c.4,.6,1.2,.8,1.79,.4,.4-.2,.8-.4,1.59-.8Zm2.99-3.98c.2-.8,.4-1.2,.4-1.59s-.4-1-.6-1.39c-.2-.2-.8,0-.8,0,0,.4-.2,1,0,1.39s.6,1,1,1.59Zm24.9,39.64c-.8-.6-1.59-1.2-2.39-1.79-.2,1.39,0,2.19,.8,2.39,.8,.4,1.2-.2,1.59-.6Zm-2.99,.2v1.99c0,.2,.2,.6,.4,.8,.2,0,.6-.2,.6-.4,.2-.2,.2-.8,0-1,0-.4-.4-.6-1-1.39Z"/>
    <path class="cls-1" d="M1300.89,146.94c-1-.6-1.79-1.39-2.59-1.99-.8-.6-1.2-1.39-1-2.39,0-.2,.4-.6,.6-.6s.4,.2,.6,.4c.8,1.39,1.59,2.99,2.39,4.58h0Z"/>
    <path class="cls-1" d="M1247.5,50.12c-.4,0-1.99-1.99-1.79-2.39,.4-.8,1.2-1.59,1.99-2.19,.4-.2,2.59,1.2,2.59,1.59,0,2.19-.6,2.79-2.79,2.99h0Z"/>
    <path class="cls-1" d="M1253.88,46.14c0,1.39-.2,2.59-.2,3.98-1.39-.4-1.99-1.2-1.79-2.19,0-.8,.6-1.59,1.99-1.79Z"/>
    <path class="cls-1" d="M1244.52,52.71c-.8-1.2-1.39-2.19-2.19-3.39,1.2-.4,1.99-.2,2.59,.6s.4,1.59-.4,2.79Z"/>
    <path class="cls-1" d="M1247.5,53.71c0-1.2,.6-1.79,1.39-1.99,1-.2,1.79,0,2.39,1-1,.8-2.39,1-3.79,1Z"/>
    <path class="cls-1" d="M1251.69,42.95c-.8,1.2-1.59,1.39-2.59,1.2-.8-.4-1.39-1-1.2-2.19,1.2,.2,2.39,.6,3.79,1h0Z"/>
    <path class="cls-1" d="M1245.31,42.75c.6,1,.4,1.59,0,2.39-.6,.8-1.39,1-2.39,.6,.2-1.2,1.2-2.19,2.39-2.99Z"/>
  </g>
  <g>
    <path class="cls-1" d="M1544.53,107.49c-.2,4.58-.4,8.77-.8,12.75-.2,3.39,0,3.59,3.39,3.59h13.35c2.39,0,2.99,.8,2.79,2.99-1,8.37-1.59,8.96-9.96,8.96h-7.17c-1.59,0-2.39,.6-2.39,2.39,0,5.38-.2,10.76,0,16.34,.2,4.78,2.19,6.97,6.97,7.77,1.59,.2,3.19,.4,4.78,.4,16.73,0,33.47,.2,50.2,.2,3.79,0,3.79-.2,3.39-3.98-.8-7.57-.4-14.74,2.79-21.71,4.38-9.16,12.15-13.15,21.71-13.75,7.97-.4,15.94,.2,23.91,.2,2.19,0,2.19,1.59,2.19,3.19v37.65c0,2.39,0,4.78,.2,7.17s-.8,3.19-3.19,3.19c-2.99-.2-6.18-.2-9.16,0-2.19,.2-2.79-.8-2.79-2.79,0-5.98,0-12.15-.6-18.53-.4,.8-1,1.59-1.39,2.39-2.39,3.98-4.58,8.17-7.37,11.75-3.79,4.98-8.96,7.17-15.14,7.17-24.5,0-48.81,0-73.31-.2-10.96,0-17.33-6.18-18.13-17.13-.4-5.98-.2-11.95-.2-17.93,0-3.39-.4-3.79-3.79-3.59-3.98,.13-5.84-1.79-5.58-5.78v-.8c.4-5.38-.2-5.78,5.58-5.18,3.39,.4,3.98-.6,3.79-3.98-.2-2.39,.4-3.98,2.19-5.38,4.18-3.39,8.37-5.98,13.75-7.37h0Zm100.2,26.3c-5.18,.2-9.56,.4-13.95,.8-3.98,.4-5.78,2.19-6.18,5.58-.8,6.18-.6,12.35,1,18.33,1.2,4.38,4.38,5.38,7.77,2.19,.6-.6,1.39-1.39,1.79-2.19,4.78-7.37,6.57-15.74,9.56-24.7h0Z"/>
    <path class="cls-1" d="M1431.38,162.88c7.77,4.18,15.34,8.17,22.71,11.95,7.97,4.18,12.15,13.35,9.76,21.71-5.58-2.79-10.96-5.58-16.34-8.57-12.15-6.37-24.5-12.75-36.46-19.32-8.77-4.78-15.94-11.55-19.52-21.12-6.77-17.73,3.19-36.85,21.71-41.24,8.96-1.99,17.93-1.79,26.5,2.39,16.53,7.97,20.52,30.28,7.57,43.63-2.19,2.19-4.78,4.18-7.37,5.78-2.39,1.79-5.18,2.99-8.57,4.78h0Zm7.57-26.89c-.2-1.2-.4-3.39-.8-5.38-2.79-12.55-16.34-17.33-26.69-9.76-6.18,4.58-7.97,14.94-3.98,22.91,3.98,7.77,10.96,11.95,18.33,15.94,.4,.2,1.59,0,1.99-.4,6.57-5.98,11.16-13.15,11.16-23.31h0Z"/>
    <path class="cls-1" d="M1591.75,73.63c1.99-11.55,3.98-22.91,5.78-34.46,1-5.58,.8-5.58,6.57-5.38h5.18c3.39,0,3.59,.2,2.99,3.59-1.59,6.57-2.99,13.35-4.58,19.92-2.19,9.56-4.38,19.12-6.37,28.69-.4,1.99-1.2,2.79-3.19,2.79h-13.95c-2.39,0-2.79-1.59-2.99-3.39-1.99-11.36-4.18-22.71-6.18-34.26-.2-1-.4-2.19-1.2-3.19-1.59,8.77-2.99,17.53-4.58,26.3-.6,3.79-1.39,7.57-1.99,11.55-.2,1.99-1,2.79-3.19,2.79-4.78-.2-9.56,0-14.14-.2-1,0-2.39-1-2.59-1.79-3.98-17.53-7.77-35.06-11.75-52.99,4.78,0,9.36,0,13.75,.2,.6,0,1.39,1.59,1.59,2.39,1.99,10.96,3.79,22.11,5.78,33.07,.2,1.2,.6,2.39,1.39,3.59,1-5.78,1.99-11.55,2.99-17.13,1.2-6.37,2.39-12.95,3.39-19.32,.4-2.19,1.2-2.99,3.39-2.79,4.18,.2,8.57,.2,12.75,0,2.79-.2,3.39,1.2,3.79,3.59,1.99,11.75,4.18,23.31,6.37,35.06,0,.6,.2,1,.4,1.59,0-.2,.4-.2,.6-.2h0Z"/>
    <path class="cls-1" d="M1769.05,138.37c.2-15.34,10.16-26.69,25.5-28.69,8.17-1.2,16.14-.6,23.71,2.99,13.35,6.57,18.93,21.32,13.95,36.26-4.18,12.75-12.95,21.12-25.3,25.5-2.79,1-6.18,1.2-9.16,.6-15.34-3.39-28.89-20.92-28.69-36.66Zm49.21,2.19c0-.2,.2-1,.2-1.79,0-6.77-2.19-12.35-8.57-15.54-6.77-3.19-13.55-2.99-19.52,1.79-1.99,1.59-3.79,4.18-4.38,6.77-3.19,12.75-1,24.3,8.17,34.07,5.38,5.78,9.36,5.78,14.94,.2,6.77-7.17,8.96-15.54,9.16-25.5h0Z"/>
    <path class="cls-1" d="M1768.65,60.68v-23.91c0-2.39,.6-3.19,2.99-3.19,8.17,.2,16.53,0,24.7,.6,17.33,1.2,25.9,11.55,24.7,28.89-1,15.54-10.36,24.3-27.09,25.3-7.37,.4-14.54,.4-21.91,.6-2.99,0-3.79-1-3.79-3.98v-24.1c.13-.13,.27-.2,.4-.2h0Zm14.74,.4h0c0,4.58,.2,9.16,0,13.75,0,2.39,.8,3.19,2.99,2.99,2.79-.2,5.78-.2,8.57-.8,4.98-1,8.37-3.98,9.96-8.77s1.59-9.76-.2-14.54c-1.2-3.19-3.19-5.98-6.37-6.97-4.18-1.2-8.77-1.59-12.95-2.19-.6,0-1.79,1.59-1.79,2.39-.2,4.98-.2,9.56-.2,14.14Z"/>
    <path class="cls-1" d="M1613.06,60.88c.2-9.96,2.99-18.53,11.75-24.3,9.76-6.57,33.87-5.78,40.64,9.76,4.38,10.36,4.18,20.72-.8,30.88-2.19,4.58-6.18,7.97-10.96,9.76-7.97,2.99-16.14,3.59-24.1,.6-8.77-3.19-13.95-9.56-15.54-18.93-.6-2.39-.6-4.98-1-7.77h0Zm14.74,.4c1.2,3.79,1.99,7.77,3.59,11.55,1.79,4.18,5.58,5.78,9.96,5.78,4.58-.2,7.77-2.59,9.56-6.77,2.99-6.97,2.99-13.95,.2-20.92-1.79-4.18-4.78-6.77-9.56-6.97-4.78-.2-8.77,1.59-10.56,5.98-1.59,3.39-2.19,7.37-3.19,11.36Z"/>
    <path class="cls-1" d="M1497.12,153.31c-1.2,2.19-2.19,4.38-3.39,6.37-2.39,3.59-4.58,7.17-7.37,10.36-1.59,1.79-3.98,3.39-6.18,4.38-6.57,2.99-12.95,.4-15.74-6.18-4.18-10.56-4.18-21.32,.6-31.87,4.38-9.36,12.95-12.55,22.31-13.15,7.57-.4,15.14,.2,22.71,.4,1.79,0,2.39,1,2.39,2.79v45.82c0,1.59-.4,2.59-2.19,2.39h-10.56c-1.99,0-2.19-1.2-2.19-2.79v-18.53h-.4Zm.6-19.52c-5.38,.4-9.96,.4-14.54,1-3.79,.6-5.98,2.79-5.98,6.18,0,5.18,.2,10.16,.8,15.34,.2,2.59,1,5.38,3.98,5.98,2.99,.6,4.78-1.79,6.37-3.98,.2-.2,.2-.4,.4-.4,4.18-7.17,6.18-15.14,8.96-24.1h0Z"/>
    <path class="cls-1" d="M1708.69,61.08c1.59,2.99,3.19,5.58,4.38,8.37,2.19,5.18,3.98,10.76,5.98,15.94,.4,.8,.4,1.79,.8,2.99-4.98,0-9.56,.2-13.95-.2-.8,0-1.59-1.39-1.99-2.39-1.59-4.38-2.99-8.77-4.58-13.15-1.39-3.59-3.98-5.58-7.97-5.98-1.99-.2-3.19,.4-3.19,2.79,.2,5.18,0,10.36,0,15.74,0,2.39-.6,3.59-3.19,3.19-2.99-.2-5.98-.2-8.77,0-1.79,0-2.79-.6-2.79-2.59V35.98c0-1.39,0-2.59,1.79-2.39,9.76,.2,19.32,0,29.09,.6,9.76,.8,14.74,7.97,12.55,17.73-.8,4.98-3.98,7.77-8.17,9.16h0Zm-20.12-10.36c0,4.12,2.13,6.04,6.37,5.78h.6c5.18-.6,7.37-2.39,7.37-6.18,0-3.39-2.39-5.38-7.37-5.78-4.65-.53-6.97,1.53-6.97,6.18Z"/>
    <path class="cls-1" d="M1468.04,88.57c1.59-4.38,2.79-8.17,4.18-11.95,4.78-13.15,9.56-26.1,14.34-39.25,1-2.59,2.19-3.79,5.18-3.59,3.79,.2,7.77,0,11.75,.2,1.2,0,2.79,1,3.19,1.99,6.18,16.73,12.35,33.67,18.53,50.6,.2,.6,.2,1,.4,2.19h-4.58c-2.79,0-5.78-.2-8.57,0-2.99,.2-4.58-.6-4.98-3.79-.2-2.79-1.79-3.98-4.58-3.79-4.18,.2-8.57,.2-12.75,.2-1.99,0-2.99,.8-3.79,2.59-1.39,4.58-1.79,4.78-6.77,4.78-3.79-.2-7.57-.2-11.55-.2h0Zm28.89-39.25h-.6c-1.79,6.57-3.79,12.95-5.58,19.52-.2,.4,1,1.59,1.79,1.59,2.79,.2,5.78,0,8.57,0,1.59,0,2.19-.8,1.79-2.39-.8-2.39-1.39-4.78-2.19-7.17-1.39-3.59-2.59-7.57-3.79-11.55h0Z"/>
    <path class="cls-1" d="M1907.9,162.48h33.87c4.38,0,4.58,.2,3.79,4.58-.2,.6-.2,1.39-.4,1.99-1,4.78-1.99,5.58-6.77,5.58h-35.86c-1.99,0-3.79,.2-5.78,.2-1.79,0-2.99-.8-3.19-2.79-1.2-6.37-.6-6.97,4.78-10.56,7.17-4.58,14.54-9.36,21.32-14.54,2.99-2.39,5.78-5.78,7.37-9.16,3.98-8.96-1.2-16.53-10.76-16.14-6.77,.2-13.35,1.79-20.12,2.59-.8-4.78,3.19-11.36,8.57-12.95,7.37-2.19,14.94-2.79,22.51-1.2,16.53,3.79,22.31,22.31,10.76,35.06-5.58,6.18-12.95,9.76-20.52,12.95-3.39,1.39-6.57,2.59-9.96,3.98,.4,0,.4,.2,.4,.4h0Z"/>
    <path class="cls-1" d="M1838.97,125.22c-.2-.6-.2-.8-.2-1,1.99-10.56,3.79-12.35,14.34-14.54,5.58-1.2,11.36-1,16.93,.2,16.34,3.19,21.32,20.32,12.35,33.07-3.79,5.38-8.77,8.77-14.54,11.55-4.98,2.39-10.16,4.18-15.14,6.37-1,.4-1.99,.8-2.99,1.79h18.93c5.78,0,11.55,0,17.33-.2,2.19,0,2.79,.8,2.59,2.99-.8,8.17-1.59,9.16-9.96,9.16-12.75,0-25.5,0-38.05,.2-2.79,0-3.98-1-4.18-3.79-.8-5.78-.4-6.37,4.38-9.56,7.37-4.78,14.74-9.36,21.71-14.74,3.19-2.39,5.98-5.78,7.57-9.36,3.98-8.77-1-16.14-10.56-16.34-7.17,0-13.75,1.59-20.52,4.18h0Z"/>
    <path class="cls-1" d="M1713.47,124.43c1.2-3.39,2.39-6.77,3.79-9.96,.4-1,1.59-1.99,2.59-2.39,8.77-3.39,17.93-4.18,27.09-1.79,18.33,4.78,17.53,25.7,8.77,35.06-5.78,5.98-12.95,9.76-20.72,12.75-3.39,1.39-6.77,2.59-10.16,4.58h36.06c2.39,0,3.39,.8,2.59,3.39-.6,2.19-1,4.58-1.79,6.57-.4,1-1.79,1.99-2.79,1.99-14.94,.2-29.88,0-44.82,.2-1.59,0-2.39-.8-2.59-2.19-1.39-6.18-.8-7.57,4.58-10.96,7.17-4.58,14.34-9.56,21.52-14.54,3.59-2.39,6.37-5.78,7.77-9.96,2.99-8.96-1.59-15.94-10.96-15.54-5.78,.2-11.55,1.59-17.33,2.59-1,.2-1.99,.6-2.99,1,0-.4-.2-.6-.6-.8h0Z"/>
    <path class="cls-1" d="M1892.36,53.51v-17.13c0-1.99,.6-2.99,2.79-2.79,3.19,.2,6.37,0,9.76,0,1.99,0,2.39,.6,2.39,2.59,0,10.16,0,20.52,.2,30.68,0,1.79,.4,3.79,1,5.58,1.2,3.98,4.18,5.98,8.37,5.98s7.17-1.99,8.37-5.98c.6-1.99,1-4.38,1-6.37v-28.69c0-3.39,.2-3.59,3.79-3.59h8.57c1.79,0,2.59,.6,2.59,2.39,0,11.36,.2,22.51-.2,33.87-.2,9.16-5.18,15.34-13.95,18.13-7.17,2.19-14.14,2.19-21.32-.4-7.97-2.79-12.35-8.37-12.55-16.73-.2-5.78,0-11.55,0-17.33-.4-.13-.66-.2-.8-.2h0Z"/>
    <path class="cls-1" d="M1947.74,61.28v-24.5c0-1.79,.2-3.19,2.59-3.19,7.17,.2,14.34,.2,21.71,.4,1.2,0,2.19,.2,3.39,.6,9.96,1.99,14.94,7.97,14.54,17.73-.2,8.77-6.37,15.34-15.74,16.73-2.99,.4-5.78,.6-8.77,.4-2.39,0-3.19,.8-3.19,3.19,0,4.18-.2,8.57,0,12.75,.2,2.59-.8,3.39-3.19,3.19-2.79-.2-5.58-.2-8.17,0-2.39,.2-3.19-.8-3.19-3.19,.2-3.98,0-8.17,.2-12.15,0-3.98,0-7.97-.2-11.95q.13,0,0,0h0Zm14.94-9.76h0v1.39c-.4,7.17-.4,6.77,6.77,5.78,4.98-.8,7.37-6.18,4.98-10.76-1.39-2.59-7.17-4.78-10.36-3.39-2.99,1-1,3.79-1.2,5.78-.4,.2-.2,.6-.2,1.2h0Z"/>
    <path class="cls-1" d="M1476.8,33.79c-1.39,3.79-2.59,7.37-4.18,10.96-.2,.6-1.59,1-2.59,1h-15.34c-2.19,0-3.19,.6-2.99,2.99,.2,1.79,.2,3.59,0,5.38-.2,1.99,.8,2.79,2.59,2.79h10.76c.8,0,1.79,.2,2.99,.2-1.39,3.79-2.59,7.37-3.98,10.76-.2,.6-1.59,1.2-2.59,1.2-2.39,.2-4.98,.2-7.37,0-1.99-.2-2.59,.8-2.59,2.59v13.95c0,2.19-.6,3.19-3.19,3.19-3.79-.2-7.77-.2-11.75,0-1.79,0-2.59-.6-2.59-2.39,0-16.73,0-33.47,.2-50,0-.8,1.2-2.19,1.79-2.19,13.75-.4,27.09-.4,40.84-.4h0Z"/>
    <path class="cls-1" d="M1400.7,33.98c-1.39,3.59-2.39,7.17-3.98,10.36-.4,.8-1.99,1.2-3.19,1.2-4.78,.2-9.76,0-14.54,0-2.39,0-3.39,.6-3.39,3.19-.2,8.17-.4,8.17,7.97,7.97h8.77c-1.39,3.98-2.59,7.57-3.98,11.16-.2,.6-1.59,1-2.39,1-2.39,.2-4.78,.2-7.17,0-2.59-.2-2.99,1-2.99,3.19,.2,4.58,0,9.16,0,13.75,0,2.19-.8,2.99-2.99,2.99-3.79-.2-7.57-.2-11.36,0-2.19,0-2.79-.8-2.79-2.79V36.38c0-1.79,.6-2.59,2.59-2.59h38.25s.4,0,1.2,.2Z"/>
    <path class="cls-1" d="M1886.78,47.33c-1.59-.6-2.59-1-3.59-1.39-4.58-1.79-9.36-2.79-14.14-1.79-8.37,1.59-13.75,8.37-13.75,16.73,0,8.96,5.38,15.54,13.95,17.13,4.98,1,9.76,.2,14.54-1.2,2.39-.66,3.65,.27,3.79,2.79v1.39c.2,6.77,.2,6.57-6.57,7.77-9.36,1.39-18.53,1.2-26.89-3.39-10.56-5.38-15.54-16.14-13.75-28.69,1.79-11.95,9.56-20.52,21.32-23.11,7.97-1.59,15.94-1,23.71,1.2,.8,.2,2.19,1.2,2.19,1.79-.2,3.59-.6,6.97-.8,10.76Z"/>
    <path class="cls-1" d="M1686.77,143.95c1.59-3.59,2.79-6.97,4.18-9.96,2.59-4.98,6.37-8.96,11.95-10.56,2.39-.8,3.59-.2,3.79,2.39,.2,3.39,.6,6.57,.8,9.96,.2,1.39-.2,2.39-1.99,2.39-6.37,0-10.36,3.59-13.35,8.77-4.18,7.57-5.38,15.74-5.78,24.1-.2,2.79-.8,3.98-3.79,3.59-2.79-.2-5.78-.2-8.57,0-2.19,.2-2.79-.8-2.79-2.79,0-7.77,.2-15.54,0-23.31-.2-7.17-.4-14.14-.8-21.32-.2-2.59,.6-3.59,3.39-3.39,2.59,.2,5.38,.2,7.97,0,2.19-.2,3.39,.6,3.39,2.99,.6,5.58,1.2,10.96,1.59,17.13h0Z"/>
    <path class="cls-1" d="M1726.42,61.28v-24.3c0-2.59,.8-3.59,3.59-3.39,2.59,.2,5.18,.2,7.77,0,2.59-.2,3.79,.6,3.59,3.59-.2,12.15,0,24.5,0,36.66,0,2.52,1.26,3.79,3.79,3.79h15.94c2.19,0,2.99,.8,2.99,2.99-.2,7.97,0,7.97-7.97,7.97-8.96,0-17.93,0-26.69,.2-2.19,0-2.79-.8-2.79-2.79-.2-8.37-.2-16.53-.2-24.7h0Z"/>
    <path class="cls-1" d="M1423.01,61.08v24.5c0,2.19-.6,3.19-2.99,2.99-3.59-.2-7.17-.2-10.76,0-2.59,.2-3.59-.6-3.39-3.39,.2-14.34,0-28.49,0-42.83v-3.19c0-3.85,1.93-5.78,5.78-5.78h7.37c2.52,0,3.79,1.26,3.79,3.79,.2,8.17,.2,16.14,.2,23.91Z"/>
    <path class="cls-1" d="M1810.68,142.36c-2.79,2.59-5.18,4.98-7.77,7.17-.4,.4-1.39,.6-1.79,.2-2.39-1.79-4.78-3.79-6.77-5.98-.6-.6-.4-2.79,.2-3.39,1.99-2.19,4.18-3.98,6.57-5.78,.4-.2,1.39,0,1.79,.2,2.39,2.59,4.78,4.98,7.77,7.57h0Z"/>
  </g>
</svg>