<svg xmlns="http://www.w3.org/2000/svg" viewBox="0 0 51.39 21.77"><defs/><defs><clipPath id="clip-path"><path fill="none" d="M51.39 6.29v9.19a6.28 6.28 0 01-6.29 6.29H11.23V0H45.1a6.28 6.28 0 016.29 6.29z"/></clipPath><style>.cls-4{fill:#f23e00}.cls-72{fill:#ff8300}.cls-73{fill:#fff}</style></defs><g id="Capa_2" data-name="Capa 2"><g id="OBJECTS"><path fill="#212121" d="M6.29 0A6.28 6.28 0 000 6.29v9.19a6.28 6.28 0 006.29 6.29h9.19V0zm-.86 12.3A1.56 1.56 0 117 10.74a1.55 1.55 0 01-1.57 1.56z"/><g clip-path="url(#clip-path)"><path d="M11.23 0h10.32v21.77H11.23zM21.55 0h.43v21.77h-.43z" class="cls-4"/><path fill="#f23f00" d="M21.98 0h.43v21.77h-.43z"/><path fill="#f24000" d="M22.41 0h.43v21.77h-.43z"/><path fill="#f34100" d="M22.84 0h.43v21.77h-.43z"/><path fill="#f34200" d="M23.28 0h.43v21.77h-.43z"/><path fill="#f34300" d="M23.71 0h.43v21.77h-.43z"/><path fill="#f34400" d="M24.14 0h.43v21.77h-.43z"/><path fill="#f34500" d="M24.57 0H25v21.77h-.43z"/><path fill="#f44600" d="M25.01 0h.43v21.77h-.43z"/><path fill="#f44700" d="M25.44 0h.43v21.77h-.43z"/><path fill="#f44800" d="M25.87 0h.43v21.77h-.43z"/><path fill="#f44900" d="M26.3 0h.43v21.77h-.43z"/><path fill="#f44a00" d="M26.74 0h.43v21.77h-.43z"/><path fill="#f44b00" d="M27.17 0h.43v21.77h-.43z"/><path fill="#f54c00" d="M27.6 0h.43v21.77h-.43z"/><path fill="#f54d00" d="M28.03 0h.43v21.77h-.43z"/><path fill="#f54e00" d="M28.47 0h.43v21.77h-.43z"/><path fill="#f54f00" d="M28.9 0h.43v21.77h-.43z"/><path fill="#f55000" d="M29.33 0h.43v21.77h-.43z"/><path fill="#f65100" d="M29.76 0h.43v21.77h-.43z"/><path fill="#f65200" d="M30.2 0h.43v21.77h-.43z"/><path fill="#f65300" d="M30.63 0h.43v21.77h-.43z"/><path fill="#f65400" d="M31.06 0h.43v21.77h-.43z"/><path fill="#f65500" d="M31.49 0h.43v21.77h-.43z"/><path fill="#f75600" d="M31.93 0h.43v21.77h-.43z"/><path fill="#f75700" d="M32.36 0h.43v21.77h-.43z"/><path fill="#f75800" d="M32.79 0h.43v21.77h-.43z"/><path fill="#f75900" d="M33.22 0h.43v21.77h-.43z"/><path fill="#f75a00" d="M33.66 0h.43v21.77h-.43z"/><path fill="#f85b00" d="M34.09 0h.43v21.77h-.43z"/><path fill="#f85c00" d="M34.52 0h.43v21.77h-.43z"/><path fill="#f85d00" d="M34.95 0h.43v21.77h-.43z"/><path fill="#f85e00" d="M35.39 0h.43v21.77h-.43z"/><path fill="#f85f00" d="M35.82 0h.43v21.77h-.43z"/><path fill="#f96100" d="M36.25 0h.43v21.77h-.43z"/><path fill="#f96200" d="M36.68 0h.43v21.77h-.43z"/><path fill="#f96300" d="M37.12 0h.43v21.77h-.43z"/><path fill="#f96400" d="M37.55 0h.43v21.77h-.43z"/><path fill="#f96500" d="M37.98 0h.43v21.77h-.43z"/><path fill="#f96600" d="M38.41 0h.43v21.77h-.43z"/><path fill="#fa6700" d="M38.85 0h.43v21.77h-.43z"/><path fill="#fa6800" d="M39.28 0h.43v21.77h-.43z"/><path fill="#fa6900" d="M39.71 0h.43v21.77h-.43z"/><path fill="#fa6a00" d="M40.14 0h.43v21.77h-.43z"/><path fill="#fa6b00" d="M40.58 0h.43v21.77h-.43z"/><path fill="#fb6c00" d="M41.01 0h.43v21.77h-.43z"/><path fill="#fb6d00" d="M41.44 0h.43v21.77h-.43z"/><path fill="#fb6e00" d="M41.87 0h.43v21.77h-.43z"/><path fill="#fb6f00" d="M42.3 0h.43v21.77h-.43z"/><path fill="#fb7000" d="M42.74 0h.43v21.77h-.43z"/><path fill="#fc7100" d="M43.17 0h.43v21.77h-.43z"/><path fill="#fc7200" d="M43.6 0h.43v21.77h-.43z"/><path fill="#fc7300" d="M44.03 0h.43v21.77h-.43z"/><path fill="#fc7400" d="M44.47 0h.43v21.77h-.43z"/><path fill="#fc7500" d="M44.9 0h.43v21.77h-.43z"/><path fill="#fd7600" d="M45.33 0h.43v21.77h-.43z"/><path fill="#fd7700" d="M45.76 0h.43v21.77h-.43z"/><path fill="#fd7800" d="M46.2 0h.43v21.77h-.43z"/><path fill="#fd7900" d="M46.63 0h.43v21.77h-.43z"/><path fill="#fd7a00" d="M47.06 0h.43v21.77h-.43z"/><path fill="#fd7b00" d="M47.49 0h.43v21.77h-.43z"/><path fill="#fe7c00" d="M47.93 0h.43v21.77h-.43z"/><path fill="#fe7d00" d="M48.36 0h.43v21.77h-.43z"/><path fill="#fe7e00" d="M48.79 0h.43v21.77h-.43z"/><path fill="#fe7f00" d="M49.22 0h.43v21.77h-.43z"/><path fill="#fe8000" d="M49.66 0h.43v21.77h-.43z"/><path fill="#ff8100" d="M50.09 0h.43v21.77h-.43z"/><path fill="#ff8200" d="M50.52 0h.43v21.77h-.43z"/><path d="M50.95 0h.43v21.77h-.43zM51.39 21.77z" class="cls-72"/></g><path d="M17.42 10.45l-.5 1.71h-3.59l.5-1.71zM17.63 14.58l3.46-3.5a1 1 0 01-.39.19 1.83 1.83 0 01-.49.06H19c-.38 0-.63-.08-.74-.25a.88.88 0 010-.78l.4-1.3a1.53 1.53 0 01.48-.79 1.42 1.42 0 01.9-.26h1.16a.88.88 0 01.8.25.9.9 0 010 .8l-.38 1.31a1.85 1.85 0 01-.29.58l2.79-2.81h2l-3.44 3.47a1.47 1.47 0 01.85-.22h1.16c.39 0 .64.08.76.25a.94.94 0 010 .79l-.39 1.31a1.5 1.5 0 01-.48.79 1.44 1.44 0 01-.9.25h-1.15a.88.88 0 01-.75-.25 1 1 0 010-.79l.38-1.31a2 2 0 01.24-.53l-2.73 2.75zm2.43-5.45a.25.25 0 00-.19.06.45.45 0 00-.09.17l-.16.56a.21.21 0 000 .16s.07.05.16.05h.39a.34.34 0 00.2-.05.24.24 0 00.08-.16l.17-.56a.26.26 0 000-.17s-.08-.06-.18-.06zm3.5 3.37a.3.3 0 00-.2.06.34.34 0 00-.09.17l-.16.56a.23.23 0 000 .16s.08.05.16.05h.4a.28.28 0 00.2-.05.4.4 0 00.09-.16l.16-.56a.34.34 0 000-.17s-.07-.06-.17-.06zM32.49 12.65a2.74 2.74 0 01-.9 1.45 2.63 2.63 0 01-1.67.48h-2.31a1.65 1.65 0 01-1.4-.47 1.72 1.72 0 01-.05-1.46l.77-2.65a2.73 2.73 0 01.91-1.46 2.71 2.71 0 011.67-.47h2.32a1.6 1.6 0 011.38.47 1.73 1.73 0 010 1.46zm-2.82-2.88a1.63 1.63 0 00-.43.05.67.67 0 00-.24.18.7.7 0 00-.19.26 2.12 2.12 0 00-.13.36l-.44 1.48a3 3 0 00-.08.36.39.39 0 000 .25.41.41 0 00.2.16 1.4 1.4 0 00.4.05h1a1.69 1.69 0 00.43-.05.9.9 0 00.29-.16.82.82 0 00.19-.25 3 3 0 00.13-.36l.44-1.48a2 2 0 00.07-.36.44.44 0 000-.26.3.3 0 00-.19-.15 1.4 1.4 0 00-.4-.05zM35.3 12.16l-.71 2.42h-1.86L34.07 10A2.77 2.77 0 0135 8.55a2.75 2.75 0 011.68-.47H41l-.49 1.69H36.8a.89.89 0 00-1 .68h4.47l-.51 1.71zM42.43 12.16l-.7 2.42h-1.86L41.2 10a2.73 2.73 0 01.91-1.46 2.71 2.71 0 011.67-.47h4.32l-.5 1.69h-3.66a1.06 1.06 0 00-.67.17 1.08 1.08 0 00-.33.51h4.46l-.5 1.71z" class="cls-73"/></g></g></svg>