<svg xmlns="http://www.w3.org/2000/svg" viewBox="0 0 58.46 21.34"><defs/><defs><style>.cls-3{fill:#fff}</style></defs><g id="Capa_2" data-name="Capa 2"><g id="OBJECTS"><path fill="#262626" d="M15.14 21.33V0H6a1.74 1.74 0 00-1.26.94l-4.56 9a1.69 1.69 0 000 1.52l.94 1.86 3.62 7.08a1.63 1.63 0 00.31.42 1.76 1.76 0 00.94.5H15.14zM1.66 11.18A.86.86 0 011.83 10a.89.89 0 011.24.16.87.87 0 01-.17 1.23.89.89 0 01-1.24-.21z"/><path fill="#ff3c00" d="M7.83 0h46.33a4.3 4.3 0 014.3 4.3V17a4.3 4.3 0 01-4.3 4.3H7.83V0z"/><path d="M17.1 12.34a2.51 2.51 0 01-1 1.31 3.22 3.22 0 01-1.77.43h-2.4a1.9 1.9 0 01-1.49-.43 1.32 1.32 0 010-1.31l.77-2.34a2.47 2.47 0 011-1.31A3.28 3.28 0 0114 8.21h2.46a1.92 1.92 0 011.47.43 1.36 1.36 0 010 1.31zm-3-2.6a1.47 1.47 0 00-.45 0 .81.81 0 00-.31.13.77.77 0 00-.21.23 2.52 2.52 0 00-.13.33l-.47 1.33a2.61 2.61 0 00-.08.33.34.34 0 000 .23.36.36 0 00.21.13 1.3 1.3 0 00.43.05h1.08a1.58 1.58 0 00.46-.05.83.83 0 00.3-.13.74.74 0 00.2-.23 1.64 1.64 0 00.14-.33l.47-1.33a1.51 1.51 0 00.07-.33.34.34 0 000-.23.31.31 0 00-.2-.13 1.26 1.26 0 00-.43 0zM20.09 11.89l-.75 2.19h-2L18.78 10a2.47 2.47 0 011-1.31 3.28 3.28 0 011.78-.43h4.54l-.52 1.53h-3.9a1.27 1.27 0 00-.71.15 1.1 1.1 0 00-.35.47h4.74l-.53 1.53zM31.65 14.08h-4.58a1.92 1.92 0 01-1.49-.43 1.35 1.35 0 010-1.31l.77-2.34a2.58 2.58 0 011-1.31 3.3 3.3 0 011.78-.43h4.58l-.52 1.53h-3.93a1.31 1.31 0 00-.72.15 1.1 1.1 0 00-.35.47h4.75l-.54 1.53h-4.74a.54.54 0 000 .5c.08.11.29.16.62.16h3.9zM39.72 11.62a2.58 2.58 0 01-1.41.51l1.2 1.95H37.2L36 12.16h-.84l-.66 1.92h-2l2-5.87h4.58a1.9 1.9 0 011.48.43 1.34 1.34 0 010 1.32l-.15.44a2.74 2.74 0 01-.69 1.22zM36 9.77l-.28.82h2a1.42 1.42 0 00.59-.09.51.51 0 00.26-.32 1.07 1.07 0 000-.21.12.12 0 00-.05-.13.44.44 0 00-.2-.05h-.36zM45.89 9.74l-1.5 4.34h-2l1.49-4.34h-2.32l.52-1.53h6.68l-.53 1.53zM54.3 14.08h-2l.76-2.2h-2.75l-.75 2.2h-2L49 10a2.47 2.47 0 011-1.31 3.28 3.28 0 011.78-.43h2.42a1.89 1.89 0 011.47.43 1.33 1.33 0 010 1.31zm-2.4-4.34a1.27 1.27 0 00-.71.15 1 1 0 00-.35.47h2.77a.59.59 0 000-.47q-.11-.15-.6-.15z" class="cls-3"/></g></g></svg>