<svg xmlns="http://www.w3.org/2000/svg" viewBox="0 0 512 512" style="fill:#01f603"><defs/><path d="M469.33 213.33C469.33 95.51 373.83 0 256 0S42.67 95.51 42.67 213.33C14.66 213.33 0 264.85 0 315.73c0 50.89 14.66 102.4 42.67 102.4v59.74a25.63 25.63 0 0025.6 25.6h74.92a25.44 25.44 0 0018.94 8.53h68.27a25.63 25.63 0 0025.6-25.6v-17.07a25.63 25.63 0 00-25.6-25.6h-68.27a25.45 25.45 0 00-18.94 8.54H93.87v-34.14h10.1a25.38 25.38 0 0042.97 8.54h32.26a25.63 25.63 0 0025.6-25.6V230.4a25.63 25.63 0 00-25.6-25.6h-32.26a25.38 25.38 0 00-42.97 8.53h-10.1c-.01-36.62 12.45-72.15 35.33-100.75l8.22 6.59a25.32 25.32 0 0015.88 5.58 26.01 26.01 0 0017.38-6.7 127.06 127.06 0 0142.8-25.43A25.89 25.89 0 00230 61.3l-2.14-7.5a152.92 152.92 0 0156.29 0l-2.15 7.5a25.88 25.88 0 0016.52 31.3 127.07 127.07 0 0142.8 25.43 26 26 0 0017.38 6.71c5.78 0 11.38-1.97 15.9-5.58l8.2-6.59a161.22 161.22 0 0135.33 100.75h-10.1a25.39 25.39 0 00-42.97-8.53H332.8a25.63 25.63 0 00-25.6 25.6v170.67a25.63 25.63 0 0025.6 25.6h32.26a25.38 25.38 0 0042.97-8.54h10.1v76.8A17.09 17.09 0 00435.2 512h17.07a17.09 17.09 0 0017.06-17.07v-76.8c28.01 0 42.67-51.51 42.67-102.4 0-50.88-14.66-102.4-42.67-102.4zm-315.73 256a8.54 8.54 0 018.53-8.53h68.27a8.54 8.54 0 018.53 8.53v17.07a8.54 8.54 0 01-8.53 8.53h-68.27a8.54 8.54 0 01-8.53-8.53v-17.07zm0-76.8h8.53a8.53 8.53 0 100-17.06h-8.53V256h8.53a8.53 8.53 0 100-17.07h-8.53v-17.06h25.6a8.54 8.54 0 018.53 8.53v170.67a8.54 8.54 0 01-8.53 8.53h-25.6v-17.07zm-34.13-170.66a8.54 8.54 0 0117.06 0V409.6a8.53 8.53 0 11-17.06 0V221.87zm238.93 17.06h-8.53a8.53 8.53 0 100 17.07h8.53v119.47h-8.53a8.53 8.53 0 100 17.06h8.53v17.07h-25.6a8.54 8.54 0 01-8.53-8.53V230.4a8.54 8.54 0 018.53-8.53h25.6v17.06zm34.13 170.67a8.54 8.54 0 01-17.06 0V221.87a8.53 8.53 0 1117.06 0V409.6zM22.02 363.16a229.61 229.61 0 010-94.86l46.25 34.63v25.6l-46.25 34.63zM76.8 460.8v25.6h-8.53a8.54 8.54 0 01-8.54-8.53v-59.74H76.8v42.67zm59.73 8.53v17.07H93.87v-17.07h42.66zm-34.13-68.26H42.67c-4.74 0-10.59-7.42-15.5-20.43l41.1-30.78a25.63 25.63 0 0025.6 25.6h8.53v25.6zm0-42.67h-8.53a8.54 8.54 0 01-8.54-8.53v-25.6h17.07v34.13zm0-51.2H85.33v-25.6a8.54 8.54 0 018.54-8.53h8.53v34.13zm0-76.8V256h-8.53a25.63 25.63 0 00-25.6 25.6v.01l-41.1-30.78c4.91-13.01 10.76-20.43 15.5-20.43h59.73zM207.8 76.52a144.2 144.2 0 00-48.52 28.82 8.63 8.63 0 01-11.19.51l-7.6-6.1a162.32 162.32 0 0165.6-40.61c1.04-.33 2.06-.68 3.1-.99.65-.2 1.34-.32 2-.51l2.4 8.36a8.67 8.67 0 01-5.8 10.52zm156.12 29.33a8.64 8.64 0 01-11.2-.5 144.2 144.2 0 00-48.51-28.83A8.66 8.66 0 01298.4 66l2.4-8.37c.54.15 1.1.26 1.63.42 1.39.41 2.76.88 4.13 1.33 3.7 1.21 7.36 2.53 10.94 4 .66.28 1.34.51 2 .79 4.32 1.85 8.54 3.9 12.67 6.11l2.17 1.2a162.8 162.8 0 0124.17 16.36l1.08.9a163.4 163.4 0 0111.9 11l-7.58 6.1zm27.1-9.97c-.15-.3-.32-.6-.5-.88a164.2 164.2 0 00-19.97-19.33l-1.61-1.3c-3.85-3.13-7.82-6.1-11.9-8.9-.46-.32-.9-.66-1.38-.97a178.8 178.8 0 00-13.9-8.45c-.58-.32-1.2-.6-1.78-.92a173.5 173.5 0 00-12.1-5.83 180.4 180.4 0 00-16.24-6.21c-1.42-.47-2.84-.94-4.28-1.37a178.54 178.54 0 00-10.5-2.84c-.2-.04-.4.01-.6-.02a173.8 173.8 0 00-80.5 0c-.2.02-.39-.03-.6.01-3.17.74-6.27 1.66-9.39 2.56-1.14.33-2.31.58-3.45.94a177.14 177.14 0 00-15.85 5.8c-.18.09-.36.18-.54.25a175.74 175.74 0 00-15.04 7.26l-.48.26a176.79 176.79 0 00-40.96 30.64l-.45.48a181.5 181.5 0 00-7.5 7.92c-.18.28-.35.58-.5.88a178.26 178.26 0 00-44.2 117.47H59.73c0-108.4 87.88-196.27 196.27-196.27s196.27 87.88 196.27 196.27H435.2c0-43.21-15.7-84.95-44.19-117.45zM409.6 230.4h59.73c4.74 0 10.59 7.42 15.5 20.43l-41.1 30.78v-.01a25.63 25.63 0 00-25.6-25.6h-8.53v-25.6zm0 42.67h8.53a8.54 8.54 0 018.54 8.53v25.6H409.6v-34.13zm0 51.2h17.07v25.6a8.54 8.54 0 01-8.54 8.53h-8.53v-34.13zm25.6 170.66v-42.66h17.07l.01 42.66H435.2zm0-59.73v-17.07h17.07v17.07H435.2zm34.13-34.13H409.6v-25.6h8.53a25.63 25.63 0 0025.6-25.6v-.01l41.1 30.78c-4.91 13-10.76 20.43-15.5 20.43zm-25.6-72.54v-25.6l46.25-34.63a216.38 216.38 0 014.95 47.43 216.4 216.4 0 01-4.95 47.43l-46.25-34.63z"/></svg>