<svg xmlns="http://www.w3.org/2000/svg" viewBox="0 0 512 512" style="fill:#01f603"><path d="M73.1 338.3v18.3c0 5 4.1 9.1 9.2 9.1h9.1v-36.6H73.1v9.2zM54.9 320v-13.7L5.3 269.2a246 246 0 000 101.6l49.6-37V320zM91.4 384h-9.1a27.5 27.5 0 01-27.4-27.4l-44 33c5.2 13.9 11.5 21.8 16.5 21.8h64V384zM45.7 493.7c0 5 4.1 9.2 9.2 9.2H64v-73.2H45.7v64zM82.3 484.6H128v18.3H82.3zM91.4 274.3h-9.1c-5 0-9.2 4-9.2 9.1V311h18.3v-36.6zM420.6 256h9.1a27.5 27.5 0 0127.4 27.4l44-33c-5.2-13.9-11.5-21.8-16.5-21.8h-64V256zM438.9 301.7v-18.3c0-5-4.1-9.1-9.2-9.1h-9.1v36.6h18.3v-9.2zM118.9 210.3c-5 0-9.2 4-9.2 9.1v201.2a9.1 9.1 0 0018.3 0V219.4c0-5-4-9.1-9.1-9.1zM420.6 365.7h9.1c5 0 9.2-4 9.2-9.1V329h-18.3v36.6zM54.9 283.4A27.5 27.5 0 0182.3 256h9.1v-27.4h-64c-5 0-11.3 8-16.6 21.9l44 33zM204.3 63.7a9.3 9.3 0 006.3-11.3l-2.6-9c-.7.3-1.5.4-2.2.6l-3.3 1a174 174 0 00-70.3 43.6l8.2 6.5a9.2 9.2 0 0012-.5 154.5 154.5 0 0152-30.9zM448 429.7h18.3V448H448zM393.1 210.3c-5 0-9.1 4-9.1 9.1v201.2a9.1 9.1 0 0018.3 0V219.4c0-5-4.1-9.1-9.2-9.1zM448 466.3V512h18.3v-45.7zM457.1 356.6a27.5 27.5 0 01-27.4 27.4h-9.1v27.4h64c5 0 11.3-8 16.6-21.9l-44-33zM506.7 269.2l-49.6 37v27.5l49.6 37.1c7-33.5 7-68.1 0-101.6zM155.4 402.3h-9.1v18.3h27.4c5 0 9.2-4.1 9.2-9.2V228.6c0-5-4.1-9.2-9.2-9.2h-27.4v18.3h9.1a9.1 9.1 0 010 18.3h-9.1v128h9.1a9.1 9.1 0 010 18.3zM228.6 475.4h-73.2c-5 0-9.1 4.1-9.1 9.2v18.3c0 5 4 9.1 9.1 9.1h73.2c5 0 9.1-4 9.1-9.1v-18.3c0-5-4-9.2-9.1-9.2zM365.8 75.8c-8-6.6-16.7-12.4-25.9-17.5l-2.3-1.3c-4.4-2.3-9-4.5-13.6-6.5l-2.1-.9c-3.8-1.5-7.7-3-11.7-4.3l-4.4-1.4-1.8-.4-2.6 9a9.3 9.3 0 006.3 11.2 154.5 154.5 0 0152 30.9 9.3 9.3 0 0012 .5l8-6.5c-4-4.1-8.2-8-12.7-11.8l-1.2-1z"/><path d="M315.6 27.9A193.1 193.1 0 01346 40.8l1.9 1c5 2.7 10 5.8 14.9 9l1.5 1c4.3 3 8.6 6.2 12.7 9.6l1.7 1.4a192.4 192.4 0 0121.4 20.7l.6 1A191 191 0 01448 210.2h18.3a210.3 210.3 0 10-420.6 0H64A191 191 0 01120 75c0-.2.2-.3.4-.5 13-13 27.8-24 43.9-32.8l.5-.3c5.3-2.9 10.6-5.5 16.1-7.8l.6-.3c5.6-2.3 11.2-4.4 17-6.2l3.7-1c3.3-1 6.6-2 10-2.7h.7c28.3-6.8 57.9-6.8 86.2 0h.7c3.8.9 7.5 2 11.2 3l4.6 1.5zM329.1 228.6v182.8c0 5 4.1 9.2 9.2 9.2h27.4v-18.3h-9.1a9.1 9.1 0 010-18.3h9.1V256h-9.1a9.1 9.1 0 010-18.3h9.1v-18.3h-27.4c-5 0-9.2 4.1-9.2 9.2z"/></svg>