<svg xmlns="http://www.w3.org/2000/svg" viewBox="0 0 1041.77 931.23"><defs><style>.cls-1{fill:#075b11;}.cls-2{fill:#08a621;}.cls-3{fill:#0db721;}.cls-4{fill:#0df700;}.cls-5{fill:#6400f4;}.cls-6{fill:#02d323;}.cls-7{fill:#fff;}</style></defs><g id="Capa_2" data-name="Capa 2"><g id="Capa_1-2" data-name="Capa 1"><polyline class="cls-1" points="0.83 866.22 266.4 868.6 0.83 866.22 0.83 866.22 341.08 868.6 585.39 806.29 757.55 824.36 1038.35 742.2 734.93 703.09 0.83 866.22"/><polygon class="cls-2" points="748.99 62.38 283.38 62.38 50.57 465.61 283.38 868.85 748.99 868.85 981.79 465.61 748.99 62.38"/><polygon class="cls-2" points="112.95 232.81 112.95 698.42 516.18 931.23 919.41 698.42 919.41 232.81 516.18 0 112.95 232.81"/><polygon class="cls-3" points="734.64 86.6 296.99 86.6 78.17 465.61 296.99 844.63 734.64 844.63 953.47 465.61 734.64 86.6"/><polygon class="cls-3" points="136.8 246.79 136.8 684.44 515.82 903.26 894.84 684.44 894.84 246.79 515.82 27.96 136.8 246.79"/><circle class="cls-4" cx="516.18" cy="462.95" r="361.16"/><circle class="cls-5" cx="516.18" cy="462.95" r="329.38"/><path class="cls-4" d="M651.41,304.19c-2.39,2.33-9.48,57.25-6.61-19.73.81-22.16-13-37.34-30.71-48.35C568.33,207.74,503.8,206.41,453.35,221,419,231,376.47,248.85,356,280.25c-8.41,12.84-11.68,29.45-7,44.23,23.21,73.45,1.78,22.39-1.14,20.78,0,0,7.32,227.27,16.51,248.13C372.05,610.86,475.11,661,508.62,677l21.08,44.83-10.78-40a.79.79,0,0,1,.19.08S489.33,564.33,478,472.69c0,0-86.23-52-91.36-58.35s-1.12-8.26-6.13-13.79c0,0,110.51,39.5,111,43.31s19.34,93.71,21.32,98.11S531,556.6,531,556.6s12.74-14.2,13.53-18.91-5-96.43-5.52-100.25,95.53-71.24,95.53-71.24c-3.37,6.66,1,7.49-2.25,14.92s-72.53,80.52-72.53,80.52c7.74,52.8,13.49,127.65,14.89,166.14l.47,87.89,8.27-48c26.84-23.17,115.18-100.76,118-119.9C704.73,525.24,651.41,304.19,651.41,304.19ZM464.22,231.11c-19.38,11.46-39.59,23.32-54.9,40.11a76,76,0,0,0-19,37.51,92.35,92.35,0,0,0-.22,30.72c.83,5.1,4.87,13.4,3.89,18.53-.54,2.85-3.22,3.84-5.36,1.64-80.69-82.39,71.06-125.87,83.78-133.34C469.69,227.89,467,229.49,464.22,231.11Z"/><polygon class="cls-6" points="1038.35 742.2 0.83 866.22 0 719.96 1041.77 595.43 1038.35 742.2"/><path class="cls-7" d="M122.77,791.76a3.67,3.67,0,0,0-2.87-3.24c-1.7-.51-4.85-.72-9.45-.61q-14.24.27-20.34-3t-7.2-12.17a17.25,17.25,0,0,1,5.32-15.09q6.4-6.32,18.32-7.78a37.62,37.62,0,0,1,25.88,5.9l-6.59,12.48a32.07,32.07,0,0,0-9.17-3.89,24.92,24.92,0,0,0-9.12-.69,16.83,16.83,0,0,0-7.12,2.17q-2.45,1.59-2.17,3.81a3.55,3.55,0,0,0,3,3.09q2.68.7,9.92.51,13.53-.36,19.71,3.11t7.27,12.43A17.35,17.35,0,0,1,132.7,804q-6.52,6.38-18.71,7.87a48.14,48.14,0,0,1-15.79-.52,42.19,42.19,0,0,1-14-5.67L90.5,793A44,44,0,0,0,102,797.46a32.52,32.52,0,0,0,11,.6,18.2,18.2,0,0,0,7.55-2.27Q123.06,794.14,122.77,791.76Z"/><path class="cls-7" d="M146.38,806.67l-7.32-59.62,46.67-5.73,1.66,13.45-30.66,3.77,1.15,9.37,28.27-3.48,1.65,13.46-28.27,3.47,1.21,9.88,30.66-3.76,1.65,13.45Z"/><path class="cls-7" d="M199.36,800.16,192,740.54l16-2,5.64,46,27.68-3.4,1.68,13.63Z"/><path class="cls-7" d="M248.41,794.14l-7.32-59.62,16-2,5.65,46,27.68-3.39,1.67,13.62Z"/><path class="cls-7" d="M290.58,758.79q-1.65-13.45,6.32-23.47t21.78-11.71q13.8-1.7,23.87,6.06t11.71,21.13q1.67,13.46-6.32,23.47T326.16,786q-13.79,1.69-23.87-6.06T290.58,758.79Zm16.16-2.16a18.26,18.26,0,0,0,6,12,15.38,15.38,0,0,0,22.5-2.67,20.07,20.07,0,0,0-3.16-25,14.65,14.65,0,0,0-11.9-3.6,14.45,14.45,0,0,0-10.59,6.28A18.09,18.09,0,0,0,306.74,756.63Z"/><path class="cls-7" d="M377.69,778.26l-7.32-59.61,24-2.95q15.84-2,25.84,4.86t11.7,20.7q1.67,13.46-6.66,22.82t-23.73,11.26Zm38.08-34.84q-.9-7.33-6.19-11T396,729.68l-7.92,1L392,762.33l7.92-1q8.26-1,12.51-5.82T415.77,743.42Z"/><path class="cls-7" d="M441.14,770.47l-7.32-59.61,46.67-5.73,1.65,13.45-30.66,3.77,1.16,9.36,28.27-3.47,1.65,13.46-28.27,3.47,1.21,9.88,30.66-3.76,1.65,13.45Z"/><path class="cls-7" d="M533,711.13a15.32,15.32,0,0,0-10.92,6.44,17.56,17.56,0,0,0-3.2,13q1,7.84,6.08,12.18a15.22,15.22,0,0,0,12.27,3.46,16.23,16.23,0,0,0,8.74-3.4,12.42,12.42,0,0,0,4.1-7.42l-16.69,2.05-1.55-12.61L564,720.9q.3,1,.6,2.43c.21,1,.36,1.86.46,2.71q1.71,13.89-5.47,23t-21.31,10.88q-13.8,1.68-23.82-6t-11.68-21.22q-1.65-13.46,6.58-23.5t22.11-11.75A33.89,33.89,0,0,1,547.05,699a26.14,26.14,0,0,1,11.74,8L549,717.29a19.43,19.43,0,0,0-7.35-5.24A17.76,17.76,0,0,0,533,711.13Z"/><path class="cls-7" d="M586.15,741.86,583.28,753,567,755l17.21-62.63,17.45-2.14,31.94,56.59-16.78,2.06-5.48-10.13Zm8.65-33.74-5,19.64,14.65-1.8Z"/><path class="cls-7" d="M675,718l17.1,21.68L673.48,742,659.39,723l-9,1.11,2.5,20.36L637,746.42,629.7,686.8l29.13-3.57q11.74-1.44,18.61,2.68t8,13.33a17.77,17.77,0,0,1-1.84,11A19.17,19.17,0,0,1,675,718Zm-5.7-16.16a5.43,5.43,0,0,0-2.61-4.35c-1.49-.85-3.63-1.11-6.41-.76l-13.11,1.61,1.53,12.52,13.12-1.62a9.85,9.85,0,0,0,5.93-2.41A5.7,5.7,0,0,0,669.33,701.82Z"/><path class="cls-7" d="M711.09,726.52l-2.87,11.16-16.26,2,17.2-62.63,17.46-2.15,31.94,56.6-16.78,2.06-5.48-10.13Zm8.65-33.74-5,19.64,14.64-1.8Z"/><path class="cls-7" d="M773,693.5l4.38,35.69L762,731.08l-7.32-59.62,16.18-2L801.35,702,797,666.27l15.41-1.9L819.7,724l-16.18,2Z"/><path class="cls-7" d="M839.14,675.27l-19.76,2.42-1.72-14,55.53-6.82,1.72,14-19.76,2.43,5.6,45.65-16,2Z"/><path class="cls-7" d="M886.05,715.84l-7.32-59.61,16-2,7.32,59.62Z"/><path class="cls-7" d="M924.43,700.33l-2.87,11.15-16.26,2,17.2-62.63L940,648.71,971.9,705.3l-16.78,2.06-5.48-10.13Zm8.65-33.75-5,19.64,14.64-1.8Z"/></g></g></svg>