<svg xmlns="http://www.w3.org/2000/svg" viewBox="0 0 233.8 115.3"><defs/><defs><style>.cls-2{fill:#fff}</style></defs><g id="Capa_2" data-name="Capa 2"><g id="Capa_1-2" data-name="Capa 1"><rect width="233.8" height="115.3" fill="#23c402" rx="22.1"/><path d="M81.4 44.4V25.1l-5.9 2.5a1.6 1.6 0 01-.5.1c-.3 0-.5-.2-.5-.6V22a.6.6 0 01.4-.6l8.2-3.8a2.3 2.3 0 011-.2h4a.8.8 0 01.8.8v26.2h6a.9.9 0 011 .9v4.6a.9.9 0 01-1 .9H75.4a.9.9 0 01-1-.9v-4.6a.9.9 0 011-.9zM119.4 34l-3.8 2.6c-3.8 2.5-6.5 4.5-6.5 7.6v.2h14.2a.9.9 0 01.9.9v4.6a.9.9 0 01-1 .9h-20a.9.9 0 01-.8-.9v-4.6a14 14 0 016.1-11.4l4.1-2.9c4-2.7 4.6-3.1 4.6-5.2 0-2-1.1-2.7-4.8-2.7-2.7 0-6 .3-8.8.6h-.1a.8.8 0 01-.8-1v-3.5c0-.4.4-.7.8-.8a35.6 35.6 0 019.6-1.4c8.3 0 11.5 2.8 11.5 8.6 0 3.6-1.8 6.2-5.2 8.4zM133.8 33.2h5.2l3.3 9.9a14.2 14.2 0 01.6 3h.1a13.5 13.5 0 01.7-3l3.3-9.9h5.2l-7.5 19.9a8.6 8.6 0 01-3 4 7.4 7.4 0 01-4.3 1.5 11 11 0 01-2.5-.3v-3.8a8.5 8.5 0 001.9.2 3.4 3.4 0 002.2-.8 5 5 0 001.5-2.4l.3-.8zM165 44.4V25.1l-5.8 2.5a1.5 1.5 0 01-.5.1c-.3 0-.5-.2-.5-.6V22a.6.6 0 01.5-.6l8.1-3.8a2.3 2.3 0 011-.2h4a.8.8 0 01.9.8v26.2h6a.9.9 0 01.9.9v4.6a.9.9 0 01-1 .9h-19.5a.9.9 0 01-.9-.9v-4.6a.9.9 0 011-.9zM197.4 51.2h-.5c-7 0-11.9-3.5-11.9-10v-.6a8.9 8.9 0 013.8-7.2 7.7 7.7 0 01-3.6-6.7v-.5c0-6.3 4.6-9.2 11.7-9.2h.5c7.1 0 11.8 2.9 11.8 9.2v.5a7.8 7.8 0 01-3.7 6.7 8.9 8.9 0 013.9 7.2v.6c0 6.5-5 10-12 10zm4.6-24.5c0-2.4-1.3-4.1-4.5-4.1h-.5c-3.3 0-4.6 1.7-4.6 4v.3c0 2.3 1.3 4 4.1 4h1.4c2.8 0 4.1-1.7 4.1-4zm0 13.8c0-2-1-4.3-4-4.3h-1.4c-3 0-4 2.3-4 4.3v.5a4.2 4.2 0 004.4 4.5h.5A4.2 4.2 0 00202 41zM91.5 97.3a21.2 21.2 0 01-5.5.7c-5.7 0-11-3-11-11.9v-4.7c0-8.8 5.4-11.8 11-11.8a21.2 21.2 0 015.5.7c.6.1.9.3.9.8v3.6a.7.7 0 01-.7.7h-.2c-1.4 0-3.4-.3-5.5-.3-2.5 0-4.6 1.4-4.6 6.3v4.7c0 5 2 6.3 4.6 6.3 2 0 4.1-.1 5.5-.3h.2a.7.7 0 01.7.8v3.6c0 .5-.4.7-.9.8zM107.1 98c-6 0-10.7-2.2-10.7-10.7V70.6a.7.7 0 01.7-.7h4.9a.7.7 0 01.8.7v16.6c0 3.8 1 5.5 4.3 5.5s4.4-1.7 4.4-5.5V70.6a.7.7 0 01.8-.7h4.8a.7.7 0 01.8.7v16.6c0 8.5-4.9 10.8-10.8 10.8zM133.4 98c-6.2 0-11-3.3-11-12v-4.4c0-8.7 4.9-12 11-12s11 3.3 11 12V86c0 8.7-4.8 12-11 12zm4.6-16.4c0-4.5-1.5-6.4-4.6-6.4s-4.6 1.9-4.6 6.4V86c0 4.5 1.4 6.4 4.6 6.4s4.6-2 4.6-6.4zM165.5 75.2h-6v21.7a.8.8 0 01-.8.7h-4.9a.8.8 0 01-.8-.7V75.2h-6a.7.7 0 01-.8-.7v-3.9a.7.7 0 01.8-.7h18.5a.7.7 0 01.8.7v3.9a.7.7 0 01-.8.7zM188.2 97.6H183a.8.8 0 01-.8-.6l-1.3-6.1h-7.6l-1.4 6.1a.8.8 0 01-.8.7H166a.6.6 0 01-.6-.6 1.5 1.5 0 000-.2l5.5-23.1c.9-3.6 3.6-4.2 6.2-4.2s5.3.6 6.2 4.2l5.5 23v.3a.6.6 0 01-.5.5zm-10.6-22.1c-.1-.4-.2-.6-.5-.6s-.5.2-.6.6l-2.2 10.2h5.5zM199.7 98a28 28 0 01-7-.8c-.4-.1-.7-.4-.7-.8v-3.6a.6.6 0 01.6-.7h.1l7.1.4c2.6 0 3.3-.8 3.3-2.6 0-1-.5-1.7-2.4-2.8l-5.2-3c-3.4-2.1-4.4-4.4-4.4-7.2 0-4 2.3-7.2 9.6-7.2a41.4 41.4 0 017.9.8.7.7 0 01.5.6V75a.6.6 0 01-.6.6c-1 0-5.4-.4-8-.4-2 0-2.9.7-2.9 2 0 1 .5 1.6 2.5 2.6l4.8 2.6c3.9 2.1 5 4.6 5 7.6 0 3.9-2.6 8.1-10.2 8.1z" class="cls-2"/><circle cx="25.4" cy="56.6" r="8.9" class="cls-2"/><rect width="3.1" height="92.2" x="48.4" y="10.5" fill="#24b700" rx="1.6" transform="rotate(-180 50 56.6)"/></g></g></svg>