<svg xmlns="http://www.w3.org/2000/svg" viewBox="0 0 496 496"><defs/><g xmlns="http://www.w3.org/2000/svg" data-name="Capa 1"><path fill="#7300ff" stroke="#fff" stroke-miterlimit="10" stroke-width="5" d="M2.5 57.8v182A55.7 55.7 0 0018.7 279l198.5 198.4a55.4 55.4 0 0078.2 0l182-181.9a55.4 55.4 0 000-78.2L278.8 18.7a55.8 55.8 0 00-39.1-16.2h-182A55.4 55.4 0 002.5 57.8zm39 28.2A44.5 44.5 0 1186 130.6 44.6 44.6 0 0141.5 86z"/><path fill="#fff" d="M136.3 165.3V268h-20.4v-82h-15.5v-13.1zm11 82.7c3.5-5.5 14.8-14.4 23.7-21 18.6-13.4 26-18.5 26-30.3 0-7-4.5-14.6-14.3-14.6-14.4 0-14.8 11.7-14.8 19.3h-19.8c0-33.7 24.6-36.5 33.8-36.5 19.7 0 35.4 11.8 35.4 32.6 0 18.1-11.3 26.5-21.5 33.5-13.7 9.7-20.6 14.2-23.1 19h44.7v18h-70.1zm92.7-.2l-19.2-31.6h12.9l12.1 20.5 12-20.5h12.8l-19.3 32V268H240zm72.6-82.5V268h-20.4v-82h-15.5v-13.1zM360 270.8c-26.8 0-35.8-17.3-35.8-31.4 0-5 0-18.9 15.7-26.1a20.7 20.7 0 01-12.5-20.2c0-17.4 14-28.2 32-28.2 21.4 0 32.8 12.5 32.8 26.9 0 8.9-3.7 16.3-12 20.8 10 5 15.4 11.4 15.4 24.8a33 33 0 01-35.7 33.4zm-.4-48.7c-7.4 0-14.5 5-14.5 16 0 10 5.7 16.5 15 16.5 10.6 0 14.7-9.2 14.7-16.3s-4-16.2-15.2-16.2zm13-28.1c0-8.1-5.3-12.8-11.8-12.8-9.3 0-14 5.3-14 12.8a12.7 12.7 0 0013.2 12.8c8.2 0 12.7-5.4 12.7-12.8zM118.8 329.5a18.4 18.4 0 1116-27.4c-3.1 1.7-3.4 1.8-6.9 3.5a10.6 10.6 0 00-9-5.2 10.8 10.8 0 100 21.5 10.6 10.6 0 009.4-5.6c3.4 1.7 3.5 2 6.8 3.4a18.2 18.2 0 01-16.3 9.8zm67.2-13.8c0 9.8-5.8 14.6-15.5 14.6s-15.5-4.7-15.5-14.6v-22.5h8v22.5c0 4 1 7.9 7.5 7.9 5.7 0 7.5-2.4 7.5-7.9v-22.5h8zm38.1 14.2A18.8 18.8 0 11243 311a18.7 18.7 0 01-18.8 18.8zM213 311a11 11 0 1011.1-11.1A11.2 11.2 0 00213 311zm59-11.1h-11.6v-6.7h31v6.7h-11.5v29.5h-8zm35.7 29.5l16.5-36.2h8l16.2 36.2h-7.8l-3.5-8h-18.3l-3.8 8zm20.6-29.4l-6.1 14h12l-6-14zm44.5 18.7c.8 4.7 5.1 5.4 8 5.4 2.8 0 7-.8 7-4.5 0-7.7-21.5-2.8-21.5-16.3 0-7.5 7-11 13.6-11 7.5 0 14.5 3.3 14.5 11.7l-7.7-1.2c-1-4.2-4.7-4.3-7.2-4.3s-5.5 1-5.5 4c0 2.8 1.7 3.4 10.8 5.6 2.7.6 10.8 2.3 10.8 10.5 0 6.7-5.2 11.7-15 11.7-8.2 0-15.5-4-15.5-13z"/></g></svg>