<svg xmlns="http://www.w3.org/2000/svg" viewBox="-40 0 427 427"><defs/><path d="M232 155c-5 0-10 4-10 10v189a10 10 0 0020 0V165c0-6-4-10-10-10zm0 0M114 155c-5 0-10 4-10 10v189a10 10 0 0020 0V165c0-6-4-10-10-10zm0 0"/><path d="M28 127v247c0 14 6 28 15 38 9 9 22 15 36 15h189c14 0 26-6 36-15 9-10 14-24 14-38V127a38 38 0 00-9-75h-52V40a39 39 0 00-39-40h-89a39 39 0 00-40 40v12H38a38 38 0 00-10 75zm240 280H79c-17 0-31-15-31-33V128h250v246c0 18-13 33-30 33zM109 40a19 19 0 0120-20h89a19 19 0 0119 20v12H109zM38 72h271a18 18 0 110 36H38a18 18 0 110-36zm0 0"/><path d="M173 155c-5 0-10 4-10 10v189a10 10 0 0020 0V165c0-6-4-10-10-10zm0 0"/></svg>