<?xml version="1.0" encoding="utf-8"?>
<!-- Generator: Adobe Illustrator 26.4.1, SVG Export Plug-In . SVG Version: 6.00 Build 0)  -->
<svg version="1.1" id="Capa_1" xmlns="http://www.w3.org/2000/svg" xmlns:xlink="http://www.w3.org/1999/xlink" x="0px" y="0px"
	 viewBox="0 0 319.2 319.2" style="enable-background:new 0 0 319.2 319.2;" xml:space="preserve">
<style type="text/css">
	.st0{fill:#01F603;}
</style>
<g>
	<path class="st0" d="M290.5,21.6c-4.2-4.2-9.8-6.5-16-6.5c-6.9,0-13.9,2.9-19.2,8l-22.9,18.6l-0.9,0.8c-5.1,5.1-7.1,12.2-5.8,19.3
		l-53.4,51.9l-9-7.8c6.4-25.1,5.6-58.6-16-80.3C131.3,9.8,111,1.1,90,1.1c-8.3,0-16.6,1.4-24.5,4.1c-3.6,1.3-6.4,4.2-7.4,7.9
		s-0.2,7.7,2.3,10.6l28.8,34.4l-1.4,22.1L63.8,83L29.6,54.4c-2.9-2.5-6.9-3.3-10.6-2.3c-3.7,1-6.7,3.8-7.9,7.4
		c-9.3,27-1.1,56,22.6,79.6c12.8,12.8,31.1,19.5,53.1,19.5c1.6,0,3.2-0.1,4.8-0.2c-0.8,0.7-1.6,1.4-2.4,2.2l-65.6,65.6
		c-18.2,18.2-18.2,47.9,0,66.1l11,11c8.8,8.8,20.6,13.7,33.1,13.7s24.2-4.9,33.1-13.7l65.6-65.6c3.6-3.6,6.5-7.7,8.7-12.1l58.3,67.4
		c0.2,0.2,0.4,0.4,0.6,0.6c6.5,6.5,16.3,10.1,27.6,10.1c13.7,0,27.6-5.4,36.3-14.1c15.3-15.3,20.1-47.8,3.9-63.9
		c-0.2-0.2-0.4-0.4-0.6-0.6l-84.9-73.5l49-50.4c1.3,0.2,2.7,0.3,4.1,0.3c5.9,0,11.3-2.2,15.3-6.2l19.4-23.8
		c4.4-4.6,7.2-10.5,7.9-16.6c0.8-7.1-1.6-13.9-6.3-18.7L290.5,21.6z M149.8,221.3L84.1,287c-4.4,4.4-10.3,6.8-16.5,6.8
		s-12.1-2.4-16.5-6.8l-11-11c-9.1-9.1-9.1-23.9,0-33l65.6-65.7c4.4-4.4,10.3-6.8,16.5-6.8c1.8,0,3.6,0.2,5.4,0.6l29,33.5
		C156.6,210.6,154.4,216.7,149.8,221.3z M281.3,273.3c-4.3,4.3-12.3,7.2-19.8,7.2c-4.7,0-8.7-1.1-10.9-3.1L126.7,134.3
		c-3.1-3.6-8.1-4.9-12.6-3.4c-8.7,2.9-18.2,4.5-27.4,4.5c-15.4,0-28.4-4.5-36.6-12.7c-7.4-7.4-17.8-20.5-19.3-36.7l21.8,18.2
		c2.5,2.1,5.6,3,8.8,2.6l38.6-4.4c5.6-0.6,10-5.2,10.3-10.9l2.3-36.6c0.2-3-0.8-5.9-2.7-8.2L91.4,24.5c14.3,0.4,28.2,6.7,39.3,17.8
		c15.3,15.3,14.9,43.9,8.2,64c-1.5,4.5-0.2,9.5,3.4,12.6l143.2,123.9C290.6,248.3,289.4,265.2,281.3,273.3z M286.9,55.7l-18.3,22.5
		c-0.2-0.1-0.4-0.2-0.6-0.3l-7.9-4.7l-61.5,63.3l-8.6-7.4L253.9,67l-4.7-7.9c-0.1-0.2-0.2-0.5-0.3-0.6l21.6-17.5l0.9-0.8
		c1.2-1.2,2.3-1.6,3.1-1.6l14.2,14.2C288.5,53.3,288.1,54.5,286.9,55.7z"/>
</g>
</svg>
