<svg xmlns="http://www.w3.org/2000/svg" viewBox="0 0 255.34 255.33" style="fill:#01f603"><defs/><g data-name="Capa 2"><g data-name="Capa 1"><path d="M237.83 65.61v162.67c0 7.93-.91 8.83-8.93 8.83h-208C7.32 237.15 0 229.81 0 216.1V38.6c0-14 7.17-21.14 21.27-21.14h168.59c-4.71 4.87-7.51 9.42-14.85 9.36-43.83-.35-87.66-.17-131.48-.16-7.61 0-10 1.71-12.1 9.11-2 7-6.57 11.38-13.53 13.35s-8.78 4.4-8.78 11.29v133c0 7.73 1.74 10 9 12.11a18.6 18.6 0 0113.39 13.54c2 7.14 4.31 8.85 11.79 8.85h151c7.7 0 9.74-1.67 12-9.2a18.43 18.43 0 0113.17-13.14c7.49-2.22 9.16-4.29 9.16-12 0-37.33.27-74.66-.2-112-.11-7.57 3.78-11.29 9.4-15.96z"/><path d="M97.82 159c-8.14-8.58-8.2-8.81-2.45-19.29 2.61-4.75 5.5-9.15 5.43-15.18-.31-27.49-.13-55-.15-82.48 0-1.91-.18-3.82-.28-5.8-1.41-.14-2.23-.29-3-.29-17.66 0-35.33 0-53-.09-2.56 0-3.6.86-4.58 3.34-1.49 3.8-3.25 8-6.16 10.63-4.34 3.86-9.75 6.53-15.3 10.16v136.08c11.25 2.77 18.92 9.34 22.14 20.74.25.91 2.62 1.69 4 1.72 8.66.17 17.32.11 26 .12h29.59a14.42 14.42 0 00.53-2.24c0-17.33.12-34.66-.07-52 0-1.84-1.34-4.03-2.7-5.42zM54.28 45.7a2.42 2.42 0 01.95-.36h.17a166.71 166.71 0 0121.9 0 1 1 0 01.24 0 2.69 2.69 0 011.19.6 4.62 4.62 0 01-.06 7.2 3.58 3.58 0 01-1.29.68.73.73 0 01-.24.07 25.66 25.66 0 01-4.73.37c-1.11 0-2.22 0-3.34-.08l-1.69-.06H63.41l-2.31.1a23.82 23.82 0 01-5.81-.22l-.18-.05a3.42 3.42 0 01-1-.51 4.64 4.64 0 01.17-7.74zm-7.5 17.55c3.48.26 7 0 10.49 0h14.47a20.72 20.72 0 014.46.35c8.32 2 11.38 8.41 10.71 22.37-.37 7.58-5.16 13.3-12.63 13.59-11.46.44-23 .4-34.42 0-6.74-.25-11.2-5.1-12.19-11.79-.24-1.63-.14-3.32-.27-5-1.02-12.9 4.1-20.66 19.38-19.52zM83 208.31a4.72 4.72 0 01-3.35 1.4h-28.1a4.75 4.75 0 110-9.5h28.11a4.74 4.74 0 013.35 8.1zm3.85-30.25a13.65 13.65 0 01-13.65 13.19c-5.49.17-11 0-16.47 0-5.16 0-10.32.12-15.48 0-7.41-.21-12.5-4.82-13.59-12.09a24.61 24.61 0 01-.25-3c-.56-17.44 3.48-21.58 20.94-21.54h22.47c10.74.09 16 5.3 16.06 15.9.03 2.55.12 5.05-.02 7.54zM65.7 145.47c-2.81-.21-5.65 0-8.48 0-5.49 0-11 .14-16.47 0a13 13 0 01-13-11.5 58.15 58.15 0 01-.36-9c.08-10.77 5.16-15.81 16-15.84 9.64 0 19.29-.08 28.94 0 8.89.09 14.08 5.44 14.58 14.24.9 15.55-2.51 23.51-21.21 22.1zM219.36 185.68a31.22 31.22 0 010-4l.12-98.48c0-4.67-2.12-6.57-5.66-5.09-3.12 1.31-3.15 3.84-2.74 6.69.89 6.17-1.77 10.77-7.91 14.09a13 13 0 01-15.28-1.81 27.8 27.8 0 01-3.53-4.63l-43.92 43.91h40.72c7.39 0 10.85 3.4 10.86 10.61q.06 26 0 52c0 7.12-3.29 10.41-10.39 10.44q-26.25.11-52.48 0c-1.92 0-4.51-.17-5.63-1.36-3.86-4.08-8.42-2.9-13.37-2.79v13a14.55 14.55 0 002.13.35c27.16 0 54.32 0 81.48.11 2.87 0 3.6-1.39 4.29-3.67 2.19-7.2 6.43-13.55 13.48-15.74 7.71-2.41 8.67-7.06 7.83-13.63zm-9-8.23a4.7 4.7 0 01-.89 2.75l-.09.13a1.7 1.7 0 01-.15.22 2.09 2.09 0 01-.2.22 1.34 1.34 0 01-.21.2l-.23.18h-.13a4.65 4.65 0 01-2.85 1 4.78 4.78 0 01-4.75-4.75v-9.31a4.75 4.75 0 019.5 0zm0-27.48a4.63 4.63 0 01-.74 2.52.53.53 0 01-.06.1 1.13 1.13 0 01-.12.21 2.43 2.43 0 01-.24.32 2.76 2.76 0 01-.3.29l-.06.05-.14.11h-.06l-.09.07a4.65 4.65 0 01-2.9 1 4.76 4.76 0 01-4.75-4.64v-9.3a4.76 4.76 0 019.51 0z"/><path d="M255.09 29.33C250 15.24 240.3 5.43 226.23.3c-2-.72-5.52-.09-7 1.32a1321.1 1321.1 0 00-31.19 31 6 6 0 00-1.56 4.22c1 10.66-5.23 17.16-15.81 16.81-2-.06-5.17 1.33-5.89 2.91s.37 4.83 1.76 6.29q12.41 13 25.43 25.42c1.64 1.56 4.92 3 6.65 2.4s2.84-3.9 4.2-6c-1.68-10.16 5.6-17 14.89-16a6.62 6.62 0 004.73-1.26 1282.8 1282.8 0 0031.09-31.07 8.12 8.12 0 001.56-7.01zM204 46a4.76 4.76 0 01-6.72 0l-.38-.38a4.76 4.76 0 010-6.72l1.46-1.45.27-.27 4.59-4.6c2.79-2.81 5.58-5.63 8.41-8.41l.77-.76 5.87-5.88a4.78 4.78 0 016.72 0l.38.38a4.78 4.78 0 010 6.72zm34.25-8.58l-21.36 21.4a4.76 4.76 0 01-6.72 0l-.37-.37a4.76 4.76 0 010-6.72l21.37-21.37a4.75 4.75 0 016.71 0l.38.38a4.76 4.76 0 010 6.72z"/><path d="M172.22 35.82c-19 .09-38 .06-57 .09-1.63 0-3.25.16-5.1.25v87.14c5.65-4.84 9.89-7.78 13.46-11.2 12-11.53 23.67-23.46 35.44-35.26 1.36-1.35 2.63-2.79 4-4.26-1.09-1.15-1.87-2-2.68-2.83-5.69-5.79-7-10.71-4.47-16.52 2.9-6.62 7.67-9.28 15.88-8.78 3.45.21 5.52-1.3 5.76-4.72.29-3.88-2.38-3.92-5.29-3.91zM120.15 45.9a4.45 4.45 0 11-1.31 3.1 4.44 4.44 0 011.31-3.1zm8.27 49.88a4.75 4.75 0 01-9.5 0V92c-.14-2.29-.06-4.62 0-6.94V67.67a4.74 4.74 0 018.1-3.36 4.71 4.71 0 011.4 3.36zm9.83-50.46a4.45 4.45 0 017.59 3.15 3.91 3.91 0 010 .49v.05a.88.88 0 010 .28 1.57 1.57 0 01-.05.3.72.72 0 01-.22.37 4.18 4.18 0 01-.74 1.3l-.29.32a4.41 4.41 0 01-2.68 1.29h-.43a4.45 4.45 0 01-3.14-7.6zM145.78 71a4.43 4.43 0 111.31-3.14 4.45 4.45 0 01-1.31 3.14zM137.36 145.93c-3.31.22-8.69 5.9-8.92 9.36-1 14.73-.43 29.57-.43 44.7h54.58v-54.51c-15.35 0-30.34-.57-45.23.45zm2.13 10.19a4.44 4.44 0 11-1.31 3.14 4.43 4.43 0 011.31-3.14zm33.32 33.93a4.72 4.72 0 01-3.35 1.4h-28.11a4.75 4.75 0 110-9.5h28.11a4.74 4.74 0 013.35 8.1zM171.47 80.77l3 3.45a2.32 2.32 0 010 3.06c-.44.48-.9 1-1.38 1.46-11.88 11.89-23.94 23.6-35.55 35.74a52.43 52.43 0 00-8.85 13 22.73 22.73 0 01-9.93 10.24c-2.11 1.07-4.12 2.33-6.18 3.48-6.1 3.41-6.53 3.64-10.67-1.4a2.32 2.32 0 01-.23-2.57c2.88-5.23 5.69-10.65 9-15.78a11.11 11.11 0 015.58-3.84c6.3-2.21 11.27-6 15.89-10.78 11.73-12.06 23.72-23.88 36-36.17a2.33 2.33 0 013.32.11zM68.37 246.55c.46 7.5-.67 8.76-7.53 8.77H30.98c-7.42 0-8.29-.94-7.83-8.77zM223.82 246.61c.42 7.69-.51 8.71-7.86 8.71h-29.92c-6.85 0-8-1.28-7.6-8.71zM110.18 177.75h8.4v17.71h-8.4zM110.34 168.08c-.82-5.47.08-6.46 8.38-9.11v9.11zM57.26 90.64H42.32c-4 0-5.58-1.9-5.77-5.79C36 73 36.46 72.34 48.15 72.34h22.4c5.91 0 7.18 1.35 7.27 7.39v4.48c.19 4.65-2 6.63-6.66 6.48s-9.29 0-13.94 0zM57.72 163.93h14.44c3.67 0 5.52 1.79 5.65 5.43v1.49c.29 11.07-.07 11.42-11.22 11.39-7.8 0-15.6-.11-23.4 0-4.59.07-6.58-1.86-6.68-6.52-.25-11.6-.08-11.89 11.73-11.87h9.46zM56.78 136.39c-4.81 0-9.63-.06-14.44 0-4 .06-5.58-1.94-5.78-5.78-.64-11.89-.16-12.48 11.57-12.47 7.8 0 15.6.13 23.4 0 4.48-.08 6.19 2 6.33 6.32.38 11.54.06 11.94-11.62 11.91z"/></g></g></svg>