<svg xmlns="http://www.w3.org/2000/svg" viewBox="0 0 463.3 511.6" style="fill:#01f603"><g data-name="Capa 2"><g data-name="Capa 1"><circle cx="137.1" cy="328.7" r="18.3"/><path d="M122.3 362.1a36.5 36.5 0 01-8.4-5.4 38 38 0 00-15.5 22.6 63.6 63.6 0 0026.6 12 54.9 54.9 0 01-2.7-29.2z"/><path d="M170.5 343.5a36.2 36.2 0 01-5.3 8.4 38 38 0 0022.6 15.6 63.3 63.3 0 0012-26.6 55.1 55.1 0 01-19.5 3.6 56.5 56.5 0 01-9.8-1zM171.2 315.7a36.6 36.6 0 012.2 9.8 38 38 0 0027-5.1A63.5 63.5 0 00190 293a54.8 54.8 0 01-19 22.7zM100.9 332a38 38 0 00-27 5.1 63.3 63.3 0 0010.3 27.4 54.7 54.7 0 0119-22.7 36.5 36.5 0 01-2.3-9.8zM150.2 362.8a36.4 36.4 0 01-9.8 2.1 37.6 37.6 0 005.1 27 63.3 63.3 0 0027.4-10.3 54.8 54.8 0 01-22.7-18.8z" data-name="Shape"/><path d="M256 447.6a9.1 9.1 0 01-9.1 9.1H27.4a9.1 9.1 0 01-9.1-9.1V27.4a9.1 9.1 0 019.1-9.1H247a9.1 9.1 0 019.1 9.1v8.7a117.5 117.5 0 0117.7-29.7 9.2 9.2 0 00-8.6-6.4H9.1A9.1 9.1 0 000 9.1V466a9.1 9.1 0 009.1 9.1h256a9.2 9.2 0 009.2-9.1V157.2A118.7 118.7 0 01256 127z" data-name="Shape"/><path d="M103.8 314a36.3 36.3 0 015.3-8.4A38 38 0 0086.5 290a63.5 63.5 0 00-12 26.6 55 55 0 0129.3-2.6zM179.4 511.6h61.8l9.2-18.3h-80.2zM33 511.6h62l9-18.3H24zM152 295.4a36 36 0 018.4 5.4 38 38 0 0015.5-22.6 63.6 63.6 0 00-26.6-12 54.8 54.8 0 012.6 29.2zM122.3 179.5a36.5 36.5 0 01-8.5-5.4 38 38 0 00-15.6 22.6 63.7 63.7 0 0026.7 12.1 55 55 0 01-2.7-29.3zM124 294.7a37 37 0 019.9-2.2 37.6 37.6 0 00-5.2-27 63.6 63.6 0 00-27.3 10.4 55 55 0 0122.7 18.8zM103.7 131.4a36.1 36.1 0 015.3-8.5 38 38 0 00-22.6-15.6 63.5 63.5 0 00-12 26.7 55 55 0 0129.3-2.6z" data-name="Shape"/><circle cx="137" cy="146.2" r="18.3" data-name="Oval"/><path d="M124 112.1a36.3 36.3 0 019.8-2.1 37.6 37.6 0 00-5.1-27 63.6 63.6 0 00-27.3 10.3A54.9 54.9 0 01124 112zM103 159.2a36 36 0 01-2.2-9.8 38 38 0 00-27 5.1A63.2 63.2 0 0084.1 182a54.8 54.8 0 0118.9-22.7z" data-name="Shape"/><path d="M237.7 438.5v-402H36.6v402zm-100.6-27.6a82.1 82.1 0 1182.2-82.2 82.2 82.2 0 01-82.2 82.2zM137 64a82.1 82.1 0 11-82.2 82 82.1 82.1 0 0182.2-82zM428 11.8l-1.8 70.6c.2-2.2-2.3 3-6.4 6.4l-45.9 38a18.3 18.3 0 01-23.4 0l-45.8-38.2a18.3 18.3 0 01-6.6-14l.1-65.5a3.7 3.7 0 00-6.2-2.6 100.2 100.2 0 00-5.6 137.7h.1a99.5 99.5 0 0034 25.4 9.1 9.1 0 015.3 8.3l-.2 293.8a36.8 36.8 0 0010 26.7 36 36 0 0027.9 10 36.7 36.7 0 0035.2-36.8V177.9a9.2 9.2 0 015.4-8.3 100.4 100.4 0 0057.8-78c4.3-32-1.5-64.8-24-87a5.4 5.4 0 00-3.1-1.5 6 6 0 00-6.8 6zm-56.6 460a9.2 9.2 0 01-10.5 9 9.3 9.3 0 01-7.8-9.3v-36a9.3 9.3 0 017.8-9.3 9.1 9.1 0 0110.5 9z" data-name="Shape"/><path d="M170.4 161a36.6 36.6 0 01-5.4 8.4 38 38 0 0022.7 15.6 63.5 63.5 0 0012-26.6 55.8 55.8 0 01-19.5 3.6 57.4 57.4 0 01-9.8-1zM150.1 180.2a36.8 36.8 0 01-9.8 2.2 37.6 37.6 0 005.1 27 63.6 63.6 0 0027.4-10.4 54.8 54.8 0 01-22.7-18.8zM151.8 112.8a36.8 36.8 0 018.5 5.4 38 38 0 0015.5-22.6 63.5 63.5 0 00-26.6-12 54.8 54.8 0 012.6 29.2zM173.3 142.9a38 38 0 0027-5 63.4 63.4 0 00-10.3-27.4 55 55 0 01-18.9 22.6 37 37 0 012.2 9.8z" data-name="Shape"/></g></g></svg>