<svg xmlns="http://www.w3.org/2000/svg" viewBox="0 0 512 512" style="fill:#01f603"><path d="M208.7 283.8c-34 24-45.8 65.8-49.3 82.6l28.7 21c7.1-31 23.8-59.2 47.6-80.4a54.3 54.3 0 01-27-23.2zM310.6 261.3c41.6.6 75.8-26.3 88.5-37.9l-11-33.9c-24 21-54 34-85.8 37.2a54.5 54.5 0 018.3 34.6zM281.8 281.9a15.1 15.1 0 10-30.2 0 15.1 15.1 0 0030.2 0zM267.9 309.5c12.2 39.9 48.3 64 63.3 72.5l28.9-20.8a153.4 153.4 0 01-61.9-70.2 55.6 55.6 0 01-30.3 18.5zM215 219.7c-33.4-25-76.8-23.4-93.9-21.5L110 232.1c31.8-2.9 63.8 4.3 91.3 20.4a54.3 54.3 0 0113.7-32.8z"/><circle cx="45.7" cy="45.7" r="9.1"/><circle cx="466.3" cy="466.3" r="9.1"/><path d="M277.9 205.7c13.5-39.4-1.6-80.2-8.6-95.8l-35.7-.1c12.6 29.3 15.7 62 8.8 93.1 11.8-3 24.3-2 35.5 2.8z"/><circle cx="45.7" cy="466.3" r="9.1"/><circle cx="466.3" cy="45.7" r="9.1"/><path d="M256 36.6a219.4 219.4 0 100 438.8 219.4 219.4 0 000-438.8zm0 420.5A201.1 201.1 0 11256 55a201.1 201.1 0 010 402.2z"/><path d="M484.6 0H27.4A27.5 27.5 0 000 27.4v457.2A27.5 27.5 0 0027.4 512h457.2a27.5 27.5 0 0027.4-27.4V27.4A27.5 27.5 0 00484.6 0zM45.7 18.3a27.4 27.4 0 110 54.8 27.4 27.4 0 010-54.8zm0 475.4a27.4 27.4 0 110-54.8 27.4 27.4 0 010 54.8zm420.6 0a27.4 27.4 0 110-54.8 27.4 27.4 0 010 54.8zm-210.3 0a237.7 237.7 0 110-475.4 237.7 237.7 0 010 475.4zM466.3 73.1a27.4 27.4 0 110-54.8 27.4 27.4 0 010 54.8z"/><path d="M256 73.1a182.9 182.9 0 100 365.8A182.9 182.9 0 00256 73zm130 93.7a9.2 9.2 0 0115.2 3.6l17 53c1 3.2.2 6.8-2.2 9.2-8.3 8.2-49.3 46.2-102.4 47C329 324.8 375.2 349 381 352a9.2 9.2 0 011.3 15.7l-45 32.5a9.1 9.1 0 01-9.6.7c-10.4-5.3-59-32.5-76.2-82.9-38.4 28.7-47.2 80.1-48.2 86.5a9.2 9.2 0 01-9.1 7.8c-2 0-3.8-.6-5.4-1.7L144 377.8a9.2 9.2 0 01-3.7-8.8c1.9-11.5 12.7-66.3 55.3-98.2-39.1-27.6-90.8-20-97.1-19a9.2 9.2 0 01-10.3-11.9l17.3-52.8c1.1-3.3 4-5.7 7.3-6.2 11.5-1.8 67-8.4 110.4 22.3 14.2-45.8-8.9-92.6-11.9-98.3a9.2 9.2 0 018.1-13.5l55.6.2c3.5 0 6.6 2 8.2 5 5.3 10.4 28.6 61 13 112 47.7-.7 85.2-37.2 89.7-41.8z"/></svg>