<svg xmlns="http://www.w3.org/2000/svg" width="512" height="512" viewBox="0 0 40 56" style="fill:#01f603"><defs/><path d="M34 50a4 4 0 01-4 4H10a4 4 0 01-4-4v-3H4v3a6 6 0 006 6h20a6 6 0 006-6v-3h-2z"/><path d="M12 47h2v5h-2zM26 47h2v5h-2zM6 9.7V5H3a3 3 0 00-3 3v3h4.7c.7 0 1.3-.6 1.3-1.3zM3 9a1 1 0 110-2 1 1 0 010 2zM16 1a1 1 0 00-2 0v2h2zM26 1a1 1 0 00-2 0v2h2zM34 1a1 1 0 00-2 0v2h2zM34 40.3V45h3a3 3 0 003-3v-3h-4.7c-.7 0-1.3.6-1.3 1.3zm3 .7a1 1 0 110 2 1 1 0 010-2zM8 1a1 1 0 10-2 0v2h2zM6 40.3c0-.7-.6-1.3-1.3-1.3H0v3a3 3 0 003 3h3zM3 43a1 1 0 110-2 1 1 0 010 2z"/><path d="M32 9.7V5H8v4.7C8 11.5 6.5 13 4.7 13H0v24h4.7C6.5 37 8 38.5 8 40.3V45h24v-4.7c0-1.8 1.5-3.3 3.3-3.3H40V13h-4.7A3.3 3.3 0 0132 9.7zM20 42a17 17 0 110-34 17 17 0 010 34z"/><path d="M18.5 29.7A5 5 0 0117 29c-3.6 1-6.2 4-6.6 7.6A15 15 0 0019 40c-1.9-3-2-6.9-.5-10.2zM22.3 29.4a5 5 0 01-1.7.5 8.9 8.9 0 00.8 10 15 15 0 008.5-3.6c-3.6-.9-6.4-3.5-7.6-6.9zM15.6 27.3a5 5 0 01-.5-1.7 8.9 8.9 0 00-10 .8 15 15 0 003.6 8.4 11 11 0 016.9-7.5zM24.4 22.7c.3.5.5 1 .5 1.7a8.9 8.9 0 0010-.8 15 15 0 00-3.6-8.4 11 11 0 01-6.9 7.5zM24.7 26.5A5 5 0 0124 28c1 3.6 4 6.2 7.6 6.6A15 15 0 0035 26a10.7 10.7 0 01-10.2.5zM17.7 20.6a5 5 0 011.7-.5 8.9 8.9 0 00-.8-10 15 15 0 00-8.5 3.6c3.6.9 6.4 3.5 7.6 6.9zM15.3 23.5c.1-.6.4-1 .8-1.5-1-3.6-4-6.2-7.6-6.6A15 15 0 005 24c3-1.9 6.9-2 10.2-.5zM21.5 20.3c.6.1 1 .4 1.5.8 3.6-1 6.2-4 6.6-7.6A15 15 0 0021 10c1.9 3 2 6.9.5 10.2z"/><circle cx="20" cy="25" r="3"/><path d="M37 5h-3v4.7c0 .7.6 1.3 1.3 1.3H40V8a3 3 0 00-3-3zm0 4a1 1 0 110-2 1 1 0 010 2z"/></svg>