<svg xmlns="http://www.w3.org/2000/svg" viewBox="0 0 512 512" style="fill:#01f603"><path d="M82.3 429.7h347.4V82.3H82.3v347.4zm64-329.1a45.7 45.7 0 110 91.4 45.7 45.7 0 010-91.4z"/><path d="M146.3 173.7a27.4 27.4 0 100-54.8 27.4 27.4 0 000 54.8zm-8.4-30.9c.4-1.1 1-2.1 1.9-3a9.1 9.1 0 0114 11.6l-1 1.4a9.6 9.6 0 01-6.5 2.6c-2.4 0-4.8-1-6.5-2.6a9.6 9.6 0 01-2.7-6.5c0-1.2.3-2.4.8-3.5z"/><path d="M512 0H0v512h512V0zm-36.6 137.1a9.1 9.1 0 010 18.3H448v18.3h27.4a9.1 9.1 0 010 18.3H448v18.3h27.4a9.1 9.1 0 010 18.3H448v18.3h27.4a9.1 9.1 0 010 18.2H448v18.3h27.4a9.1 9.1 0 010 18.3H448V320h27.4a9.1 9.1 0 010 18.3H448v18.3h27.4a9.1 9.1 0 010 18.3H448v18.3h27.4a9.1 9.1 0 010 18.2H448v18.3c0 10.1-8.2 18.3-18.3 18.3h-18.3v27.4a9.1 9.1 0 01-18.3 0V448H375v27.4a9.1 9.1 0 01-18.3 0V448h-18.3v27.4a9.1 9.1 0 11-18.3 0V448h-18.3v27.4a9.1 9.1 0 01-18.3 0V448h-18.3v27.4a9.1 9.1 0 01-18.2 0V448h-18.3v27.4a9.1 9.1 0 01-18.3 0V448H192v27.4a9.1 9.1 0 01-18.3 0V448h-18.3v27.4a9.1 9.1 0 01-18.3 0V448H119v27.4a9.1 9.1 0 01-18.3 0V448H82.3c-10.1 0-18.3-8.2-18.3-18.3v-18.3H36.6a9.1 9.1 0 010-18.3H64V375H36.6a9.1 9.1 0 010-18.3H64v-18.3H36.6a9.1 9.1 0 010-18.3H64v-18.3H36.6a9.1 9.1 0 010-18.3H64v-18.3H36.6a9.1 9.1 0 010-18.2H64v-18.3H36.6a9.1 9.1 0 010-18.3H64V192H36.6a9.1 9.1 0 010-18.3H64v-18.3H36.6a9.1 9.1 0 010-18.3H64V119H36.6a9.1 9.1 0 010-18.3H64V82.3C64 72.2 72.2 64 82.3 64h18.3V36.6a9.1 9.1 0 0118.3 0V64H137V36.6a9.1 9.1 0 0118.3 0V64h18.3V36.6a9.1 9.1 0 0118.3 0V64h18.3V36.6a9.1 9.1 0 0118.3 0V64h18.3V36.6a9.1 9.1 0 0118.2 0V64h18.3V36.6a9.1 9.1 0 0118.3 0V64H320V36.6a9.1 9.1 0 0118.3 0V64h18.3V36.6a9.1 9.1 0 0118.3 0V64H393V36.6a9.1 9.1 0 0118.3 0V64h18.3c10.1 0 18.3 8.2 18.3 18.3v18.3h27.4a9.1 9.1 0 010 18.3H448V137h27.4z"/></svg>