<?xml version="1.0" encoding="UTF-8"?>
<svg id="Capa_1" data-name="Capa 1" xmlns="http://www.w3.org/2000/svg" viewBox="0 0 540 387">
  <defs>
    <style>
      .cls-1 {
        fill: #060504;
      }

      .cls-2 {
        fill: #070606;
      }

      .cls-3 {
        fill: #020202;
      }

      .cls-4 {
        fill: #050404;
      }

      .cls-5 {
        fill: #01f603;
      }
    </style>
  </defs>
  <path class="cls-3" d="M461.64,101.47v27.69c-2.81,5.88-7.59,8.17-14.22,7.31v176.51c0,8.2-2.53,10.74-10.67,10.75-5.24,0-10.48,.05-15.72-.02-5.68-.07-8.76-3.17-8.79-8.85-.06-11.98-.06-23.95-.1-35.92,0-.11-.1-.21-.36-.72h-3.77c-28.57,0-57.13,.01-85.7,0-8.59-.01-12.23-3.65-12.25-12.29-.04-10.22-.01-20.44-.01-30.89H127.79v78.51c0,7.44-2.72,10.16-10.11,10.18-5.37,.01-10.73,.04-16.1-.01-5.9-.07-8.96-3.14-8.96-9.05-.03-27.2,0-54.39-.03-81.59-.01-3.81,1.54-6.18,5.42-6.77,4.47,.84,5.82,2.43,5.82,7.1,.02,24.92,.01,49.84,.01,74.76v4.06h12.72v-4.72c0-39.74,0-79.49-.01-119.24,0-11.96-.07-23.92-.1-35.88v-15.51h-12.5v15.51c-.04,17.29-.06,34.58-.12,51.87,0,4.65-1.14,6.03-5.77,7.25-4.14-.85-5.52-3.48-5.5-7.57,.1-22.31,.05-44.62,.05-66.8-.35-.26-.53-.51-.71-.52-10.75-.44-13.52-3.33-13.52-14.16,0-6.11-.05-12.22,.02-18.33,.07-6.58,4.16-10.67,10.74-10.83,3.12-.07,6.24-.01,9.36-.01H387.3c5.48,0,6.76,.88,8.22,5.6-1.52,4.97-2.45,5.62-8.14,5.62H89.84v20.84h4.99c108.91,0,217.82,0,326.73-.01,1.62,0,3.24-.1,4.86-.15h23.73v-20.54h-23.73c-2.84-.05-5.69-.11-8.54-.14-5.18-.03-6.14-.73-7.7-5.64,.82-4.07,3.36-5.67,7.45-5.62,10.41,.12,20.83,.04,31.25,.04,7.39,0,10.05,1.72,12.76,8.18Zm-25.46,210.8v-4.62c0-39.41,.01-78.82,0-118.23-.01-12.34-.07-24.69-.11-37.03v-15.51h-12.49v15.51c-.04,.5-.11,.99-.11,1.49,0,51.88,0,103.76,.01,155.64,0,.94,.19,1.88,.28,2.75h12.42Zm-24.18-45.44v-35.7h-15.5c-24.7-.01-49.4-.01-74.1-.02-.29,.2-.57,.4-.86,.59v35.13h90.46Zm0-47.2v-35.72h-90.48v35.72h90.48Zm0-47.21v-35.71h-15.49c-24.82-.02-49.63-.05-74.45-.05-.2,0-.4,.27-.52,.36v34.82c.29,.2,.57,.4,.85,.59,24.7,0,49.41-.01,74.11-.01h15.5Zm-102.21,50.95v-86.61H128.03v86.61h181.76Z"/>
  <path class="cls-5" d="M450.15,104.65v20.54h-23.73v-20.54h23.73Z"/>
  <path class="cls-5" d="M436.18,307.65v4.62h-12.42c-.09-.87-.28-1.81-.28-2.75-.01-51.88-.01-103.76-.01-155.64,0-.5,.07-.99,.11-1.49h12.49c.04,12.34,.1,24.69,.11,37.03,.01,39.41,0,78.82,0,118.23Z"/>
  <path class="cls-5" d="M436.07,136.88v15.51h-12.49v-15.51h12.49Z"/>
  <path class="cls-5" d="M426.42,104.65v20.54c-1.62,.05-3.24,.15-4.86,.15-108.91,.01-217.82,.01-326.73,.01h-4.99v-20.84H387.38c5.69,0,6.62-.65,8.14-5.62,4.89-.01,9.77-.01,14.66-.02,1.56,4.91,2.52,5.61,7.7,5.64,2.85,.03,5.7,.09,8.54,.14Z"/>
  <path class="cls-5" d="M412,231.13v35.7h-15.49c0-11.9-.01-23.8-.01-35.7h15.5Z"/>
  <path class="cls-5" d="M412,183.91v35.72h-15.5v-35.72h15.5Z"/>
  <path class="cls-5" d="M412,136.71v35.71h-15.5c0-11.9,.01-23.81,.01-35.71h15.49Z"/>
  <path class="cls-5" d="M396.51,136.71c0,11.9-.01,23.81-.01,35.71-24.7,0-49.41,.01-74.11,.01-.28-.19-.56-.39-.85-.59v-34.82c.12-.09,.32-.36,.52-.36,24.82,0,49.63,.03,74.45,.05Zm-17.74,23.36c3.87-.05,6.03-2.29,5.98-5.66-.05-3.31-2.3-5.42-6.17-5.53-3.85-.1-7.71-.02-11.56-.02-4.1,0-8.21-.1-12.3,.03-3.72,.12-6.11,2.51-6.06,5.71,.06,3.06,2.35,5.4,5.88,5.45,8.08,.13,16.16,.14,24.23,.02Z"/>
  <path class="cls-5" d="M396.5,231.13c0,11.9,.01,23.8,.01,35.7h-74.97v-35.13c.29-.19,.57-.39,.86-.59,24.7,.01,49.4,.01,74.1,.02Zm-17.25,25.82c3.49-.08,5.6-2.62,5.49-5.81-.1-3.26-2.21-5.24-5.89-5.32-3.98-.09-7.95-.02-11.93-.02s-8.2-.07-12.3,.02c-3.5,.07-5.86,2.29-5.96,5.35-.09,3.07,2.17,5.71,5.61,5.78,8.32,.17,16.65,.18,24.98,0Z"/>
  <path class="cls-5" d="M396.5,183.91v35.72h-74.98v-35.72h74.98Zm-17.78,23.48c3.9-.07,6.06-2.32,6.04-5.66-.02-3.35-2.22-5.42-6.12-5.52-2.88-.07-5.76-.05-8.64-.04-1.1,.01-2.19,.01-3.29,.01-1.16,0-2.31-.01-3.47-.01-2.7,0-5.4-.03-8.09,.03-4.06,.08-6.52,2.27-6.49,5.61,.03,3.17,2.41,5.52,6.2,5.58,7.95,.14,15.91,.14,23.86,0Z"/>
  <path class="cls-2" d="M384.76,201.73c.02,3.34-2.14,5.59-6.04,5.66-7.95,.14-15.91,.14-23.86,0-3.79-.06-6.17-2.41-6.2-5.58-.03-3.34,2.43-5.53,6.49-5.61,2.69-.06,5.39-.04,8.09-.03,1.16,.01,2.31,.02,3.47,.02,1.1,0,2.19-.01,3.29-.02,2.88,0,5.76-.03,8.64,.04,3.9,.1,6.1,2.17,6.12,5.52Z"/>
  <path class="cls-1" d="M384.75,154.41c.05,3.37-2.11,5.61-5.98,5.66-8.07,.12-16.15,.11-24.23-.02-3.53-.05-5.82-2.39-5.88-5.45-.05-3.2,2.34-5.59,6.06-5.71,4.09-.13,8.2-.03,12.3-.03,3.85,0,7.71-.08,11.56,.02,3.87,.11,6.12,2.22,6.17,5.53Z"/>
  <path class="cls-4" d="M384.74,251.14c.11,3.19-2,5.73-5.49,5.81-8.33,.18-16.66,.17-24.98,0-3.44-.07-5.7-2.71-5.61-5.78,.1-3.06,2.46-5.28,5.96-5.35,4.1-.09,8.2-.02,12.3-.02s7.95-.07,11.93,.02c3.68,.08,5.79,2.06,5.89,5.32Z"/>
  <path class="cls-5" d="M309.79,136.76v86.61H128.03v-86.61h181.76Z"/>
  <path class="cls-5" d="M116.56,307.51v4.72h-12.72v-4.06c0-24.92,.01-49.84-.01-74.76,0-4.67-1.35-6.26-5.82-7.1,.02-4.94,.04-9.87,.05-14.8,4.63-1.22,5.76-2.6,5.77-7.25,.06-17.29,.08-34.58,.12-51.87h12.5c.03,11.96,.1,23.92,.1,35.88,.01,39.75,.01,79.5,.01,119.24Z"/>
  <path class="cls-5" d="M116.45,136.88v15.51h-12.5v-15.51h12.5Z"/>
</svg>