<?xml version="1.0" encoding="utf-8"?>
<!-- Generator: Adobe Illustrator 27.0.0, SVG Export Plug-In . SVG Version: 6.00 Build 0)  -->
<svg version="1.1" id="Capa_1" xmlns="http://www.w3.org/2000/svg" xmlns:xlink="http://www.w3.org/1999/xlink" x="0px" y="0px"
	 viewBox="0 0 540 323.5" style="enable-background:new 0 0 540 323.5;" xml:space="preserve">
<style type="text/css">
	.st0{fill:#020202;}
	.st1{fill:#01F603;}
	.st2{fill:#070606;}
	.st3{fill:#060504;}
	.st4{fill:#050404;}
</style>
<path class="st0" d="M535.2,13.8v38.3c-3.9,8.1-10.5,11.3-19.7,10.1v244.3c0,11.3-3.5,14.9-14.8,14.9c-7.3,0-14.5,0.1-21.8,0
	c-7.9-0.1-12.1-4.4-12.2-12.2c-0.1-16.6-0.1-33.1-0.1-49.7c0-0.2-0.1-0.3-0.5-1H461c-39.5,0-79.1,0-118.6,0c-11.9,0-16.9-5.1-17-17
	c-0.1-14.1,0-28.3,0-42.7H73.2v108.7c0,10.3-3.8,14.1-14,14.1c-7.4,0-14.8,0.1-22.3,0c-8.2-0.1-12.4-4.3-12.4-12.5
	c0-37.6,0-75.3,0-112.9c0-5.3,2.1-8.6,7.5-9.4c6.2,1.2,8.1,3.4,8.1,9.8c0,34.5,0,69,0,103.5v5.6h17.6V299c0-55,0-110,0-165
	c0-16.6-0.1-33.1-0.1-49.7V62.9H40.2v21.5c-0.1,23.9-0.1,47.9-0.2,71.8c0,6.4-1.6,8.3-8,10c-5.7-1.2-7.6-4.8-7.6-10.5
	c0.1-30.9,0.1-61.8,0.1-92.4c-0.5-0.4-0.7-0.7-1-0.7C8.6,61.9,4.8,57.9,4.8,42.9c0-8.5-0.1-16.9,0-25.4c0.1-9.1,5.8-14.8,14.9-15
	c4.3-0.1,8.6,0,13,0h399.7c7.6,0,9.4,1.2,11.4,7.8c-2.1,6.9-3.4,7.8-11.3,7.8H20.7v28.8h6.9c150.7,0,301.4,0,452.2,0
	c2.2,0,4.5-0.1,6.7-0.2h32.8V18.3h-32.8c-3.9-0.1-7.9-0.2-11.8-0.2c-7.2,0-8.5-1-10.7-7.8c1.1-5.6,4.6-7.8,10.3-7.8
	c14.4,0.2,28.8,0.1,43.2,0.1C527.8,2.5,531.5,4.9,535.2,13.8L535.2,13.8z M500,305.6v-6.4c0-54.5,0-109.1,0-163.6
	c0-17.1-0.1-34.2-0.2-51.2V62.9h-17.3v21.5c-0.1,0.7-0.2,1.4-0.2,2.1c0,71.8,0,143.6,0,215.4c0,1.3,0.3,2.6,0.4,3.8H500L500,305.6z
	 M466.5,242.7v-49.4h-21.5c-34.2,0-68.4,0-102.5,0c-0.4,0.3-0.8,0.6-1.2,0.8v48.6H466.5z M466.5,177.4v-49.4H341.3v49.4H466.5z
	 M466.5,112V62.6h-21.4c-34.3,0-68.7-0.1-103-0.1c-0.3,0-0.6,0.4-0.7,0.5v48.2c0.4,0.3,0.8,0.6,1.2,0.8c34.2,0,68.4,0,102.6,0
	L466.5,112L466.5,112z M325.1,182.6V62.7H73.5v119.9H325.1L325.1,182.6z"/>
<path class="st1" d="M519.3,18.3v28.4h-32.8V18.3H519.3z"/>
<path class="st1" d="M500,299.2v6.4h-17.2c-0.1-1.2-0.4-2.5-0.4-3.8c0-71.8,0-143.6,0-215.4c0-0.7,0.1-1.4,0.2-2.1h17.3
	c0.1,17.1,0.1,34.2,0.2,51.2C500,190.1,500,244.6,500,299.2L500,299.2z"/>
<path class="st1" d="M499.8,62.9v21.5h-17.3V62.9H499.8z"/>
<path class="st1" d="M486.5,18.3v28.4c-2.2,0.1-4.5,0.2-6.7,0.2c-150.7,0-301.4,0-452.2,0h-6.9V18.1h411.8c7.9,0,9.2-0.9,11.3-7.8
	c6.8,0,13.5,0,20.3,0c2.2,6.8,3.5,7.8,10.7,7.8C478.6,18.1,482.5,18.2,486.5,18.3L486.5,18.3z"/>
<path class="st1" d="M466.5,193.3v49.4h-21.4c0-16.5,0-32.9,0-49.4L466.5,193.3L466.5,193.3z"/>
<path class="st1" d="M466.5,127.9v49.4h-21.5v-49.4H466.5z"/>
<path class="st1" d="M466.5,62.6V112h-21.5c0-16.5,0-33,0-49.4L466.5,62.6L466.5,62.6z"/>
<path class="st1" d="M445.1,62.6c0,16.5,0,33,0,49.4c-34.2,0-68.4,0-102.6,0c-0.4-0.3-0.8-0.5-1.2-0.8V63c0.2-0.1,0.4-0.5,0.7-0.5
	C376.4,62.5,410.7,62.6,445.1,62.6L445.1,62.6z M420.5,94.9c5.4-0.1,8.3-3.2,8.3-7.8c-0.1-4.6-3.2-7.5-8.5-7.7c-5.3-0.1-10.7,0-16,0
	c-5.7,0-11.4-0.1-17,0c-5.1,0.2-8.5,3.5-8.4,7.9c0.1,4.2,3.3,7.5,8.1,7.5C398.2,95.1,409.4,95.1,420.5,94.9L420.5,94.9z"/>
<path class="st1" d="M445.1,193.3c0,16.5,0,32.9,0,49.4H341.3v-48.6c0.4-0.3,0.8-0.5,1.2-0.8C376.7,193.3,410.9,193.3,445.1,193.3
	L445.1,193.3z M421.2,229c4.8-0.1,7.8-3.6,7.6-8c-0.1-4.5-3.1-7.3-8.2-7.4c-5.5-0.1-11,0-16.5,0c-5.5,0-11.3-0.1-17,0
	c-4.8,0.1-8.1,3.2-8.2,7.4c-0.1,4.2,3,7.9,7.8,8C398.1,229.3,409.7,229.3,421.2,229z"/>
<path class="st1" d="M445.1,127.9v49.4H341.3v-49.4H445.1z M420.5,160.4c5.4-0.1,8.4-3.2,8.4-7.8c0-4.6-3.1-7.5-8.5-7.6
	c-4-0.1-8-0.1-12-0.1c-1.5,0-3,0-4.6,0c-1.6,0-3.2,0-4.8,0c-3.7,0-7.5,0-11.2,0c-5.6,0.1-9,3.1-9,7.8c0,4.4,3.3,7.6,8.6,7.7
	C398.4,160.6,409.5,160.6,420.5,160.4L420.5,160.4z"/>
<path class="st2" d="M428.8,152.6c0,4.6-3,7.7-8.4,7.8c-11,0.2-22,0.2-33,0c-5.2-0.1-8.5-3.3-8.6-7.7c0-4.6,3.4-7.7,9-7.8
	c3.7-0.1,7.5-0.1,11.2,0c1.6,0,3.2,0,4.8,0c1.5,0,3,0,4.6,0c4,0,8,0,12,0.1C425.7,145.1,428.8,148,428.8,152.6L428.8,152.6z"/>
<path class="st3" d="M428.8,87.1c0.1,4.7-2.9,7.8-8.3,7.8c-11.2,0.2-22.4,0.2-33.5,0c-4.9-0.1-8.1-3.3-8.1-7.5
	c-0.1-4.4,3.2-7.7,8.4-7.9c5.7-0.2,11.3,0,17,0c5.3,0,10.7-0.1,16,0C425.6,79.6,428.7,82.5,428.8,87.1L428.8,87.1z"/>
<path class="st4" d="M428.8,221c0.2,4.4-2.8,7.9-7.6,8c-11.5,0.2-23.1,0.2-34.6,0c-4.8-0.1-7.9-3.8-7.8-8c0.1-4.2,3.4-7.3,8.2-7.4
	c5.7-0.1,11.3,0,17,0c5.7,0,11-0.1,16.5,0C425.7,213.7,428.7,216.5,428.8,221L428.8,221z"/>
<path class="st1" d="M325.1,62.7v119.9H73.5V62.7H325.1L325.1,62.7z"/>
<path class="st1" d="M57.6,299v6.5H40v-5.6c0-34.5,0-69,0-103.5c0-6.5-1.9-8.7-8.1-9.8c0-6.8,0.1-13.7,0.1-20.5c6.4-1.7,8-3.6,8-10
	c0.1-23.9,0.1-47.9,0.2-71.8h17.3c0,16.6,0.1,33.1,0.1,49.7C57.6,189,57.6,244,57.6,299z"/>
<path class="st1" d="M57.5,62.9v21.5H40.2V62.9H57.5z"/>
</svg>
