<svg xmlns="http://www.w3.org/2000/svg" viewBox="0 0 512 512" style="fill:#01f603"><path d="M256 201.1c0 10.1-8.2 18.3-18.3 18.3h-73.1c-10.1 0-18.3-8.2-18.3-18.3V183h-45.7v54.8h201.1V183H256V201z"/><path d="M164.6 182.9h73.1v18.3h-73.1zM100.6 109.7h201.1v54.9H100.6zM100.6 475.4h201.1V256H100.6v219.4zm107-66.6a9 9 0 01-1.4 1c-.5.4-1 .7-1.6.9-.5.3-1.1.5-1.7.5-.6.2-1.2.2-1.8.2a9.2 9.2 0 01-6.4-15.6c2.1-2.1 5.2-3 8.2-2.5.6.1 1.2.3 1.7.6.6.2 1.1.4 1.6.8l1.3 1a9 9 0 010 13zM201 274.3a45.7 45.7 0 110 91.4 45.7 45.7 0 010-91.4zM100.6 36.6h201.1v54.9H100.6z"/><path d="M320 0H82.3C72.2 0 64 8.2 64 18.3v475.4c0 10.1 8.2 18.3 18.3 18.3H320c10 0 18.3-8.2 18.3-18.3V18.3C338.3 8.2 330 0 320 0zm0 475.4c0 10.1-8.2 18.3-18.3 18.3H100.6c-10.1 0-18.3-8.2-18.3-18.3V36.6c0-10.1 8.2-18.3 18.3-18.3h201.1c10.1 0 18.3 8.2 18.3 18.3v438.8z"/><circle cx="201.1" cy="320" r="27.4"/><path d="M429.7 0h-78.2c3.3 5.5 5 11.8 5 18.3v475.4c0 6.5-1.7 12.8-5 18.3h78.2c10.1 0 18.3-8.2 18.3-18.3V18.3C448 8.2 439.8 0 429.7 0z"/></svg>