<svg xmlns="http://www.w3.org/2000/svg" viewBox="0 0 23.78 17.05" style="fill:#01f603"><g data-name="Capa 2"><g data-name="Capa 1"><path d="M23.78 14.8a.58.58 0 0 1-.56.28h-1.65c-.15 0-.21 0-.24.18a2.37 2.37 0 0 1-4.6 0 .21.21 0 0 0-.25-.19H8.1c-.17 0-.22 0-.25.2a2.37 2.37 0 0 1-4.59 0c0-.16-.1-.22-.27-.21H.52c-.39 0-.52-.13-.52-.53V2.11c0-.39.12-.52.51-.52h14.84c.38 0 .5.13.5.52v2c0 .18 0 .24.23.24h3.57a.62.62 0 0 1 .59.32l3.46 5.38s0 .09.08.09ZM7.94 2.39H1c-.13 0-.21 0-.21.17v10c0 .15 0 .18.18.17h1.21c.62 0 .61 0 .6.62 0 .14 0 .18-.18.18H1.37c-.18 0-.43-.07-.54 0s0 .36 0 .55.06.21.22.21H3c.17 0 .23-.06.27-.21a2.36 2.36 0 0 1 4.58 0c0 .18.11.22.29.22h6.34c.19 0 .43.06.54 0s0-.37.05-.56-.05-.21-.22-.21h-6c-.55 0-.54 0-.56-.55 0-.22.06-.25.26-.25h6.25c.19 0 .24 0 .24-.24V4.25c0-.21 0-.25-.25-.25H2.13c-.55 0-.54 0-.55-.54 0-.21 0-.26.25-.26h12.66c.18 0 .42.08.53 0s0-.35 0-.53 0-.23-.22-.23ZM20.11 6l-.39-.61a.32.32 0 0 0-.33-.19h-3.27c-.21 0-.26 0-.26.26v8.28c0 .19-.09.44.05.55s.35 0 .53 0 .24 0 .28-.21a2.37 2.37 0 0 1 4.59 0c0 .17.11.22.28.21h1.18c.18 0 .23 0 .22-.21s.05-.43 0-.54-.36 0-.55 0c-.64 0-.63 0-.62-.64 0-.14.06-.16.18-.16h.84c.28 0 .19 0 .19-.2v-1.88c0-.3 0-.31-.31-.31h-5.57c-.37 0-.5-.14-.5-.51V6.46c0-.37.13-.51.5-.51h3Zm2.26 3.56V9.5L20.7 6.86a.24.24 0 0 0-.23-.12h-2.83c-.16 0-.2 0-.2.21v2.34c0 .19 0 .23.23.23h4.7ZM5.56 16.25a1.59 1.59 0 1 0 0-3.17A1.61 1.61 0 0 0 4 14.67a1.59 1.59 0 0 0 1.56 1.58Zm13.44 0a1.59 1.59 0 0 0 1.62-1.56 1.59 1.59 0 1 0-3.18 0A1.59 1.59 0 0 0 19 16.25ZM4.34.8H1.81c-.2 0-.24-.06-.23-.25 0-.56 0-.56.55-.56H6.9c.2 0 .25.05.24.24 0 .56 0 .56-.55.56ZM.4.8C0 .8 0 .8 0 .4S0 0 .39 0s.4 0 .4.4S.79.8.4.8Z" class="cls-1"/><path d="M5.53 15.07c-.37 0-.37 0-.37-.37s0-.42.41-.42.38 0 .38.36c.05.43.05.43-.42.43Zm13.47 0c-.38 0-.38 0-.38-.39s0-.4.41-.4.38 0 .38.39.01.4-.41.4Z" class="cls-1"/></g></g></svg>