<svg xmlns="http://www.w3.org/2000/svg" viewBox="0 0 41.38 24.47" style="fill:#01f603"><g data-name="Capa 2"><g data-name="Capa 1"><path d="M41.38 19.88a1.5 1.5 0 0 1-1.63.9h-1.66c-.7 2.34-2.21 3.74-4.68 3.69s-3.83-1.47-4.49-3.68H16.67c-.69 2.29-2.17 3.69-4.61 3.68s-3.88-1.41-4.56-3.7H5.23a1.23 1.23 0 0 1-1.35-1.35v-3.5H1.34a1.22 1.22 0 1 1 0-2.42H12a1.23 1.23 0 0 0 1.22-.7 1.2 1.2 0 0 0-1.12-1.72H1.31a1.21 1.21 0 1 1 0-2.42h7.12A1.23 1.23 0 0 0 9.74 7.3a1 1 0 0 0-1.19-1H2.48a1.21 1.21 0 0 1-1.26-1.23 1.22 1.22 0 0 1 1.27-1.19h1.37V1.26A1.22 1.22 0 0 1 5.13 0h22v7.08a1.25 1.25 0 0 0 1.37 1.41h8.93a3.9 3.9 0 0 1 3.48 1.91 7.27 7.27 0 0 1 .47 1.23Zm-31.52 0a2.23 2.23 0 1 0 2.25-2.22 2.24 2.24 0 0 0-2.25 2.18Zm21.42 0a2.22 2.22 0 1 0 2.24-2.22 2.23 2.23 0 0 0-2.24 2.18Z"/><path d="M29.52 6V.28c3.32.63 5.1 3 6.62 5.76Z"/></g></g></svg>