<svg xmlns="http://www.w3.org/2000/svg" viewBox="0 0 512 512" style="fill:#01f603"><path d="M201.1 100.6a9.1 9.1 0 01-9.1 9.1v64h27.4v-128h-18.3v54.9zM192 201.1a9.1 9.1 0 01-9.1 9.2h-36.6a9.1 9.1 0 01-9.2-9.2V192h-27.4v109.7h109.7V192H192v9.1zM201.1 9.1h18.3v18.3h-18.3zM146.3 45.7h36.6v45.7h-36.6zM118.1 411.4H211l1.5-18.3h-95.9zM115.1 374.9h99l1.5-18.3h-102zM112 338.3h105.1l1.5-18.3H110.5zM137.1 109.7a9.1 9.1 0 01-9.1-9.1V45.7h-18.3v128h27.4v-64zM146.3 0h36.6v27.4h-36.6zM109.7 9.1H128v18.3h-18.3zM137.1 429.7V512H192v-82.3zM211 420.6v-9.2zM155.4 109.7h18.3V192h-18.3zM320 109.7a9.1 9.1 0 01-9.1-9.1V45.7h-18.3v128H320v-64zM329.1 45.7h36.6v45.7h-36.6zM329.1 0h36.6v27.4h-36.6zM292.6 9.1h18.3v18.3h-18.3zM338.3 109.7h18.3V192h-18.3zM384 9.1h18.3v18.3H384zM374.9 201.1a9.1 9.1 0 01-9.2 9.2h-36.6a9.1 9.1 0 01-9.1-9.2V192h-27.4v109.7h109.7V192h-27.4v9.1zM384 100.6a9.1 9.1 0 01-9.1 9.1v64h27.4v-128H384v54.9zM294.9 338.3H400l1.5-18.3H293.4zM320 429.7V512h54.9v-82.3zM393.9 420.6v-9.2zM301 411.4h92.9l1.5-18.3h-95.9zM297.9 374.9h99l1.5-18.3h-102z"/></svg>