<svg xmlns="http://www.w3.org/2000/svg" width="512" height="512" style="fill:#01f603"><path d="M403.4 473.5l-15.6 15.6h48.9c3.5 0 6.6-2 8.2-5l6.6-13.2h-41.6c-2.5 0-4.8 1-6.5 2.6z"/><path d="M474.3 254.1a9.2 9.2 0 00-6.4-2.7H44c-2.4 0-4.7 1-6.4 2.7l-35 35a9.1 9.1 0 00-2.7 6.5v112.8c0 2.4 1 4.8 2.7 6.5l35 35c1.7 1.7 4 2.7 6.4 2.7h58c7.3 0 14.3 2.8 19.4 8l25.9 25.9c1.7 1.7 4 2.6 6.5 2.6H358c2.5 0 4.8-1 6.5-2.6l25.9-25.9c5-5.2 12-8 19.4-8h58c2.4 0 4.7-1 6.4-2.7l35-35c1.7-1.7 2.7-4 2.7-6.5V295.6c0-2.4-1-4.8-2.7-6.5zM73.1 352c0-5 4.1-9.1 9.2-9.1h18.3a9.1 9.1 0 010 18.2H82.3c-5 0-9.2-4-9.2-9.1zm9.2 27.4c0 5-4.1 9.2-9.2 9.2H55a9.1 9.1 0 010-18.3H73c5 0 9.2 4 9.2 9.1zm18.3-9.1h18.3a9.1 9.1 0 010 18.3h-18.3a9.1 9.1 0 010-18.3zm18.3-18.3c0-5 4-9.1 9.1-9.1h18.3a9.1 9.1 0 010 18.2H128c-5 0-9.1-4-9.1-9.1zm27.4 18.3h18.3a9.1 9.1 0 010 18.3h-18.3a9.1 9.1 0 010-18.3zm18.3-18.3c0-5 4-9.1 9.1-9.1H192a9.1 9.1 0 010 18.2h-18.3c-5 0-9.1-4-9.1-9.1zm27.4 18.3h18.3a9.1 9.1 0 010 18.3H192a9.1 9.1 0 010-18.3zm18.3-18.3c0-5 4-9.1 9.1-9.1h18.3a9.1 9.1 0 010 18.2h-18.3c-5 0-9.1-4-9.1-9.1zm27.4 18.3H256a9.1 9.1 0 010 18.3h-18.3a9.1 9.1 0 010-18.3zm0-36.6a9.1 9.1 0 010-18.3H256a9.1 9.1 0 010 18.3zM219.4 288h18.3a9.1 9.1 0 010 18.3h-18.3a9.1 9.1 0 010-18.3zm0 36.6c0 5-4 9.1-9.1 9.1H192a9.1 9.1 0 010-18.3h18.3c5 0 9.1 4.1 9.1 9.2zM173.7 288H192a9.1 9.1 0 010 18.3h-18.3a9.1 9.1 0 010-18.3zm0 36.6c0 5-4 9.1-9.1 9.1h-18.3a9.1 9.1 0 010-18.3h18.3c5 0 9.1 4.1 9.1 9.2zM128 288h18.3a9.1 9.1 0 010 18.3H128a9.1 9.1 0 010-18.3zm0 36.6c0 5-4 9.1-9.1 9.1h-18.3a9.1 9.1 0 010-18.3h18.3c5 0 9.1 4.1 9.1 9.2zM82.3 288h18.3a9.1 9.1 0 010 18.3H82.3a9.1 9.1 0 010-18.3zm0 36.6c0 5-4.1 9.1-9.2 9.1H55a9.1 9.1 0 010-18.3H73c5 0 9.2 4.1 9.2 9.2zM36.6 288h18.3a9.1 9.1 0 010 18.3H36.6a9.1 9.1 0 010-18.3zm0 54.9h18.3a9.1 9.1 0 010 18.2H36.6a9.1 9.1 0 010-18.2zM54.9 416H36.6a9.1 9.1 0 010-18.3h18.3a9.1 9.1 0 010 18.3zm45.7 0H82.3a9.1 9.1 0 010-18.3h18.3a9.1 9.1 0 110 18.3zm91.4 0h-64a9.1 9.1 0 010-18.3h64a9.1 9.1 0 010 18.3zm45.7 0h-18.3a9.1 9.1 0 010-18.3h18.3a9.1 9.1 0 010 18.3zm45.7 0h-18.3a9.1 9.1 0 010-18.3h18.3a9.1 9.1 0 010 18.3zm0-54.9h-18.3a9.1 9.1 0 010-18.2h18.3a9.1 9.1 0 010 18.2zm0-54.8h-18.3a9.1 9.1 0 010-18.3h18.3a9.1 9.1 0 010 18.3zM329.1 416H311a9.1 9.1 0 010-18.3H329a9.1 9.1 0 010 18.3zm0-27.4H311a9.1 9.1 0 010-18.3H329a9.1 9.1 0 010 18.3zm9.2-36.6a9.1 9.1 0 01-18.3 0v-45.7h-9.1a9.1 9.1 0 010-18.3H329c5 0 9.2 4 9.2 9.1zM457 278.9a9.1 9.1 0 110 18.2 9.1 9.1 0 010-18.2zm-36.5 0a9.1 9.1 0 110 18.2 9.1 9.1 0 010-18.2zM384 416h-18.3a9.1 9.1 0 010-18.3H384a9.1 9.1 0 010 18.3zm0-27.4h-18.3a9.1 9.1 0 010-18.3H384a9.1 9.1 0 010 18.3zm0-27.5h-18.3a9.1 9.1 0 010-18.2H384a9.1 9.1 0 010 18.2zm0-27.4h-18.3a9.1 9.1 0 010-18.3H384a9.1 9.1 0 010 18.3zm0-36.6a9.1 9.1 0 110-18.2 9.1 9.1 0 010 18.2zM429.7 416h-18.3a9.1 9.1 0 010-18.3h18.3a9.1 9.1 0 010 18.3zm0-27.4h-18.3a9.1 9.1 0 010-18.3h18.3a9.1 9.1 0 010 18.3zm0-27.5h-18.3a9.1 9.1 0 010-18.2h18.3a9.1 9.1 0 010 18.2zm0-27.4h-18.3a9.1 9.1 0 010-18.3h18.3a9.1 9.1 0 010 18.3zm45.7 82.3h-18.3a9.1 9.1 0 010-18.3h18.3a9.1 9.1 0 010 18.3zm0-27.4h-18.3a9.1 9.1 0 010-18.3h18.3a9.1 9.1 0 010 18.3zm0-27.5h-18.3a9.1 9.1 0 010-18.2h18.3a9.1 9.1 0 010 18.2zm0-27.4h-18.3a9.1 9.1 0 010-18.3h18.3a9.1 9.1 0 010 18.3zM268.3 213a9.1 9.1 0 00-9-7.3h-6.6c-4.3 0-8 3-9 7.3l-4 20.1h32.6z"/><path d="M102.1 470.9H60.5l6.6 13.2c1.6 3 4.7 5 8.2 5h49l-15.7-15.6a9.2 9.2 0 00-6.5-2.6zM246.9 187.4V160a27.4 27.4 0 0127.4-27.4h9.1a9.1 9.1 0 000-18.3h-54.8a27.4 27.4 0 010-54.9h9.1c5 0 9.2-4 9.2-9.1V32a9.1 9.1 0 0118.2 0v18.3a27.4 27.4 0 01-27.4 27.4h-9.1a9.1 9.1 0 000 18.3h54.8a27.4 27.4 0 010 54.9h-9.1c-5 0-9.2 4-9.2 9.1v27.4H247z"/></svg>