<svg xmlns="http://www.w3.org/2000/svg" width="512" height="512" viewBox="0 0 60 60" style="fill:#01f603"><path d="M22.8 3.7a2 2 0 012-1.7h10.5a2 2 0 012 1.7 12.3 12.3 0 004.1 7.5L38 14.7C36.8 14 34.4 13 30 13s-6.8 1-7.9 1.7l-3.5-3.5a12.3 12.3 0 004.2-7.5zM37 34a1 1 0 011 1v3H22v-3a1 1 0 011-1zM23 32V16.5c.7-.5 2.8-1.5 7-1.5s6.3 1 7 1.5V32zM17.1 12.5l3.9 4v16.3a3 3 0 00-1 2.2v3h-3v-4a2 2 0 002-2v-3a2 2 0 00-2-2v-3a11.4 11.4 0 00-1.3-5.2A6.2 6.2 0 0115 16c0-1.4.8-2.3 2.1-3.5zM15 47a1 1 0 01-2 0V34h2z"/><path d="M16 32h-5v-3h6v3zM40.3 56.1a1 1 0 01-.2 1.9H19.9a1 1 0 01-.9-1 1 1 0 01.7-.9l7.6-2a1 1 0 00.7-1V48h4v5.1a1 1 0 00.7 1zM17 40h26v6H17zM43 38h-3v-3a3 3 0 00-1-2.2V16.4l3.9-3.9c1.3 1.2 2.1 2.1 2.1 3.5a6.2 6.2 0 01-.7 2.8A11.4 11.4 0 0043 24v3a2 2 0 00-2 2v3a2 2 0 002 2zM47 47a1 1 0 01-2 0V34h2z"/><path d="M48 32h-5v-3h6v3z"/></svg>