<svg xmlns="http://www.w3.org/2000/svg" viewBox="0 0 512 512" style="fill:#01f603"><path d="M420.6 0H91.4c-10 0-18.2 8.2-18.3 18.3v475.4c0 10.1 8.2 18.3 18.3 18.3h329.2c10 0 18.2-8.2 18.3-18.3V18.3c0-10.1-8.2-18.3-18.3-18.3zM94 21c2.2-2.2 5.2-3 8.2-2.5.6 0 1.2.2 1.7.5a7 7 0 011.7.8L107 21a9.3 9.3 0 010 13l-1.4 1.1a7 7 0 01-1.7.8c-.5.3-1 .5-1.7.6l-1.7.2a9 9 0 01-9.2-9.2c0-2.4 1-4.7 2.7-6.5zm13 470a9.5 9.5 0 01-6.5 2.7c-1.2 0-2.4-.2-3.5-.7-1.1-.4-2.2-1-3-2a9.3 9.3 0 010-13c2.2-2 5.2-3 8.2-2.4.6 0 1.2.3 1.7.6a7 7 0 011.7.8l1.4 1a9.3 9.3 0 010 13zm313.3-4.6c-.1.6-.3 1.1-.6 1.6-.2.6-.4 1.2-.8 1.7l-1 1.4-1.5 1a7 7 0 01-1.6.9c-.5.3-1.1.4-1.7.5l-1.8.2c-.6 0-1.1 0-1.7-.2-.6 0-1.2-.2-1.7-.5a7 7 0 01-1.7-.8L405 491a9.4 9.4 0 01-2.6-6.5 9.4 9.4 0 012.7-6.5 9.6 9.6 0 0113 0l1 1.4c.4.5.7 1 .8 1.6a9.1 9.1 0 01.6 5.3zm.2-257.8a9.1 9.1 0 01-9.2 9.1 18.3 18.3 0 000 36.6 9.1 9.1 0 019.2 9.1v137.2c0 2.4-1 4.7-2.7 6.4l-64 64a9.1 9.1 0 01-6.5 2.7H164.6c-2.5 0-4.8-1-6.5-2.7l-64-64a9.1 9.1 0 01-2.7-6.4V283.4a9.1 9.1 0 019.2-9.1 18.3 18.3 0 000-36.6 9.1 9.1 0 01-9.2-9.1V91.4c0-2.4 1-4.7 2.7-6.4l64-64c1.7-1.7 4-2.7 6.5-2.7h182.8c2.5 0 4.8 1 6.5 2.7l64 64c1.7 1.7 2.7 4 2.7 6.4v137.2zm-.2-199.4c-.1.6-.3 1.2-.6 1.7-.1.6-.4 1-.8 1.6l-1 1.4-1.5 1.1a7 7 0 01-1.6.8c-.5.3-1.1.5-1.7.6l-1.8.2a9 9 0 01-9.1-9.2c0-2.4 1-4.7 2.6-6.5l1.4-1a7 7 0 011.7-.9c.5-.3 1-.4 1.7-.5 1.1-.3 2.3-.3 3.5 0 .6 0 1.2.2 1.7.5a7 7 0 011.6.8L418 21l1.1 1.4c.4.5.6 1 .8 1.7.3.5.5 1 .6 1.6l.2 1.8-.2 1.8z"/><path d="M182.9 301c0 3.1 1.5 6 4 7.7l69.6 46.3c1.5 1 3.2 1.6 5 1.6h67.6v-18.3h-54.8a9.1 9.1 0 010-18.3H329V155.5H183V301zM283.4 183a9.1 9.1 0 0118.3 0V201a9.1 9.1 0 01-18.3 0V183zm-36.5 0a9.1 9.1 0 0118.2 0V201a9.1 9.1 0 01-18.2 0V183zm-36.6 0a9.1 9.1 0 0118.3 0V201a9.1 9.1 0 01-18.3 0V183zM182.9 73.1v27.5h27.4a9.1 9.1 0 0118.3 0h18.3a9.1 9.1 0 0118.2 0h18.3a9.1 9.1 0 0118.3 0h27.5V73H182.8z"/><path d="M168.4 36.6l-58.7 58.6v125.4a36.6 36.6 0 010 70.8v125.4l58.7 58.6h175.2l58.7-58.6V291.4a36.6 36.6 0 010-70.8V95.2l-58.7-58.6H168.4zm5.3 402.3a45.7 45.7 0 110-91.5 45.7 45.7 0 010 91.5zm173.7-82.3c0 10-8.2 18.2-18.3 18.3h-67.6c-5.4 0-10.7-1.6-15.2-4.7L176.8 324a27.4 27.4 0 01-12.2-22.8V155.4c0-10 8.2-18.2 18.3-18.3H329c10.1 0 18.3 8.2 18.3 18.3v201.2zm0-256c0 10-8.2 18.2-18.3 18.3H183c-10.1 0-18.3-8.2-18.3-18.3V73c0-10 8.2-18.2 18.3-18.2H329c10.1 0 18.3 8.1 18.3 18.2v27.5z"/><path d="M173.7 365.7a27.4 27.4 0 100 54.9 27.4 27.4 0 000-54.9zm9 29.3c-.1.5-.3 1.1-.6 1.6a7 7 0 01-.8 1.7l-1 1.3a9.3 9.3 0 01-14.2-1.3l-.8-1.7a6 6 0 01-.5-1.6 9.1 9.1 0 1118 0z"/></svg>