<svg xmlns="http://www.w3.org/2000/svg" fill="#01f603" image-rendering="optimizeQuality" shape-rendering="geometricPrecision" text-rendering="geometricPrecision" viewBox="0 0 800 310.4" style="width:45%"><g data-name="Capa 1"><path d="M0 4.3h57.9v57.9H0zM56.5 306V97.5H1.6V306zm364.3 2v-51a126.8 126.8 0 01-19.8-1.3c-5.8-.8-10.1-2.8-13-5.7s-4.7-7-5.8-12.4a132.6 132.6 0 01-1.2-20.2v-73h39.8v-47H381V16.2h-55v201.7c0 17.1 1.4 31.6 4.3 43.1 3 11.3 7.9 20.6 14.7 27.6s15.8 12 26.7 15c11.2 3.1 25.2 4.6 41.9 4.6zm314.9-2V0h-55v306zM273.1 117.9C257.8 101.4 236.4 93 209 93a80.6 80.6 0 00-36 8 77.2 77.2 0 00-27.2 22.3l-3 4v-30H88.5V306h54.6V198.9c.6-19.6 5.4-34 14.5-43.3a47.3 47.3 0 0134.8-14.8c15.8 0 28 4.9 36 14.4 7.9 9.5 12 22.9 12 40v110.6H296V187.5c.1-29.6-7.7-53.1-23-69.6zm379.1 83.4a115 115 0 00-7.8-42.2 113.2 113.2 0 00-22-34.4 100.4 100.4 0 00-34-23.1 111.4 111.4 0 00-43.7-8.3 108.4 108.4 0 00-42.4 8.5 111.1 111.1 0 00-34.4 23 107.4 107.4 0 00-23.1 34.5 104.8 104.8 0 00-8.5 42.4 111.9 111.9 0 008 42.5 106 106 0 0022.5 34.4 102.8 102.8 0 0034.8 23.1 113.8 113.8 0 0044.7 8.7c46.6 0 75.4-21.3 92.8-41l-39.6-30.1a72.1 72.1 0 01-52.8 23.3 62.2 62.2 0 01-37.9-10.8 52.8 52.8 0 01-19.8-29l-.6-1.9h163.8v-19.6zm-163.4-19.1c0-15.3 17.5-41.9 55.2-42 37.8 0 55.5 26.6 55.5 41.8zm309.6 96.6a20.5 20.5 0 00-10.8-10.7 20.6 20.6 0 00-7.8-1.6 19.8 19.8 0 00-7.8 1.6 20.4 20.4 0 00-10.7 10.7 20.5 20.5 0 00-1.7 7.9 20.4 20.4 0 0012.4 18.5 20.6 20.6 0 007.8 1.6 19.8 19.8 0 007.9-1.6 20.4 20.4 0 0010.7-10.7 19.4 19.4 0 000-15.7zm-3.3 14.4a15.6 15.6 0 01-9 9 17 17 0 01-6.5 1.2 17.8 17.8 0 01-6.6-1.3 15.7 15.7 0 01-8.9-8.9 17.1 17.1 0 01-1.2-6.5 18 18 0 011.2-6.6 16.2 16.2 0 013.5-5.4 16 16 0 015.4-3.5 17.2 17.2 0 016.6-1.2 18 18 0 016.6 1.2 15.6 15.6 0 018.9 8.9 17 17 0 011.2 6.6 13.8 13.8 0 01-1.3 6.6zm-11.6-4.9a6.4 6.4 0 004-1.9 6 6 0 001.6-4.5 6.3 6.3 0 00-2-5.1c-1.3-1.3-3.6-1.9-6.3-1.9h-9v23.3h4.3v-9.5h3l5.9 9.5h4.5zm-2.2-3.3H776v-6.6h5.2a6 6 0 011.8.4 2 2 0 011.2 1 4.2 4.2 0 01.5 1.9 4.3 4.3 0 01-.5 1.8 5.6 5.6 0 01-1.2 1 6.2 6.2 0 01-1.9.5z"/></g></svg>