<svg xmlns="http://www.w3.org/2000/svg" viewBox="0 0 504.1 504.1" style="fill:#01f603"><path d="M165.6 247l14.1 14.2-14.1 14.1-14.2-14.1zM56.4 356.3l14.2 14.1 14.1-14.1-14.1-14.1zM308.2 199.5l14.2 14.1-14 14.2-14.3-14zM355.8 152l14.2 14-14 14.3-14.3-14.1zM260.8 247l14.1 14.2-14.1 14.2-14.2-14.2zM308.3 104.4l14.2 14-14.1 14.3-14.2-14.1zM260.7 151.9L275 166l-14.2 14.1-14.1-14.1zM213.2 199.5l14.1 14.1-14.1 14.2-14.1-14.2zM165.7 370.5l-14.2-14.2 14.2-14.1 14.1 14.1zM118 294.6l14.2 14.2-14.1 14.1-14.2-14.1zM355.8 56.9l61.7 61.6-14.1 14.2L341.7 71zM213.2 294.6l14.2 14.1-14.2 14.2-14.1-14.2zM403.4 227.8l-14.1-14.2 14.1-14.1 14.1 14.1zM450.8 180.2L436.7 166l14.1-14.1L465 166zM156.4 189.4l16.8-16.6-17-11.4-11.1 11.1z"/><path d="M501.2 160L361.9 20.6a8.4 8.4 0 00-6-2.5c-2.4 0-4.6.9-6.2 2.5L193 177.5l-31.8 31.7-141 141a8.7 8.7 0 000 12.3l139.3 139.1a8.8 8.8 0 0012.3 0l329.4-329.4c3.4-3.4 3.4-8.9 0-12.3zM329.4 58.6l14.1-14.1a17.4 17.4 0 0124.6 0l61.7 61.7a17.4 17.4 0 010 24.5L415.6 145a17.5 17.5 0 01-24.5 0l-61.7-61.7a17.4 17.4 0 010-24.6zM186.8 321a17.4 17.4 0 010-24.6l14.1-14a17.4 17.4 0 0124.6 0l14 14a17.4 17.4 0 010 24.6l-14 14.1a17.3 17.3 0 01-24.6 0L186.8 321zm10.3 35.3c0 4.6-1.8 9-5 12.2l-14.2 14.2a17.3 17.3 0 01-24.5 0l-14.2-14.2a17.3 17.3 0 010-24.6l14.2-14a17.4 17.4 0 0124.5 0l14.2 14c3.2 3.4 5 7.8 5 12.4zm37.2-82.9a17.3 17.3 0 010-24.5l14.2-14.1a17.3 17.3 0 0124.5 0l14.1 14.1a17.3 17.3 0 010 24.5L273 287.6a17.2 17.2 0 01-24.5 0l-14.2-14.2zM282 226a17.4 17.4 0 010-24.5l14-14.2a17.4 17.4 0 0124.6 0l14.2 14.2a17.4 17.4 0 010 24.5L320.5 240a17.3 17.3 0 01-24.5 0l-14.1-14zm47.5-47.5a17.5 17.5 0 010-24.6l14.1-14.1a17.4 17.4 0 0124.6 0l14.1 14.1a17.3 17.3 0 010 24.6l-14.1 14.1a17.5 17.5 0 01-24.6 0l-14.1-14.1zm-47.5-72.1l14-14.2a17.4 17.4 0 0124.6 0l14.2 14.2a17.4 17.4 0 010 24.5L320.5 145a17.4 17.4 0 01-24.6 0l-14-14.2a17.2 17.2 0 010-24.5zm-47.6 47.5l14.2-14.1a17.3 17.3 0 0124.5 0l14.1 14.1a17.3 17.3 0 010 24.6L273 192.5a17.4 17.4 0 01-24.5 0l-14.2-14.1a17.3 17.3 0 010-24.6zm-47.5 47.6l14.1-14.2a17.4 17.4 0 0124.6 0l14 14.2a17.4 17.4 0 010 24.5l-14 14.1a17.3 17.3 0 01-24.6 0l-14.1-14a17.4 17.4 0 010-24.6zm-47.6 47.5l14.2-14.1a17.4 17.4 0 0124.5 0l14.2 14.1a17.3 17.3 0 010 24.5l-14.2 14.2a17.3 17.3 0 01-24.5 0l-14.2-14.2a17.3 17.3 0 010-24.5zm-47.5 47.5l14.1-14a17.4 17.4 0 0124.6 0l14.1 14a17.4 17.4 0 010 24.6L130.4 335a17.3 17.3 0 01-24.6 0L91.7 321a17.4 17.4 0 010-24.6zm-21.1 91.4c-4.6 0-9-1.8-12.3-5.1L44 368.5a17.5 17.5 0 010-24.5l14.2-14.2a17.9 17.9 0 0124.5 0L97 344a17.3 17.3 0 010 24.5l-14.2 14.2a17.2 17.2 0 01-12.2 5zm47.5 47.5c-4.6 0-9-1.8-12.3-5L91.7 416a17.4 17.4 0 010-24.6l14.1-14.1a17.4 17.4 0 0124.6 0l14.1 14.1a17.4 17.4 0 010 24.6l-14.1 14.1c-3.3 3.3-7.7 5.1-12.3 5zm74 28.3l-14.2 14.2a17.5 17.5 0 01-24.5 0l-14.2-14.2a17.4 17.4 0 010-24.5l14.2-14.2a17.4 17.4 0 0124.5 0l14.2 14.2a17.4 17.4 0 010 24.5zm47.5-47.5l-14.1 14.1a17.4 17.4 0 01-24.6 0l-14.1-14.1a17.4 17.4 0 010-24.6l14.1-14.1a17.4 17.4 0 0124.6 0l14 14.1a17.2 17.2 0 010 24.6zm142.6-142.7L273 382.7a17.2 17.2 0 01-24.5 0l-14.2-14.2a17.3 17.3 0 010-24.6l109.2-109.1a17.4 17.4 0 0124.6 0l14.1 14.1a17.3 17.3 0 010 24.5zm47.6-47.5L415.6 240a17.3 17.3 0 01-24.5 0l-14.2-14a17.4 17.4 0 010-24.6l14.2-14.2a17.4 17.4 0 0124.5 0l14.2 14.2a17.4 17.4 0 010 24.5zm47.5-47.5l-14.1 14.1a17.5 17.5 0 01-24.6 0l-14.1-14.1a17.4 17.4 0 010-24.6l14.1-14.1a17.4 17.4 0 0124.6 0l14.1 14.1a17.5 17.5 0 010 24.6z"/><path d="M213.2 418L199 403.9l14.2-14.2 14 14.2zM260.7 370.4l-14.1-14.1L355.8 247l14.1 14.2zM118 418l-14-14.2 14.2-14.1 14 14.2zM165.6 465.4l-14-14 14.1-14.2 14 14.1zM122.5 47.5c5.7 14.3.7 25.3-5.2 38-9 19.6-20.2 43.8 16 77.9a8.7 8.7 0 0014-3.2c1.3-3.3.5-7-2.1-9.5-27.1-25.4-20.8-39-12.2-57.9 6.6-14.3 14.1-30.5 5.6-51.8C119.4-7 19.6 0 8.3 1a8.7 8.7 0 001.5 17.3c27.2-2.3 100.4-1.4 112.7 29.3z"/></svg>