<svg xmlns="http://www.w3.org/2000/svg" width="512" height="512" viewBox="0 0 60 60" style="fill:#01f603"><defs/><path d="M37 52H23a1 1 0 00-1 1v5h16v-5a1 1 0 00-1-1z"/><path d="M8 57a1 1 0 001 1h11v-5a3 3 0 013-3h14a3 3 0 013 3v5h11a1 1 0 001-1V31H8zm8-10h-4a1 1 0 010-2h4a1 1 0 010 2zm8-8h-4a1 1 0 010-2h4a1 1 0 010 2zm4 2a1 1 0 010 2h-4a1 1 0 010-2zm-8 0a1 1 0 010 2h-4a1 1 0 010-2zm20 6H20a1 1 0 010-2h20a1 1 0 010 2zm-9-5a1 1 0 011-1h4a1 1 0 010 2h-4a1 1 0 01-1-1zm8 0a1 1 0 011-1h4a1 1 0 010 2h-4a1 1 0 01-1-1zm9 5h-4a1 1 0 010-2h4a1 1 0 010 2zm0-8h-4a1 1 0 010-2h4a1 1 0 010 2zm-1-6h2a1 1 0 010 2h-2a1 1 0 010-2zm-6 0h2a1 1 0 010 2h-2a1 1 0 010-2zm0 5a1 1 0 01-1 1h-4a1 1 0 010-2h4a1 1 0 011 1zm-6-5h2a1 1 0 010 2h-2a1 1 0 010-2zm-6 0h2a1 1 0 010 2h-2a1 1 0 010-2zm-1 4h4a1 1 0 010 2h-4a1 1 0 010-2zm-5-4h2a1 1 0 010 2h-2a1 1 0 010-2zm-6 0h2a1 1 0 010 2h-2a1 1 0 010-2zm0 5a1 1 0 01-1 1h-4a1 1 0 010-2h4a1 1 0 011 1zm-6-5h2a1 1 0 010 2h-2a1 1 0 010-2zM8 29h44V6H8zm2.3-18.7l2-2a1 1 0 011.4 1.4l-2 2a1 1 0 01-1.4-1.4zm0 5l7-7a1 1 0 011.4 1.4l-7 7a1 1 0 01-1.4-1.4zM51 2H9a1 1 0 00-1 1v1h44V3a1 1 0 00-1-1z"/></svg>