<svg xmlns="http://www.w3.org/2000/svg" viewBox="0 0 512 512" style="fill:#01f603"><path d="M411.4 393.1V109.7c0-5-4-9.1-9.1-9.1H109.7c-5 0-9.1 4-9.1 9.1v283.4c0 5 4 9.2 9.1 9.2h292.6c5 0 9.1-4.1 9.1-9.2zM256 137.1c46.1 0 82.3 24.1 82.3 54.9a9.1 9.1 0 01-18.3 0c0-19.8-29.3-36.6-64-36.6s-64 16.8-64 36.6 29.3 36.6 64 36.6a9.1 9.1 0 010 18.3c-46.1 0-82.3-24.1-82.3-54.9 0-30.8 36.2-54.9 82.3-54.9zm91.4 219.5H164.6a27.4 27.4 0 010-54.9h182.8a27.4 27.4 0 010 54.9z"/><path d="M347.4 320H164.6a9.1 9.1 0 000 18.3h182.8a9.1 9.1 0 000-18.3z"/><path d="M429.7 64H82.3C72.2 64 64 72.2 64 82.3v347.4c0 10.1 8.2 18.3 18.3 18.3H160c7.6 0 13.7-6.1 13.7-13.7 0-4.8 1.1-9.5 3.2-13.7h-67.2A27.5 27.5 0 0182.3 393V109.7a27.5 27.5 0 0127.4-27.4h292.6a27.5 27.5 0 0127.4 27.4v283.4a27.5 27.5 0 01-27.4 27.5H335c2 4.2 3.2 9 3.2 13.7 0 7.6 6.1 13.7 13.7 13.7h77.7c10.1 0 18.3-8.2 18.3-18.3V82.3c0-10.1-8.2-18.3-18.3-18.3z"/><path d="M512 83.9V0H0v83.9a27.4 27.4 0 010 51.7V512h512V135.6a27.4 27.4 0 010-51.7zM35.8 488c-.4 1.2-1 2.2-1.9 3a9.3 9.3 0 01-13 0 9.3 9.3 0 010-13c.9-.8 2-1.4 3-1.8 2.3-1 4.8-1 7 0 1.1.4 2.1 1 3 1.9 1.7 1.7 2.6 4 2.7 6.5 0 1.2-.3 2.3-.8 3.4zM34 34a9.3 9.3 0 01-13 0 9.3 9.3 0 010-13 9.6 9.6 0 0113 0 9.3 9.3 0 010 13zm432.4 395.7a36.6 36.6 0 01-36.6 36.6H352a32 32 0 01-32-32c0-7.6-6.1-13.7-13.7-13.7H205.7c-7.6 0-13.7 6.1-13.7 13.7a32 32 0 01-32 32H82.3a36.6 36.6 0 01-36.6-36.6V82.3a36.6 36.6 0 0136.6-36.6h347.4a36.6 36.6 0 0136.6 36.6v347.4zm24.8 61.4a9.1 9.1 0 01-15-10c.5-1.1 1.2-2.1 2-3a9.6 9.6 0 0113 0c.8.9 1.4 1.9 1.9 3 .5 1 .7 2.3.7 3.5 0 2.4-1 4.7-2.6 6.5zm2.4-461.8c0 .5-.3 1-.5 1.6a7 7 0 01-.8 1.7l-1.1 1.3a9.3 9.3 0 01-14.1-1.4c-.4-.5-.6-1-.8-1.6a6 6 0 01-.6-1.6l-.2-1.9.2-1.7c.1-.6.3-1.2.6-1.7.2-.6.4-1.2.8-1.7l1-1.4a9.6 9.6 0 0113 0l1.2 1.4c.3.5.6 1 .8 1.7a10.5 10.5 0 01.7 3.5c0 .5 0 1.2-.2 1.8z"/></svg>