<svg xmlns="http://www.w3.org/2000/svg" viewBox="0 0 512 512" style="fill:#01f603"><defs/><circle cx="256" cy="291.3" r="17.7"/><path d="M185.4 211.9h141.2c4.9 0 8.8-4 8.8-8.9v-17.6h-53a8.8 8.8 0 010-17.7h53v-17.6h-53a8.8 8.8 0 010-17.7h53v-17.6h-53a8.8 8.8 0 010-17.7h53V79.4h-53a8.8 8.8 0 010-17.6h53V44h-53a8.8 8.8 0 010-17.6h53V8.8c0-4.8-3.9-8.8-8.8-8.8H185.4c-4.9 0-8.8 4-8.8 8.8v17.7h53a8.8 8.8 0 010 17.6h-53v17.7h53a8.8 8.8 0 010 17.7h-53V97h53a8.8 8.8 0 010 17.7h-53v17.6h53a8.8 8.8 0 010 17.7h-53v17.6h53a8.8 8.8 0 010 17.7h-53V203c0 5 3.9 8.9 8.8 8.9z"/><path d="M423.7 123.6h-17.6a8.8 8.8 0 00-17.7 0v8.8H362c-4.8 0-8.8 4-8.8 8.8V159c0 4.9 4 8.8 8.8 8.8h26.5v178c0 2.4-1 4.7-2.5 6.3l-42.7 42.7a9.1 9.1 0 01-6.3 2.5H175.1c-2.4 0-4.6-.9-6.3-2.5L126 352a9.1 9.1 0 01-2.5-6.2v-178H150c4.8 0 8.8-4 8.8-8.9v-17.7c0-4.8-4-8.8-8.8-8.8h-26.5v-8.8a8.8 8.8 0 00-17.7 0H88.3c-4.9 0-8.9 4-8.9 8.8v35.3c0 4.9 4 8.9 8.9 8.9h17.6v169.2c0 7 2.8 13.7 7.8 18.7l42.6 42.6c5 5 11.7 7.8 18.8 7.8h36.8V459h-35.3a26.6 26.6 0 00-26.5 26.5v17.7c0 4.8 4 8.8 8.8 8.8h194.2c4.9 0 8.8-4 8.8-8.8v-17.7a26.6 26.6 0 00-26.5-26.5h-35.3V415H337c7 0 13.8-2.8 18.8-7.8l42.6-42.6c5-5 7.8-11.7 7.8-18.7V176.6h17.6c4.9 0 8.9-4 8.9-8.9v-35.3c0-4.9-4-8.8-8.9-8.8zM282.5 459h-53V415h53V459z"/><path d="M211.9 229.5c-5 0-8.9 4-8.9 8.8v106c0 4.9 4 8.8 8.9 8.8H300c5 0 8.9-4 8.9-8.8v-106c0-4.8-4-8.8-8.9-8.8H212zm44.1 97.1a35.3 35.3 0 110-70.6 35.3 35.3 0 010 70.6z"/></svg>