<svg xmlns="http://www.w3.org/2000/svg" viewBox="0 0 503.1 503.1" style="fill:#01f603"><path d="M467 316.8V48.2C432 42.3 357.8 36 251.6 36S71.1 42.3 36 48.2v268.6c71.6-8.1 143.6-11.9 215.6-11.4 72-.5 144 3.3 215.6 11.4zM110.5 56.5c.8-.8 1.8-1.4 3-1.8a9.3 9.3 0 019.7 1.8 9.1 9.1 0 010 12.8c-.4.4-.8.7-1.4 1a5 5 0 01-1.5.9l-1.6.5-1.8.2a9 9 0 01-6.4-15.4zm-53.8 66.6a9 9 0 010-12.6l26.9-27a9 9 0 0112.7 12.7l-27 27a9 9 0 01-12.6 0zM177 69.3L78.2 168a9 9 0 01-12.7-12.7l98.8-98.8A9 9 0 01177 69.3z"/><path d="M231.5 341.5a2750.2 2750.2 0 0140 0h.8c106.8.8 198 8.4 230.8 19.3V20.7C488 11.7 396 0 251.4 0S15 11.7 0 20.7v339.9c32.7-10.7 123.9-18.3 230.7-19.1h.8zM27 336.2a9 9 0 01-9-9V40.7c0-4.3 3-8 7.3-8.8C57.5 25.5 136.2 18 251.5 18s194 7.5 226.3 14a9 9 0 017.3 8.7v286.5a9 9 0 01-10.5 8.9c-58.2-9.4-153.4-12.7-223-12.7s-165 3.3-223.2 12.7h-1.5zM368.3 485.1H134.7a9 9 0 000 18h233.6a9 9 0 000-18z"/><path d="M269.5 368.3c0-3.1-.9-6.2-2.5-8.9h-31a18 18 0 1033.5 9z"/><path d="M197.6 360V467h107.8V360l-19.2-.4a36 36 0 11-69.4 0l-19.2.4z"/></svg>