<svg xmlns="http://www.w3.org/2000/svg" viewBox="0 0 512 512" style="fill:#01f603"><path d="M164.6 466.3h18.3V457a9.1 9.1 0 0118.2 0v9.2h18.3V457a9.1 9.1 0 0118.3 0v9.2H256V457a9.1 9.1 0 0118.3 0v9.2h18.3V457a9.1 9.1 0 0118.3 0v9.2H329V457a9.1 9.1 0 0118.3 0v9.2h18.3V457a9.1 9.1 0 0118.3 0v9.2h18.3V457a9.1 9.1 0 0118.3 0v9.2h18.3V457a9.1 9.1 0 0118.2 0v9.2h18.3v-36.6H164.6v36.6zM146.3 9.2V0H128v45.7h18.3zM219.4 9.2V0h-18.3v27.4h18.3zM201.1 135.5V192h18.3v-56.5c-3.3-1.2-6.5-3-9.1-5.5a27.3 27.3 0 01-9.2 5.5zM109.7 347.4H128v18.3h-18.3z"/><circle cx="228.6" cy="109.7" r="9.1"/><circle cx="192" cy="109.7" r="9.1"/><circle cx="45.7" cy="356.6" r="9.1"/><path d="M109.7 128H128v164.6h-18.3zM73.1 429.7h36.6v36.6H73.1zM475.4 292.6v-45.7H311v128h164.5V329c0-5 4.1-9.1 9.2-9.1H512v-18.3h-27.4c-5 0-9.2-4-9.2-9.1zm-143.6-24.8a9.1 9.1 0 0114 11.6l-1 1.4a9.3 9.3 0 01-13 0l-1.1-1.4a7 7 0 01-.8-1.6c-.3-.6-.5-1.1-.6-1.7a9.6 9.6 0 012.5-8.3zm13 86.1l-1.4 1.1a7 7 0 01-1.6.8 6 6 0 01-1.7.6l-1.8.2a10.6 10.6 0 01-6.5-2.7 9.3 9.3 0 010-13c.9-.8 1.9-1.4 3-1.9a8.8 8.8 0 017 0 7 7 0 011.6.8l1.4 1.1a9.3 9.3 0 010 13zm11.8-33.9h-18.3a9.1 9.1 0 010-18.3h18.3a9.1 9.1 0 010 18.3zm45.7 9.1a9.1 9.1 0 01-18.3 0v-36.5a9.1 9.1 0 0118.3 0V329zm52.2 24.8L453 355a7 7 0 01-1.6.8l-1.8.6-1.7.2a9.2 9.2 0 01-6.5-15.7c2.2-2 5.3-3 8.2-2.4.6 0 1.2.2 1.8.5a7 7 0 011.6.8l1.4 1.1a9.3 9.3 0 010 13zM448 320h-18.3a9.1 9.1 0 010-18.3H448a9.1 9.1 0 010 18.3zm9-43.9a6 6 0 01-.6 1.7 7 7 0 01-.8 1.6l-1.1 1.4a9.6 9.6 0 01-6.5 2.6c-1.2 0-2.4-.2-3.5-.7-1-.5-2.1-1.1-3-2l-1-1.3a7 7 0 01-1-1.6l-.5-1.7a9.6 9.6 0 012.5-8.3c.9-.8 2-1.5 3-2a9.3 9.3 0 0110 2 9.6 9.6 0 012.5 8.3zM256 246.9h-73.1v128H256v-128zm-43 20.9a9.2 9.2 0 0113 0 9.6 9.6 0 012.4 8.3 6 6 0 01-.6 1.7 7 7 0 01-.8 1.6l-1 1.4-1.5 1a7 7 0 01-1.6.9 6 6 0 01-1.6.5c-.6.2-1.3.2-1.9.2-2.4 0-4.7-1-6.5-2.6l-1-1.4a7 7 0 01-.9-1.6l-.5-1.7-.2-1.8c0-2.4 1-4.8 2.6-6.5zm-2 39.6a8.3 8.3 0 015-5 8.8 8.8 0 016.9 0 7 7 0 011.6.9l1.4 1c.8 1 1.5 2 2 3a9.1 9.1 0 01.5 5.4 6 6 0 01-.6 1.6 7 7 0 01-.8 1.7l-1 1.3-1.5 1.1a7 7 0 01-1.6.9 6 6 0 01-1.6.5l-1.9.2c-1.2 0-2.3-.3-3.4-.7-1.2-.5-2.2-1.1-3-2l-1.2-1.3a7 7 0 01-.8-1.7l-.5-1.6-.2-1.8c0-1.2.2-2.4.7-3.5zm15 46.5l-1.5 1.1a7 7 0 01-1.6.8 6 6 0 01-1.6.6l-1.9.2a10.6 10.6 0 01-6.5-2.7 9.3 9.3 0 010-13c1-.8 2-1.4 3-1.9a8.8 8.8 0 017 0 7 7 0 011.6.8l1.4 1.1a9.3 9.3 0 010 13zM475.4 9.2V0h-18.3v27.4h18.3zM457.1 137.1h-91.4v20c3.4 1.2 6.5 3 9.2 5.5a27 27 0 0136.5 0 27 27 0 0136.6 0c2.7-2.4 5.8-4.3 9.1-5.5v-20z"/><circle cx="466.3" cy="182.9" r="9.1"/><circle cx="429.7" cy="182.9" r="9.1"/><path d="M493.7 18.3v9.1c0 10.1-8.2 18.3-18.3 18.3h-18.3A18.3 18.3 0 01439 27.4v-9.1h-18.3v27.4c0 10.1-8.2 18.3-18.3 18.3h-128A18.3 18.3 0 01256 45.7V18.3h-18.3v9.1c0 10.1-8.2 18.3-18.3 18.3h-18.3A18.3 18.3 0 01183 27.4v-9.1h-18.3v27.4c0 10.1-8.2 18.3-18.3 18.3v18.3a9.1 9.1 0 01-18.3 0V64a18.3 18.3 0 01-18.3-18.3V18.3H0V512h512V338.3h-18.3v36.6c0 10-8.2 18.2-18.3 18.2H311a18.3 18.3 0 01-18.3-18.2v-128c0-10.1 8.2-18.3 18.3-18.3h164.5c10.1 0 18.3 8.2 18.3 18.3v36.5H512V18.3h-18.3zm-384 91.4H128c10.1 0 18.3 8.2 18.3 18.3v164.6c0 10-8.2 18.2-18.3 18.3h-18.3a18.3 18.3 0 01-18.3-18.3V128c0-10 8.2-18.3 18.3-18.3zm-34-70.5a9.1 9.1 0 1113 12.9 9.1 9.1 0 01-13-12.9zm-54.8 0a9.6 9.6 0 0113 0 9.1 9.1 0 11-15 10 9.2 9.2 0 012-10zM18.3 128c0-10.1 8.2-18.3 18.3-18.3h18.3c10 0 18.2 8.2 18.2 18.3v164.6c0 10-8.1 18.2-18.2 18.3H36.6a18.3 18.3 0 01-18.3-18.3V128zm17.5 360c-.4 1.2-1 2.2-1.9 3a9.3 9.3 0 01-13 0 9.3 9.3 0 010-13c.9-.8 2-1.4 3-1.8 2.3-1 4.8-1 7 0 1.1.4 2.1 1 3 1.9 1.7 1.7 2.6 4 2.7 6.5 0 1.2-.3 2.3-.8 3.4zM18.3 356.6a27.4 27.4 0 1154.8 0 27.4 27.4 0 01-54.8 0zM128 466.3c0 10-8.2 18.3-18.3 18.3H73.1A18.3 18.3 0 0155 466.3v-36.6c0-10 8.1-18.3 18.2-18.3h36.6c10.1 0 18.3 8.2 18.3 18.3v36.6zm0-82.3h-18.3a18.3 18.3 0 01-18.3-18.3v-18.3c0-10 8.2-18.2 18.3-18.3H128c10.1 0 18.3 8.2 18.3 18.3v18.3c0 10.1-8.2 18.3-18.3 18.3zm347.4 27.4c10.1 0 18.3 8.2 18.3 18.3v36.6c0 10-8.2 18.3-18.3 18.3H164.6a18.3 18.3 0 01-18.3-18.3v-36.6c0-10 8.2-18.3 18.3-18.3h310.8zM164.6 375v-128c0-10.1 8.2-18.3 18.3-18.3H256c10.1 0 18.3 8.2 18.3 18.3v128c0 10-8.2 18.2-18.3 18.2h-73.1c-10.1 0-18.3-8.1-18.3-18.2zM329 111c-.6 11-7.8 20.7-18.2 24.4V192c0 10.1-8.2 18.3-18.3 18.3H201A18.3 18.3 0 01183 192v-56.5a27.3 27.3 0 1127.4-46 27 27 0 0136.6 0 27 27 0 0136.5 0 27.3 27.3 0 0145.7 21.6zm164.2 76.5a27.4 27.4 0 01-45.3 15.6 27 27 0 01-36.6 0 27 27 0 01-36.5 0 27.3 27.3 0 11-27.5-46V128c0-5 4.1-9.1 9.2-9.1h109.7c5 0 9.1 4 9.1 9.1v29.1a27.4 27.4 0 0118 30.5z"/><circle cx="393.1" cy="182.9" r="9.1"/><path d="M36.6 128h18.3v164.6H36.6zM237.7 135.5V192H256v-56.5c-3.4-1.2-6.5-3-9.1-5.5a27.3 27.3 0 01-9.2 5.5z"/><circle cx="265.1" cy="109.7" r="9.1"/><path d="M274.3 135.5V192h18.3v-56.5c-3.4-1.2-6.5-3-9.2-5.5a27.3 27.3 0 01-9.1 5.5z"/><circle cx="301.7" cy="109.7" r="9.1"/><path d="M402.3 9.2V0h-128v45.7h128z"/><circle cx="356.6" cy="182.9" r="9.1"/></svg>