<svg xmlns="http://www.w3.org/2000/svg" viewBox="0 0 508.3 508.3" style="fill:#01f603"><defs/><path d="M225.2 158.8l21.4-21.4-17.9-17.9-20.2 27-4.4 6 6.2 6.3c4.2 4 10.7 4 15 0zM170 505.4c21.2-3.4 65.4-13.5 79.3-39.3 3.7-7.5 6.7-15.2 9.1-23.2l2.2-6.1-14.3 7.5c-29 15.4-55 36-76.3 61zM63.9 261.9l7.5-14.2-6.1 2c-8 2.5-15.8 5.5-23.3 9.2-25.8 14-35.8 58-39.2 79.3 25-21.4 45.7-47.3 61-76.3zM280.9 103.1c4-4 4-10.7 0-14.9l-8-7.8a69.4 69.4 0 00-32.7 23.8l-.4.6 19.7 19.7L281 103zM431.6 105.4l-.5-.4-13.9-14-14.4-14.4-26 26 28.8 28.8zM493.3 0l-70.6 70.7 7.4 7.4 7.5 7.5 70.6-70.7z"/><path d="M399.1 150.8l-14.4-14.4-42.7 42.7 1 1a18.3 18.3 0 010 25.9l-28.8 28.8a18.3 18.3 0 01-25.9 0l-1-1-90.9 90.9a9.1 9.1 0 11-12.9-13l91-90.8-1-1a18.3 18.3 0 010-25.9l28.7-28.8a18.3 18.3 0 0125.9 0l1 1 42.7-42.7-14.4-14.4L345 96.8A69.5 69.5 0 00296 76.4h-1.2a28.8 28.8 0 01-.9 39.7l-55.6 55.6a28.9 28.9 0 01-40.8 0l-4.2-4.2c-47.5 65-91.3 132.7-131 202.8a55.6 55.6 0 0075.7 75.7c70-39.7 137.8-83.5 202.8-131l-4.2-4.2a28.9 28.9 0 010-40.8l55.7-55.6c11-10.4 28-10.8 39.5-1 .4-18.8-7-36.9-20.2-50.2L399 150.8z"/><path d="M58.4 449.8a73.9 73.9 0 01-12.2-88.5c27.7-49 57.8-97 89.5-143.7a966.6 966.6 0 01-37.8 19L80 270.3A277.7 277.7 0 01.3 363.6c-.5 9.9-.1 19.8 1 29.6 1.1 15.3 6 30.2 14.4 43.1 2 2.6 4.4 5 6.8 7.4l41.4 41.6a68 68 0 008.2 7.3c2.2 1.6 4.6 2.9 7 4 20.6 9.1 43 13 65.4 11.3a277.5 277.5 0 0193.3-79.7l34-18a831 831 0 0118.6-37.2 2097.3 2097.3 0 01-143.5 89 73.9 73.9 0 01-88.5-12.2zM286.4 207l14.8 14.8.1.1 28.8-28.8-14.9-14.9zM349.4 283c-4 4.1-4 10.7 0 14.9l6.3 6.2 6-4.4 27-20.2-17.9-17.9-21.4 21.4zM405 227.3l-21.3 21.4 19.8 19.7.5-.4a69.4 69.4 0 0023.9-32.8l-8-7.9c-4.1-4-10.6-4-14.8 0z"/></svg>