<svg xmlns="http://www.w3.org/2000/svg" width="512" height="512" style="fill:#01f603"><path d="M264.8 273.7v-35.4a8.8 8.8 0 00-17.6 0v35.4a8.8 8.8 0 0017.6 0zM176.6 396.6v.6a79.7 79.7 0 0095 78c37-7.6 63.8-40.1 63.8-78v-.6c-13.5 27.2-37.3 44.8-79.4 44.8s-66-17.6-79.4-44.8z"/><path d="M485.5 141.2h-203v53.2c4.3 0 8.4 1.4 11.6 4.2l53 46.4c3.8 3.3 6 8.1 6 13.2v139a97.4 97.4 0 01-116.2 95.3c-45.3-9.2-77.9-49-78-95.3v-139c0-5 2.2-9.9 6-13.2l53-46.4c3.2-2.8 7.3-4.3 11.6-4.2v-53.2h-203c-9.8 0-17.6 8-17.7 17.7v335.4c0 9.8 8 17.7 17.7 17.7h459c9.8 0 17.6-8 17.7-17.7V159c0-9.7-8-17.6-17.7-17.7zM61.8 176.6H44v17.6a8.8 8.8 0 01-17.6 0v-26.5c0-4.9 4-8.8 8.8-8.8h26.5a8.8 8.8 0 010 17.7z"/><path d="M247.2 309a8.8 8.8 0 0017.6 0v-10.5c-5.7 2.2-12 2.2-17.6 0V309z"/><path d="M282.5 211.9v97a26.5 26.5 0 01-53 0v-97l-53 46.3c0 103 5.4 165.5 79.5 165.5s79.4-62.5 79.4-165.5z"/><path d="M229.5 70.6h53c4.9 0 8.8 4 8.8 8.8 0 2.4-1 4.7-2.7 6.3a8.4 8.4 0 01-6.1 2.6h-8.8a26.5 26.5 0 00-26.5 26.5v98.6c5.7-2 12-2 17.6 0v-98.6c0-5 4-8.9 8.9-8.9h8.8a26.5 26.5 0 000-53h-53c-2.4 0-4.6-1-6.3-2.6a8.5 8.5 0 01-2.5-6.2c0-4.8 4-8.8 8.8-8.8h8.8a26.5 26.5 0 0026.5-26.5 8.8 8.8 0 00-17.6 0 8.8 8.8 0 01-8.9 8.9h-8.8a26.5 26.5 0 100 53z"/></svg>