<svg xmlns="http://www.w3.org/2000/svg" viewBox="0 0 233.9 154.8"><defs/><g data-name="Capa 2"><g data-name="Layer 1"><path fill="#01f603" d="M87.3 46.2v-14a92 92 0 014.1-.2c38.3-1.2 63.4 32.8 63.4 32.8s-27.1 37.7-56.2 37.7a35 35 0 01-11.3-1.8V58.3c14.9 1.8 17.9 8.4 26.8 23.3L134 64.8s-14.5-19-39-19a74 74 0 00-7.7.4m0-46.2v20.9l4.1-.3c53.2-1.8 87.9 43.7 87.9 43.7s-39.9 48.4-81.3 48.4a61.3 61.3 0 01-10.7-1v13a71 71 0 008.9.5c38.6 0 66.5-19.7 93.5-43 4.5 3.6 22.8 12.3 26.6 16.1-25.7 21.6-85.6 38.9-119.5 38.9-3.3 0-6.4-.2-9.5-.5v18.1H234V0zm0 100.7v11c-35.7-6.3-45.6-43.4-45.6-43.4a77.1 77.1 0 0145.6-22.1v12c-15-1.7-26.7 12.2-26.7 12.2s6.6 23.5 26.7 30.3m-63.4-34S45 35.4 87.3 32.2V21C40.5 24.6 0 64.3 0 64.3s23 66.3 87.3 72.4v-12c-47.2-6-63.4-58-63.4-58z" data-name="Eye Mark"/></g></g></svg>