<?xml version="1.0" encoding="utf-8"?>
<!-- Generator: Adobe Illustrator 26.5.1, SVG Export Plug-In . SVG Version: 6.00 Build 0)  -->
<svg version="1.1" id="Capa_1" xmlns="http://www.w3.org/2000/svg" xmlns:xlink="http://www.w3.org/1999/xlink" x="0px" y="0px"
	 viewBox="0 0 30.4 30.6" style="enable-background:new 0 0 30.4 30.6;" xml:space="preserve">
<style type="text/css">
	.st0{fill:#00CE00;stroke:#00CE00;stroke-width:2;stroke-miterlimit:10;}
	.st1{fill:#00CE00;}
</style>
<g id="c129_exclamation">
	<path class="st0" d="M15.2,1.4c-7.7,0-14,6.3-14,14c0,7.7,6.3,14,14,14s14-6.3,14-14C29.2,7.6,22.9,1.4,15.2,1.4z M15.2,27.9
		c-6.9,0-12.6-5.6-12.6-12.6c0-6.9,5.6-12.5,12.6-12.5c6.9,0,12.5,5.6,12.5,12.5C27.7,22.3,22.1,27.9,15.2,27.9z"/>
	<polygon class="st1" points="16.8,18.5 17.4,6 13,6 13.6,18.5 	"/>
	<path class="st1" d="M15.2,19.9c-1.5,0-2.5,1-2.5,2.5c0,1.4,1,2.5,2.4,2.5h0.1c1.5,0,2.5-1.1,2.5-2.5C17.6,21,16.7,19.9,15.2,19.9z
		"/>
</g>
<g id="Capa_1_207_">
</g>
</svg>
