<svg xmlns="http://www.w3.org/2000/svg" viewBox="0 -72 440.9 440" style="fill:#01f603"><path d="M100.4 80.4v-16h-16v16a8 8 0 01-8 8h-16v16h16a8 8 0 018 8v16h16v-16a8 8 0 018-8h16v-16h-16a8 8 0 01-8-8zm0 0M188.4 168.4a24 24 0 11-48 0 24 24 0 0148 0zm0 0M300.4 168.4a24 24 0 11-48 0 24 24 0 0148 0zm0 0M356.4 60.4a4 4 0 11-8 0 4 4 0 018 0zm0 0M364.4 8.4a8 8 0 00-8-8h-32a8 8 0 00-8 8v8h48zm0 0M178.8 88.4H262c4.1 0 7.5-3 8-7l5.4-49H165.4l5.4 49a8 8 0 008 7zm65.6-40h16v16h-16zm-32 0h16v16h-16zm-32 0h16v16h-16zm0 0M124.4 8.4a8 8 0 00-8-8h-32a8 8 0 00-8 8v8h48zm0 0M356.4 128.4a4 4 0 11-8 0 4 4 0 018 0zm0 0M388.4 96.4a4 4 0 11-8 0 4 4 0 018 0zm0 0"/><path d="M429 144.8L406.4 62a40 40 0 00-38.6-29.5h-76.2L286 83.1a24 24 0 01-23.9 21.3h-83.3a24 24 0 01-23.9-21.3l-5.6-50.7H73A40 40 0 0034.5 62L12 145A336.3 336.3 0 001 259.3a40.3 40.3 0 0040 37 39.9 39.9 0 0038.2-28.2l21.6-70.1a8 8 0 017.6-5.7h24.2a40 40 0 1163.6 0h48.4a40 40 0 1163.6 0h24.2a8 8 0 017.7 5.7l21.6 70a39.9 39.9 0 0038.2 28.3 40.3 40.3 0 0040-37c3-38.5-.7-77.3-11-114.6zm-288.6-32.4a8 8 0 01-8 8h-16v16a8 8 0 01-8 8h-32a8 8 0 01-8-8v-16h-16a8 8 0 01-8-8v-32a8 8 0 018-8h16v-16a8 8 0 018-8h32a8 8 0 018 8v16h16a8 8 0 018 8zm212-72a20 20 0 110 40 20 20 0 010-40zm-32 76a20 20 0 110-40 20 20 0 010 40zm32 32a20 20 0 110-40 20 20 0 010 40zm32-32a20 20 0 110-40 20 20 0 010 40zm0 0"/><path d="M324.4 96.4a4 4 0 11-8 0 4 4 0 018 0zm0 0"/></svg>