<svg xmlns="http://www.w3.org/2000/svg" width="512" height="512" viewBox="0 0 24 24"><path d="M15.46 9a1 1 0 0 0-1.36-.37l-1.1.64V8a1 1 0 1 0-2 0v1.27l-1.1-.64a1 1 0 1 0-1 1.74L10 11l-1.1.63a1 1 0 0 0 1 1.74l1.1-.64V14a1 1 0 1 0 2 0v-1.27l1.1.64a1 1 0 1 0 1-1.73L14 11l1.1-.63A1 1 0 0 0 15.46 9zM7.06 9a1 1 0 0 0-1.36-.37l-1.1.64V8a1 1 0 1 0-2 0v1.27l-1.1-.64a1 1 0 1 0-1 1.74l1.1.63-1.1.63a1 1 0 0 0 1 1.74l1.1-.64V14a1 1 0 1 0 2 0v-1.27l1.1.64a1 1 0 1 0 1-1.73L5.6 11l1.1-.63A1 1 0 0 0 7.06 9zM17.8 13.5a1 1 0 0 0 .5-.13l1.1-.64V14a1 1 0 1 0 2 0v-1.27l1.1.64a1 1 0 1 0 1-1.73L22.4 11l1.1-.63a1 1 0 0 0-1-1.74l-1.1.64V8a1 1 0 1 0-2 0v1.27l-1.1-.64a1 1 0 1 0-1 1.74l1.1.63-1.1.63a1 1 0 0 0 .5 1.87zM6 17H1a1 1 0 1 0 0 2h5a1 1 0 1 0 0-2zM14.5 17h-5a1 1 0 1 0 0 2h5a1 1 0 1 0 0-2zM23 17h-5a1 1 0 1 0 0 2h5a1 1 0 1 0 0-2z"/></svg>