<svg xmlns="http://www.w3.org/2000/svg" id="Capa_1" data-name="Capa 1" viewBox="0 0 512 512"><defs><style>.cls-1{fill:#fdfffd;}</style></defs><path xmlns="http://www.w3.org/2000/svg" fill="#01f603" d="M346.67,0H162.37a45.13,45.13,0,0,0-45,45V467a45.13,45.13,0,0,0,45,45h184.3a44.9,44.9,0,0,0,33.93-15.53,0,0,0,0,0,0,0A44.87,44.87,0,0,0,391.67,467V45A45.13,45.13,0,0,0,346.67,0Zm-5.11,17.08a32.3,32.3,0,0,1,32.21,32.2V462.72a32.3,32.3,0,0,1-32.21,32.2H167.48a32.3,32.3,0,0,1-32.21-32.2V49.28a32.3,32.3,0,0,1,32.21-32.2Z"/><path xmlns="http://www.w3.org/2000/svg" fill="#01f603" d="M374.53,16.08H134.31a12.18,12.18,0,0,0-12.28,12V47.87a12.15,12.15,0,0,0,10.88,11.92,13,13,0,0,0,1.4.08H374.53a11.87,11.87,0,0,0,2.41-.24,12.12,12.12,0,0,0,9.87-11.76V28.08A12.18,12.18,0,0,0,374.53,16.08ZM280.16,32.74a4.81,4.81,0,0,1-3.37,1.37H233.06a4.72,4.72,0,0,1-4.76-4.65,4.57,4.57,0,0,1,1.39-3.28,4.84,4.84,0,0,1,3.37-1.36h43.73a4.71,4.71,0,0,1,4.76,4.64A4.57,4.57,0,0,1,280.16,32.74Z"/><path xmlns="http://www.w3.org/2000/svg" fill="#01f603" d="M372.64,436.13H135.94a12.17,12.17,0,0,0-4.28.78,12,12,0,0,0-7.82,11.22v37.16a12.08,12.08,0,0,0,12.1,12h236.7a12,12,0,0,0,6.38-1.82,0,0,0,0,0,0,0,12,12,0,0,0,5.46-7.72,12.34,12.34,0,0,0,.25-2.45V448.13A12.08,12.08,0,0,0,372.64,436.13Zm-125,57.79a20.15,20.15,0,1,1,7.46,0Z"/><path class="cls-1" d="M258,467.53a19.19,19.19,0,0,1-7.4,0Z"/></svg>