<svg xmlns="http://www.w3.org/2000/svg" viewBox="0 0 503.1 503.1" style="fill:#01f603"><path d="M125.8 36h-9c-5 0-9 4-9 9v8.9h18v-18zM206.6 260.5c-5 0-9 4-9 9v9h107.8v-9c0-5-4-9-9-9h-89.8zM125.8 71.9h-36c-5 0-9 4-9 9v53.8h45V72z"/><path d="M100.8 206.6l3.9-15.5a27 27 0 0126.1-20.4h241.4a27 27 0 0126.2 20.4l3.9 15.5H476c5.9 0 11.7 1.2 17.2 3.4l-20.6-80c-2.1-7.8-9.2-13.2-17.3-13.2h-15.2v18h9a9 9 0 010 17.9H53.8a9 9 0 010-18h9v-18H47.6a18 18 0 00-17.2 13.4l-20.6 80a44.6 44.6 0 0117.2-3.5h73.8zM377.3 278.5c5 0 9-4 9-9v-45H116.8v45c0 5 4 9 9 9h53.9v-9a27 27 0 0127-27h89.7a27 27 0 0127 27v9h53.9zM395.2 45c0-5-4-9-9-9h-9v17.9h18v-9z"/><path d="M143.7 0h215.6v134.7H143.7zM422.2 80.8c0-5-4-9-9-9h-36v63h45v-54zM0 431.2a27 27 0 0027 27h53.9v-81a27 27 0 0127-26.9h287.3a27 27 0 0127 27V458H476a27 27 0 0027-27v-98.7H0v98.8z"/><path d="M395.2 368.3H107.8c-5 0-9 4-9 9v9h305.4v-9c0-5-4-9-9-9z"/><circle cx="44.9" cy="269.5" r="9"/><path d="M372.2 188.6H130.8a9 9 0 00-8.7 6.8l-2.8 11.2h264.4l-2.7-11.2a9 9 0 00-8.8-6.8zM476 224.6h-71.8v44.9a27 27 0 01-27 27H125.9a27 27 0 01-27-27v-45H27a27 27 0 00-27 27v62.9h503v-62.9a27 27 0 00-27-27zM45 296.4a27 27 0 110-53.9 27 27 0 010 54zM98.8 404.2v53.9h10.1l12.6-53.9zM140 404.2l-23.2 98.9H386l.2-.2-23.2-98.7H140zM394.2 458.1h10v-53.9h-22.7z"/></svg>