<svg xmlns="http://www.w3.org/2000/svg" viewBox="0 0 504.3 504.3" style="fill:#01f603"><defs/><path d="M255.9 235.4v-25.8l-46.3 46.3h25.8zM187.5 252.2l-13-13 64.7-64.6 12.9 13zM336.2 271.5l-62-61.9v25.8l49.1 49.1zM265 252.1l45.3 45.3-13 13-45.2-45.3zM284.5 323.3l-49.1-49.1h-25.8l61.9 62zM245.7 155.2l25.8 25.8 77.6 77.6 12.9-12.9-129.3-129.3-12.9 12.9 25.9 25.9zM239.2 97L375 232.7l12.9-12.9L252.1 84l-19.4-19.4-12.9 13L239.2 97zM478.4 129.3l-7.6-7.6a27.4 27.4 0 01-36.5-36.5L419 70a27.4 27.4 0 01-36.6-36.6L349.1 0l-25.9 25.9 129.3 129.3 26-25.9zM290.9 45.3L426.7 181l12.9-12.9L303.9 32.3h-.1l-19.3-19.4-13 13 19.4 19.4zM400.8 207L271.5 77.5l13-13L413.7 194zM32.3 303.9l135.8 135.7 12.9-12.9L45.3 290.9h-.1l-19.3-19.4-13 13 19.4 19.3zM194 413.8L64.6 284.5l13-13 129.3 129.3zM25.9 323.2L0 349.2l33.4 33.3A27.4 27.4 0 0170 419.1l15.2 15.2a27.4 27.4 0 0136.5 36.5l7.6 7.6 25.9-25.9L25.9 323.2zM155.2 504.3l-13-13 13-12.9 13 13zM478.4 155.1l13-12.9 12.9 13-13 12.9zM181 116.4l45.3 45.2-13 13-45.2-45.3zM459 174.6l-25.8 25.8-25.9 25.9-25.9 25.8-129.3 129.3-25.8 25.9-25.9 25.9-25.8 25.8-6.5 6.5 12.9 12.9L478.4 181l-12.9-12.9zM181 168l19.4 19.4-13 13-19.3-19.4zM129.4 168l45.2 45.3-13 13-45.2-45.3zM258.6 349.1L181 271.5l-25.8-25.8-25.9-25.9-12.9 12.9L245.7 362zM84 252.1l135.8 135.8 12.9-12.9L97 239.2l-19.4-19.4-13 12.9L84 252.1z"/></svg>