<svg xmlns="http://www.w3.org/2000/svg" viewBox="0 0 512 512" style="fill:grey"><defs/><path d="M61.5 279.6A197 197 0 01256 60c50.1 0 97 20.2 131.5 51.7l-17.3 17.6c-3.9 3.9-5.4 9.6-3.9 15 1.8 5.1 6 9 11.4 10.2 3 .6 102.2 32.6 95.9 31.3 8 2.7 20-5.9 17.7-17.7L470 61.2a15 15 0 00-10.5-11.4 15 15 0 00-14.7 3.9l-14.7 14.4A255.8 255.8 0 00256 0 256.9 256.9 0 000 256v.6c0 8.5.4 15 .8 20a15 15 0 0012 13.3l30.9 6.2c10 2 19-6.4 17.8-16.5zm0 0M499.3 222l-31-6.3a15 15 0 00-17.8 16.5A197.1 197.1 0 01256 452c-50.1 0-97-20.2-131.5-52l17.3-17.3c3.9-3.9 5.4-9.6 3.9-15-1.8-5.1-6-9-11.4-10.2-3-.6-102.2-32.6-95.9-31.3-5.1-.9-10.2.6-13.5 4.2a15 15 0 00-4.2 13.5L42 449.8a15 15 0 0010.5 11.4c6.3 1.6 11.5-.3 14.7-3.9l14.4-14.4A256.9 256.9 0 00256 512c140.7 0 256-115.3 256-256v-.9c0-6.7-.2-13.2-.8-19.7a15 15 0 00-12-13.4zm0 0"/></svg>