<svg xmlns="http://www.w3.org/2000/svg" viewBox="0 0 512 512" style="fill:#3baf55"><path d="m61 280-1-24c0-107 89-196 196-196 50 0 97 20 132 52l-18 17c-4 4-5 10-4 15 2 5 6 9 12 11l96 31c8 2 20-6 17-18L470 61c-1-5-5-10-10-11-6-2-11 0-15 4l-15 14A256 256 0 0 0 0 256v1l1 20c0 6 5 12 12 13l31 6c10 2 19-6 17-16zm438-58-31-6c-10-2-19 6-18 16a197 197 0 0 1-194 220c-50 0-97-20-131-52l17-17c4-4 5-10 4-15-2-5-6-9-12-11l-96-31a15 15 0 0 0-18 18l22 106c1 5 5 10 11 11 6 2 11 0 14-4l15-14a256 256 0 0 0 430-187v-1l-1-20c0-6-5-12-12-13zm0 0"/></svg>