<svg xmlns="http://www.w3.org/2000/svg" viewBox="0 0 931.23 931.23"><defs><style>.cls-1{fill:#08a621;}.cls-2{fill:#00c412;}.cls-3{fill:#0df700;}.cls-4{fill:#6400f4;}.cls-5{fill:#fff;}</style></defs><g id="Capa_2" data-name="Capa 2"><g id="Capa_1-2" data-name="Capa 1"><polygon class="cls-1" points="698.42 62.38 232.81 62.38 0 465.61 232.81 868.85 698.42 868.85 931.23 465.61 698.42 62.38"/><polygon class="cls-1" points="62.38 232.81 62.38 698.42 465.61 931.23 868.85 698.42 868.85 232.81 465.61 0 62.38 232.81"/><polygon class="cls-2" points="684.08 86.6 246.43 86.6 27.6 465.61 246.43 844.63 684.08 844.63 902.9 465.61 684.08 86.6"/><polygon class="cls-2" points="86.23 246.79 86.23 684.44 465.25 903.26 844.27 684.44 844.27 246.79 465.25 27.96 86.23 246.79"/><circle class="cls-3" cx="465.61" cy="462.95" r="361.16"/><circle class="cls-4" cx="465.61" cy="462.95" r="329.38"/><path class="cls-3" d="M600.85,304.19c-2.39,2.33-9.49,57.25-6.62-19.73.81-22.16-13-37.34-30.71-48.35-45.76-28.37-110.29-29.7-160.74-15.08-34.38,10-76.88,27.82-97.4,59.22-8.41,12.84-11.68,29.45-7,44.23,23.21,73.45,1.78,22.39-1.14,20.78,0,0,7.32,227.27,16.51,248.13C321.48,610.86,424.54,661,458.05,677l21.09,44.83-10.79-40a.61.61,0,0,1,.19.08s-29.78-117.59-41.07-209.23c0,0-86.23-52-91.36-58.35S335,406.08,330,400.55c0,0,110.51,39.5,111,43.31s19.34,93.71,21.32,98.11,18.1,14.63,18.1,14.63,12.74-14.2,13.53-18.91-5-96.43-5.52-100.25S584,366.2,584,366.2c-3.37,6.66,1,7.49-2.25,14.92s-72.53,80.52-72.53,80.52c7.75,52.8,13.49,127.65,14.89,166.14l.47,87.89,8.28-48c26.83-23.17,115.17-100.76,118-119.9C654.16,525.24,600.85,304.19,600.85,304.19Zm-187.2-73.08c-19.38,11.46-39.59,23.32-54.9,40.11a76,76,0,0,0-19,37.51,92.35,92.35,0,0,0-.22,30.72c.83,5.1,4.87,13.4,3.89,18.53-.54,2.85-3.22,3.84-5.36,1.64-80.69-82.39,71.06-125.87,83.78-133.34C419.12,227.89,416.39,229.49,413.65,231.11Z"/><path class="cls-5" d="M72.2,791.76a3.68,3.68,0,0,0-2.86-3.24c-1.71-.51-4.86-.72-9.46-.61q-14.24.27-20.34-3t-7.2-12.17a17.25,17.25,0,0,1,5.32-15.09q6.41-6.32,18.32-7.78a37.62,37.62,0,0,1,25.88,5.9l-6.59,12.48a32,32,0,0,0-9.16-3.89,25,25,0,0,0-9.12-.69,16.83,16.83,0,0,0-7.13,2.17q-2.45,1.59-2.17,3.81a3.55,3.55,0,0,0,3,3.09c1.78.47,5.09.64,9.91.51q13.53-.36,19.71,3.11t7.27,12.43A17.35,17.35,0,0,1,82.13,804q-6.52,6.38-18.7,7.87a48.2,48.2,0,0,1-15.8-.52,42.19,42.19,0,0,1-14-5.67L39.94,793a44,44,0,0,0,11.52,4.42,32.52,32.52,0,0,0,11,.6A18.2,18.2,0,0,0,70,795.79Q72.49,794.14,72.2,791.76Z"/><path class="cls-5" d="M95.81,806.67l-7.32-59.62,46.67-5.73,1.66,13.45-30.66,3.77,1.15,9.37,28.27-3.48,1.66,13.46L109,781.36l1.21,9.88,30.66-3.76,1.66,13.45Z"/><path class="cls-5" d="M882.51,666.58l-5,19.64"/></g></g></svg>