<svg xmlns="http://www.w3.org/2000/svg" viewBox="-55 0 512 512" style="fill:#01f603"><path d="M261.5 0H140.8c-4 0-7.5 2.5-8.7 6.3-7 21.7-11.4 44.1-12.9 66.8H283a276.9 276.9 0 00-12.8-66.8 9.1 9.1 0 00-8.7-6.3zm0 0M227.6 258.4a3 3 0 001-2.4 3 3 0 00-1-2.4l-33.8-24.8a.8.8 0 00-.4-.2h-.2c-.8.6-1.3 1.5-1.2 2.5V281c0 1 .4 1.9 1.2 2.4zm0 0"/><path d="M283.4 128H119A45.8 45.8 0 0073 173.7v164.6A45.8 45.8 0 00119 384h164.5a45.8 45.8 0 0045.7-45.7V173.7a45.8 45.8 0 00-45.7-45.7zm-78.7 86l33.7 25a21.5 21.5 0 010 34l-33.7 25c-5.7 4.3-13.4 5-19.8 1.6a20.8 20.8 0 01-11.2-18.7V231a20.8 20.8 0 0111.2-18.8c6.4-3.2 14-2.6 19.8 1.7zm-95-67.7H183a9.1 9.1 0 110 18.3h-73.2a9.1 9.1 0 110-18.3zm0 36.6h36.6a9.1 9.1 0 110 18.2h-36.6a9.1 9.1 0 110-18.2zm-14.6 86.8a9.2 9.2 0 1115.8-9.1 9.1 9.1 0 108-13.7 9.1 9.1 0 110-18.3A27.4 27.4 0 1195 269.7zm197.5 77.7H256v9.2a9.1 9.1 0 11-18.3 0v-9.2h-128a9.1 9.1 0 110-18.3h128V320a9.1 9.1 0 1118.3 0v9.1h36.6a9.1 9.1 0 110 18.3zm15.6-85l-18.3 18.3a9.1 9.1 0 01-13-12.9l11.9-11.8-11.8-11.8a9.1 9.1 0 1112.9-13l18.3 18.3a9.2 9.2 0 010 13zm0 0M140.8 512h120.7c4 0 7.5-2.5 8.7-6.3 7-21.7 11.3-44.1 12.8-66.8H119.2a277 277 0 0012.9 66.8 9.1 9.1 0 008.7 6.3zm0 0M18.3 283.4v-54.8H9c-5 0-9.1 4-9.1 9.1v36.6c0 5 4 9.1 9.1 9.1zm0 0M402.3 219.4v-18.3c0-5-4.1-9.1-9.2-9.1H384v36.6h9.1c5 0 9.2-4.1 9.2-9.2zm0 0M402.3 310.9v-18.3c0-5-4.1-9.2-9.2-9.2H384V320h9.1c5 0 9.2-4 9.2-9.1zm0 0"/><path d="M283.4 91.4H119a82.4 82.4 0 00-82.3 82.3v164.6a82.4 82.4 0 0082.3 82.3h164.5a82.4 82.4 0 0082.3-82.3V173.7a82.4 82.4 0 00-82.3-82.3zm64 246.9a64 64 0 01-64 64H119a64 64 0 01-64-64V173.7a64 64 0 0164-64h164.5a64 64 0 0164 64zm0 0"/></svg>