<svg xmlns="http://www.w3.org/2000/svg" viewBox="0 0 60 60" style="fill:#01f603"><defs/><path d="M14 20h8v4h-8zM29 20h8v4h-8zM31 34h4v5h-4zM16 34h4v5h-4z"/><path d="M5 12V9c0-.6-.4-1-1-1H1a1 1 0 100 2h2v5H0v6h3v1H0v6h3v1H0v6h3v16a1 1 0 102 0v-5h6v4h26v-4h23V12H5zM3 33H2v-2h1v2zm0-7H2v-2h1v2zm0-7H2v-2h1v2zm4 24a1 1 0 110-2 1 1 0 010 2zm0-3a1 1 0 110-2 1 1 0 010 2zm2-5H5v-2h2v-2H5v-2h4v6zm0-7H5v-2h2v-2H5v-2h4v6zm0-7H5v-2h2v-2H5v-2h4v6zm3-3h2v-2h2v2h1v-2h2v2h1v-2h2v2h2v8h-2v2h-2v-2h-1v2h-2v-2h-1v2h-2v-2h-2v-8zm10 12a1 1 0 11-2 0 1 1 0 012 0zm-3 0a1 1 0 11-2 0 1 1 0 012 0zm-3 0a1 1 0 11-2 0 1 1 0 012 0zm-4 8c0-.6.4-1 1-1h1v-1h-1a1 1 0 110-2h1v-2h8v2h1a1 1 0 110 2h-1v1h1a1 1 0 110 2h-1v2h-8v-2h-1a1 1 0 01-1-1zm23 10h-1v-1h-2v1h-1v-1h-2v1h-1v-1h-2v1h-1v-1h-2v1h-1v-1h-2v1h-1v-1h-2v1h-1v-1h-2v1h-1v-2h22v2zm3-11a1 1 0 110 2h-1v2h-8v-2h-1a1 1 0 110-2h1v-1h-1a1 1 0 110-2h1v-2h8v2h1a1 1 0 110 2h-1v1h1zm-9-7a1 1 0 112 0 1 1 0 01-2 0zm3 0a1 1 0 112 0 1 1 0 01-2 0zm3 0a1 1 0 112 0 1 1 0 01-2 0zm4-4h-2v2h-2v-2h-1v2h-2v-2h-1v2h-2v-2h-2v-8h2v-2h2v2h1v-2h2v2h1v-2h2v2h2v8zm4 15a1 1 0 110-2 1 1 0 010 2zm1-4h-2V16h2v21zm2 4a1 1 0 110-2 1 1 0 010 2zm1-4h-2V16h2v21zm2 4a1 1 0 110-2 1 1 0 010 2zm1-4h-2V16h2v21zm2 4a1 1 0 110-2 1 1 0 010 2zm1-4h-2V16h2v21zm3 6a1 1 0 110-2 1 1 0 010 2zm0-26a1 1 0 110-2 1 1 0 010 2z"/></svg>