<svg xmlns="http://www.w3.org/2000/svg" viewBox="0 0 512 512" style="fill:#01f603"><path d="M109.7 73.1a36.6 36.6 0 100 73.2 36.6 36.6 0 000-73.2zM109.7 237.7a73.1 73.1 0 100 146.3 73.1 73.1 0 000-146.3zm0 128a54.9 54.9 0 110-109.7 54.9 54.9 0 010 109.7z"/><path d="M109.7 274.3a36.6 36.6 0 100 73.1 36.6 36.6 0 000-73.1zM109.7 36.6a73.1 73.1 0 100 146.3 73.1 73.1 0 000-146.3zm0 128a54.9 54.9 0 110-109.7 54.9 54.9 0 010 109.7z"/><path d="M192 0H27.4A27.5 27.5 0 000 27.4v457.2A27.5 27.5 0 0027.4 512H192a27.5 27.5 0 0027.4-27.4V27.4A27.5 27.5 0 00192 0zm-64 457.1H45.7a9.1 9.1 0 010-18.2H128a9.1 9.1 0 010 18.2zm45.7 0h-9.1a9.1 9.1 0 010-18.2h9.1a9.1 9.1 0 010 18.2zm-64-54.8a91.4 91.4 0 110-182.9 91.4 91.4 0 010 182.9zm0-201.2a91.4 91.4 0 110-182.8 91.4 91.4 0 010 182.8zM402.3 274.3a36.6 36.6 0 100 73.1 36.6 36.6 0 000-73.1z"/><path d="M484.6 0H320a27.5 27.5 0 00-27.4 27.4v457.2A27.5 27.5 0 00320 512h164.6a27.5 27.5 0 0027.4-27.4V27.4A27.5 27.5 0 00484.6 0zm-149 445.3a9.3 9.3 0 01-13 0 8.5 8.5 0 01-1.9-3c-1-2.2-1-4.7 0-7 .5-1 1.1-2 2-3a9.3 9.3 0 0113 0 9.3 9.3 0 010 13zm92.5 37.7a36.6 36.6 0 11-51.7-51.7 36.6 36.6 0 0151.7 51.7zm53.8-37.7a9.3 9.3 0 11-13.2-13 9.3 9.3 0 0113.2 13zm-79.6-43a91.4 91.4 0 110-182.9 91.4 91.4 0 010 182.9zm0-201.2a91.4 91.4 0 110-182.8 91.4 91.4 0 010 182.8z"/><path d="M411.4 441.4v6.6a9.1 9.1 0 01-18.3 0v-6.6a18.3 18.3 0 1018.3 0zM402.3 36.6a73.1 73.1 0 100 146.3 73.1 73.1 0 000-146.3zm0 128a54.9 54.9 0 110-109.7 54.9 54.9 0 010 109.7zM402.3 237.7a73.1 73.1 0 100 146.3 73.1 73.1 0 000-146.3zm0 128a54.9 54.9 0 110-109.7 54.9 54.9 0 010 109.7z"/><path d="M402.3 73.1a36.6 36.6 0 100 73.2 36.6 36.6 0 000-73.2z"/></svg>