<svg xmlns="http://www.w3.org/2000/svg" width="512" height="512" style="fill:#01f603"><defs/><path d="M256 0a256 256 0 100 512 256 256 0 000-512zm0 475.4a219.4 219.4 0 110-438.8 219.4 219.4 0 010 438.8z"/><path d="M156.7 128c-5 0-9.8 2-13.3 5.7a96.9 96.9 0 00-18.3 29.5c11.6-1.3 24-2.5 37-3.5 3.4-11 8-21.6 13.4-31.6zM400.2 183c-17.4-2-37.2-4-58.3-5.6h-.2c-27.5-2.2-56.9-3.7-85.7-3.7s-58.2 1.5-85.6 3.7h-.2A1659.2 1659.2 0 0066.4 189a200 200 0 00-9.5 95.7 389 389 0 0188.1 2.8 63.9 63.9 0 0152.3 52.2c5.2 36 5.2 72.6 0 108.6a201 201 0 00117.5 0c-5.3-36-5.3-72.6-.1-108.6a63.9 63.9 0 0152.3-52.2c29.1-4.3 58.7-5.2 88-2.8a200 200 0 00-9.4-95.8c-11.3-1.6-27-3.7-45.4-5.9zm-286 91.3a41.1 41.1 0 110-82.3 41.1 41.1 0 010 82.3zm160 155.4h-36.5a9.1 9.1 0 010-18.3h36.6a9.1 9.1 0 010 18.3zm0-36.6h-36.5a9.1 9.1 0 010-18.2h36.6a9.1 9.1 0 010 18.2zm0-36.5h-36.5a9.1 9.1 0 010-18.3h36.6a9.1 9.1 0 010 18.3zM256 320a64 64 0 110-128 64 64 0 010 128zm109.7-73.1a9.1 9.1 0 110-18.3 9.1 9.1 0 010 18.3zm27.4 27.4a9.1 9.1 0 110-18.3 9.1 9.1 0 010 18.3zm27.5-45.7a9.1 9.1 0 110 18.3 9.1 9.1 0 010-18.3zm-27.5-9.2a9.1 9.1 0 110-18.3 9.1 9.1 0 010 18.3zM386.9 163.2a96.9 96.9 0 00-18.3-29.5 18.2 18.2 0 00-13.3-5.7h-18.8c5.5 10 10 20.7 13.4 31.7 13 1 25.4 2.2 37 3.5z"/><circle cx="256" cy="256" r="9.1"/><circle cx="114.3" cy="233.1" r="22.9"/><path d="M256 210.3a45.7 45.7 0 100 91.4 45.7 45.7 0 000-91.4zm0 73.1a27.4 27.4 0 110-54.8 27.4 27.4 0 010 54.8z"/></svg>