<svg xmlns="http://www.w3.org/2000/svg" viewBox="0 0 512 512" style="fill:#01f603"><defs/><path d="M79.3 278.6a91.4 91.4 0 0176.1-40.9l2.6.1a55.8 55.8 0 00-7.3-18.1c-38.4 1.6-73.1 23.2-91.6 57 6.8-.3 13.6.3 20.2 1.9zM97.5 284.6c11.2 5.3 21.5 12.1 30.7 20.3a36.3 36.3 0 0121.7-11.8 108 108 0 009.4-37l-3.9-.1a73 73 0 00-57.9 28.6z"/><circle cx="155.4" cy="329.1" r="18.3"/><path d="M155.4 365.7c-6.7 0-13.3-2-19-5.5a106 106 0 00-31 22.2 72.5 72.5 0 0065.8 18.1 126.4 126.4 0 01-10.5-35.3c-1.8.3-3.5.5-5.3.5zM70.5 295.5c-6.6-1-13.2-.7-19.7.7-11.6 36.6-3 76.6 22.4 105.4 2.1-6.5 5-12.6 8.7-18.3a90.6 90.6 0 01-11.4-87.8zM70.5 295.5zM181.2 416.8c-30.2 9-63 1.6-86.4-19.5a56.5 56.5 0 00-6.1 18.7c30.4 23.6 71 29.4 106.7 15.2-5.3-4.1-10.1-9-14.2-14.4zM265 326.5c-5.7 3.6-12 6.5-18.4 8.5-2 31.4-20 59.5-47.7 74.5 4.4 5 9.6 9 15.4 12 31.6-20 50.8-54.9 50.8-92.4v-2.6zM123.4 346.4a36.1 36.1 0 01-3.8-24.6c-9.1-9-19.8-16.1-31.4-21.3a72.8 72.8 0 005.6 68c8.7-8.8 18.7-16.3 29.6-22zM482.6 20.8C479.6 8.6 468.6 0 456 0H56a27.4 27.4 0 00-26.6 20.8L2.6 128h506.8L482.6 20.8zM256 100.6c-36.5 0-64-15.8-64-36.6s27.5-36.6 64-36.6 64 15.8 64 36.6-27.5 36.6-64 36.6z"/><circle cx="45.7" cy="192" r="9.1"/><ellipse cx="256" cy="64" rx="45.7" ry="18.3"/><path d="M190 317.5a107 107 0 0038 2.9 73.3 73.3 0 00-50.4-61c-1.1 12.3-4 24.4-8.7 35.8 10 4 17.6 12.2 21 22.3z"/><circle cx="45.7" cy="466.3" r="9.1"/><path d="M191.2 336.6a36.5 36.5 0 01-13.1 21 108 108 0 0010.4 36.7 73.2 73.2 0 0039.4-55.6 110.7 110.7 0 01-36.7-2.1zM245.8 315.8c6.1-2.4 11.8-6 16.7-10.4a109.9 109.9 0 00-90.6-84.6 76.3 76.3 0 015.1 19.6 91.5 91.5 0 0168.8 75.4z"/><circle cx="265.1" cy="192" r="9.1"/><path d="M457.1 219.4H347.4c-5 0-9.1 4.1-9.1 9.2v57.2c0 2.2.8 4.3 2.2 6l21.5 25c1.7 2 4.2 3.2 6.9 3.2h66.8c2.6 0 5.2-1.2 7-3.2l21.4-25a9.2 9.2 0 002.2-6v-57.2c0-5-4.1-9.2-9.2-9.2zm-82.2 64a9.1 9.1 0 01-18.3 0v-9.1a9.1 9.1 0 0118.3 0v9.1zm36.5-27.4a9.1 9.1 0 01-18.3 0v-9.1a9.1 9.1 0 0118.3 0v9.1zm36.6 27.4a9.1 9.1 0 01-18.3 0v-9.1a9.1 9.1 0 0118.3 0v9.1zM338.3 384v54.9c0 5 4 9 9.1 9.1h45.7v-73.1h-45.7c-5 0-9.1 4-9.1 9.1zm18.3 18.3a9.1 9.1 0 0118.3 0v18.3a9.1 9.1 0 01-18.3 0v-18.3zM457.1 374.9h-45.7V448h45.7c5 0 9.2-4 9.2-9.1V384c0-5-4.1-9.1-9.2-9.1zm-9.8 40a9.3 9.3 0 01-14.9 3c-.8-.9-1.5-1.9-2-3-.5-1-.7-2.3-.7-3.5 0-2.4 1-4.7 2.7-6.5l1.3-1a7 7 0 011.7-.9l1.6-.5a8.2 8.2 0 015.3.5 7 7 0 011.7.8c.5.4 1 .7 1.3 1.1 1.7 1.8 2.7 4.1 2.7 6.5 0 1.2-.3 2.4-.7 3.5z"/><circle cx="265.1" cy="466.3" r="9.1"/><path d="M0 146.3v347.4C0 503.8 8.2 512 18.3 512h475.4c10.1 0 18.3-8.2 18.3-18.3V146.3H0zm45.7 18.3a27.4 27.4 0 110 54.8 27.4 27.4 0 010-54.8zm0 329.1a27.4 27.4 0 110-54.8 27.4 27.4 0 010 54.8zm172.5-53.2a127.4 127.4 0 01-146-14.3 127 127 0 01-36.4-142.3 127.8 127.8 0 01245.7 23.8v.6a126.5 126.5 0 01-63.3 132.2zm47 53.2a27.4 27.4 0 110-54.8 27.4 27.4 0 010 54.8zm0-274.3a27.4 27.4 0 110-54.8 27.4 27.4 0 010 54.8zM484.5 439a27.5 27.5 0 01-27.5 27.4H347.4a27.5 27.5 0 01-27.4-27.4V384a27.5 27.5 0 0127.4-27.4h109.7a27.5 27.5 0 0127.5 27.4v54.9zm0-153c0 6.5-2.4 12.8-6.6 17.8l-21.5 25c-5.2 6-12.8 9.6-20.8 9.6h-66.8c-8 0-15.6-3.5-20.8-9.6l-21.5-25c-4.3-5-6.6-11.3-6.6-17.9v-57.2a27.5 27.5 0 0127.4-27.5h109.7a27.5 27.5 0 0127.5 27.5v57.2z"/></svg>