<svg xmlns="http://www.w3.org/2000/svg" width="512" height="512" viewBox="0 0 60 60" style="fill:#01f603"><path d="M25 10h3v3h-3zM34 10h3v3h-3zM25 19h3v3h-3zM16 10h3v3h-3zM16 19h3v3h-3zM57.8 48.4l-1-1.6-1.7 1.1 1 1.7a1 1 0 001.5.2 1 1 0 00.2-1.4zM41.1 27.1l1.7-1 12.8 19-1.7 1.1zM39.5 24.8l.5.7 1.7-1.1-.5-.7-2.8-2.4z"/><path d="M50 55a1 1 0 01-1 1H11a1 1 0 01-1-1V5a1 1 0 011-1h38a1 1 0 011 1v28.2l2 3V5a3 3 0 00-3-3H11a3 3 0 00-3 3v50a3 3 0 003 3h38a3 3 0 003-3v-8l-2-3z"/><path d="M42.8 22.4l1 1.7 4.2 6.1V6H12v48h36V41l-9.1-13.6-1.1-1.6a1 1 0 01-.1-.3L36.5 22a2 2 0 013.2-2.1l2.9 2.4a1 1 0 01.2.2zM21 22a2 2 0 01-2 2h-3a2 2 0 01-2-2v-3a2 2 0 012-2h3a2 2 0 012 2zm0-9a2 2 0 01-2 2h-3a2 2 0 01-2-2v-3a2 2 0 012-2h3a2 2 0 012 2zm9 9a2 2 0 01-2 2h-3a2 2 0 01-2-2v-3a2 2 0 012-2h3a2 2 0 012 2zm0-9a2 2 0 01-2 2h-3a2 2 0 01-2-2v-3a2 2 0 012-2h3a2 2 0 012 2zm9 0a2 2 0 01-2 2h-3a2 2 0 01-2-2v-3a2 2 0 012-2h3a2 2 0 012 2z"/></svg>