<svg xmlns="http://www.w3.org/2000/svg" viewBox="0 0 797.5 797" style="fill:#01f603"><path d="M11.4 731.4a39 39 0 000 55 39.9 39.9 0 0055 0l43.5-43.7-55-55zm0 0M670 105.4a21 21 0 00-15 6.3L292 475.3a21.1 21.1 0 1030 30l363-363.6a21.3 21.3 0 00-15-36.3zm0 0"/><path d="M753.4 30.2A123.7 123.7 0 00672 .2c-36 .2-70.5 14.6-95.8 40.2L565 51.5l15 15a14.3 14.3 0 01-20.2 20.1l-15-15-30 30.2 15 14.9a14.2 14.2 0 01-20.2 20.1l-15-15-30 30.1 15 15a14.2 14.2 0 11-20.1 20.2l-15-15-29.8 29.8 15 15a14.3 14.3 0 01-20.2 20.2l-15-15-29.8 30 15 15a14.2 14.2 0 11-20.2 20.1l-15-15-29.9 30 15 15a14.2 14.2 0 11-20.2 20.2l-15-15-29.8 30 15 15a14.2 14.2 0 11-20.2 20.2l-14.8-14.8a174.5 174.5 0 00-47.2 105 205.7 205.7 0 01-59.3 126.7l-63 63 55 55.1 62.9-63a206 206 0 01126.6-59.4 175.7 175.7 0 00104.8-47.4L409.6 538a14.2 14.2 0 1120.1-20.1l15 15 29.9-30-15-15a14.2 14.2 0 1120.2-20.2l15 15 29.8-30-15-15a14.3 14.3 0 1120.3-20.2l15 15 29.8-30-15-15a14.3 14.3 0 1120.2-20.1l15 15 29.7-29.8-15-15a14.2 14.2 0 0120.2-20.2l15 15 30-30.1-15-15a14.2 14.2 0 1120.2-20.1l15 15 30-30.2-15-15a14.2 14.2 0 1120.1-20l15 14.9 15-15a127.6 127.6 0 00-6.7-186.7zm-48.2 131.6L342 525.5a49.4 49.4 0 01-58.6 8.4l-74.3 74.4a14.2 14.2 0 11-20.1-20.1l74.3-74.5c-10.4-19.2-7-43 8.4-58.5L635 91.5a49.7 49.7 0 0170.2 70.3zm0 0"/></svg>