<svg xmlns="http://www.w3.org/2000/svg" xml:space="preserve" width="319.2" height="319.2" style="fill:#01f603"><path d="M284.2 234.8a35 35 0 0 0-30.8 18.3h-7.8a33.6 33.6 0 0 1 11.2-16.4c9.4-8 21.8-12.6 30.8-11.3a10.6 10.6 0 0 0 3.2-21c-15-2.2-33 3.8-47 15.6V27.8c0-3.5-2.9-6.2-6.3-6.2H233a26 26 0 0 1-9.5 30.5v201H94a53.8 53.8 0 0 0-18.7-34.6 53.4 53.4 0 0 0-41.6-14 10.6 10.6 0 1 0 2.7 21c8-1 17.3 2.3 24.9 9A34 34 0 0 1 72.6 253h-6.7a35 35 0 1 0 0 33.4h187.5a35 35 0 1 0 30.8-51.7z"/><path d="M223.5 34.6a16 16 0 0 0 .2-7.7 16 16 0 1 0-.2 7.7z"/></svg>