<svg xmlns="http://www.w3.org/2000/svg" viewBox="0 0 503.7 503.7" style="fill:#01f603"><path d="M134.3 50.4h50.4v8.4h-50.4z"/><path d="M428.1 0h-33.6a8.4 8.4 0 00-8.3 8.4V403a50.4 50.4 0 01-50.4 50.2l-100.7.2a50.4 50.4 0 01-50.4-50.3v-17c9.3 0 16.8-7.5 16.8-16.8v-33.6h33.6c9.2 0 16.8-7.5 16.8-16.7V142.7c0-9.3-7.6-16.8-16.8-16.8h-8.4V25.2A25.2 25.2 0 00201.5 0h-84a25.2 25.2 0 00-25.1 25.2v100.7H84c-9.3 0-16.8 7.5-16.8 16.8V319c0 9.2 7.5 16.7 16.8 16.7h33.6v33.6c0 9.3 7.5 16.8 16.8 16.8v17c0 55.5 45.1 100.6 100.7 100.6h100.7c55.5 0 100.7-45.2 100.7-100.7V8.4c0-4.6-3.7-8.4-8.4-8.4zM126 75.5a8.4 8.4 0 01-8.4-8.4V42c0-4.7 3.7-8.4 8.4-8.4H193c4.6 0 8.4 3.7 8.4 8.4V67c0 4.7-3.8 8.4-8.4 8.4H126zm16.7 293.8h-8.3v-33.6h50.3v33.6h-42z"/></svg>