<svg xmlns="http://www.w3.org/2000/svg" viewBox="0 0 510.7 510.7" style="fill:#01f603"><path d="M39.4 383.3h19.7V403H39.4zM0 363.7h19.7v-256H0zM118.2 383.3h39.4V403h-39.4zM231.4 304.6h-192v59h236.3l-44.3-59zM78 337.9a9.8 9.8 0 01-16 3.1c-1-1-1.7-2-2.2-3.1a9.7 9.7 0 01-.7-3.8A9.8 9.8 0 1178 338zm135.8 3.1c-1.9 2-4.4 3-7 3-1.3 0-2.6-.3-3.8-.7a12 12 0 01-3.2-2.3c-1-.9-1.6-2-2-3.1a9.8 9.8 0 1116 3.2zM510.7 166.7l-7.4-59h-50.4l44.3 59zM275.7 107.7H39.4v59h192l44.3-59zM75.9 144.2c-1 .8-2 1.5-3.2 2-2.4 1.1-5.1 1.1-7.5 0-1.2-.4-2.3-1.1-3.3-2-.8-1-1.5-2-2-3.3a8.2 8.2 0 01-.8-3.7c-.1-4 2.3-7.6 6-9a9 9 0 017.6 0c1.2.4 2.3 1.1 3.2 2 1.8 1.9 2.8 4.4 2.9 7 0 2.6-1 5.1-2.9 7zm140-3.3a8.9 8.9 0 01-5.4 5.3c-2.4 1.1-5 1.1-7.5 0-1.2-.4-2.3-1.1-3.2-2a9.7 9.7 0 01-2-10.7c.1-.7.4-1.3.8-1.8l1.2-1.5 1.4-1.2 1.8-.9 1.8-.6c1.3-.3 2.6-.3 3.8 0 .7.1 1.3.3 2 .6.5.2 1.1.5 1.7 1l1.5 1.1a9.8 9.8 0 012 10.7zM207.3 238.8c-.7-2-.7-4.2 0-6.3l2.2-6.7H39.4v19.7h170.1l-2.2-6.7zM216.6 383.3h128V403h-128zM222.7 186.4H39.4v19.7h176.7zM216.1 265.2H39.4v19.7h183.3zM501.6 235.7l-18.1-54.5-55.2-73.5h-128l-55.2 73.5-12.8 38.5v.1l-5.3 15.9 5.3 15.8 12.8 38.6 55.2 73.6h128l55.2-73.6 18.1-54.4zM286.3 153c.5-1.2 1.2-2.3 2-3.2l1.6-1.2c.5-.4 1.1-.7 1.7-.9l1.8-.6c2-.4 4-.2 5.7.6.6.2 1.2.5 1.7 1l1.6 1c1.8 2 2.8 4.5 2.8 7 0 2.7-1 5.2-2.8 7-1 1-2 1.7-3.3 2.1-2.4 1-5 1-7.5 0-1.1-.5-2.2-1.2-3.2-2a9.7 9.7 0 01-2-10.8zm16 168.3a9.8 9.8 0 01-16.8-7 9.8 9.8 0 1116.9 7zm138 0c-1 .9-2.1 1.6-3.3 2-1.2.6-2.5.9-3.8.9-2.6 0-5.1-1-7-2.9-.8-1-1.5-2-2-3.2a8.2 8.2 0 01-.8-3.8c0-2.6 1-5 2.8-7l1.5-1.2 1.8-.8a9.4 9.4 0 017.5 0c1.2.5 2.3 1.2 3.2 2 1.8 2 2.8 4.4 2.9 7 0 2.6-1 5.1-2.9 7zm-76-7a78.8 78.8 0 110-157.5 78.8 78.8 0 010 157.5zm76-150.5a9.8 9.8 0 01-10.8 2c-1.2-.5-2.3-1.2-3.3-2a9.7 9.7 0 01-2.8-7c0-2.6 1-5.1 2.8-7a9.8 9.8 0 0112.4-1.2c.6.3 1.1.7 1.6 1.2 1.8 1.9 2.8 4.4 2.9 7 0 2.6-1 5.1-2.9 7zM452.9 363.7h50.4l7.4-59.1h-13.5z"/><path d="M364.3 176.6a59 59 0 100 118.1 59 59 0 000-118.1zm0 98.4a39.4 39.4 0 110-78.7 39.4 39.4 0 010 78.7z"/><circle cx="364.3" cy="235.7" r="19.7"/></svg>