<svg xmlns="http://www.w3.org/2000/svg" viewBox="0 0 503.1 503.1" style="fill:#01f603"><defs/><path d="M443.7.1l-23.3 23.3L432.1 35a9 9 0 11-12.7 12.7L407.7 36l-41.2 41.2 59.4 59.4L467 95.5l-11.7-11.7a9 9 0 1112.7-12.7l11.7 11.7 23.3-23.3L443.7.1zM191.9 243.8a67 67 0 00-47.7 19.7L7.9 399.8a27 27 0 000 38.2l57.3 57.3a27.6 27.6 0 0038.1 0l127.5-127.4 5.2-5.3 3.6-3.6A67.5 67.5 0 00192 243.8zm24.5 91.7a34.5 34.5 0 11-48.8-48.6 34.5 34.5 0 0148.8 48.6z"/><path d="M192 294.7a16.4 16.4 0 100 32.8 16.4 16.4 0 000-32.8zM338.4 74.7a3.8 3.8 0 00-2.7-1.2c-1 0-2 .4-2.6 1.1l-152 152a85.4 85.4 0 0195.5 95.4l152-152c.6-.6 1-1.6 1-2.5 0-1-.4-2-1-2.7l-90.2-90.1z"/></svg>