<svg xmlns="http://www.w3.org/2000/svg" xml:space="preserve" viewBox="0 0 487 487" style="fill:white;"><path d="M243 333c-13 0-25 12-25 25s12 25 25 25 25-11 25-24c0-14-11-26-25-26z"/><path d="M475 422c15-27 15-59 0-86L318 64c-15-27-43-43-75-43s-59 16-75 43L12 336a86 86 0 0 0 0 87c16 26 43 43 75 43h312c32 0 60-17 76-44zm-34-20c-9 15-24 24-42 24H87c-17 0-33-8-41-23-9-15-9-33 0-48L202 84c9-15 24-24 41-24s33 9 41 24l157 271c8 15 8 32 0 47z"/><path d="M237 158c-12 3-19 14-19 27l1 24 6 90c0 10 8 17 18 17s18-8 19-18l1-18 3-58 2-38c0-4 0-8-2-12-5-11-17-17-29-14z"/></svg>