<svg xmlns="http://www.w3.org/2000/svg" viewBox="0 0 512 512" style="fill:#01f603"><path d="M201.1 292.6h109.7v109.7H201.1zM219.4 420.6h73.1v36.6h-73.1zM310.9 457.1h9.1c3.6 0 9.1-7.3 9.1-18.2 0-11-5.5-18.3-9.1-18.3h-9.1V457zM201.1 457.1v-36.5H192c-3.6 0-9.1 7.3-9.1 18.3s5.5 18.2 9.1 18.2h9.1zM37.7 45.7H27.4C16.5 45.7 0 82.2 0 137.1s16.5 91.5 27.4 91.5h10.3c-12.8-20.7-19.4-56.2-19.4-91.5 0-35.2 6.6-70.7 19.4-91.4zM374.9 475.4H137c-10 0-18.2 8.2-18.2 18.3V512H393v-18.3c0-10-8.1-18.3-18.2-18.3z"/><path d="M448 45.7H347.4a9.1 9.1 0 010-18.3H365l-19.2-24a9 9 0 00-7.2-3.4H173.4a9.1 9.1 0 00-7.2 3.4l-19.2 24h17.6a9.1 9.1 0 010 18.3H64c-11 0-27.4 36.5-27.4 91.4S53 228.6 64 228.6h100.6a9.1 9.1 0 010 18.3H147l19.2 24a9 9 0 007.2 3.4h165.2c2.8 0 5.5-1.3 7.2-3.5l19.2-24h-17.6a9.1 9.1 0 010-18.2H448c11 0 27.4-36.5 27.4-91.5S459 45.7 448 45.7zM256 247a109.7 109.7 0 110-219.5 109.7 109.7 0 010 219.5z"/><path d="M484.6 45.7h-10.3c12.8 20.7 19.4 56.2 19.4 91.4 0 35.3-6.6 70.8-19.4 91.5h10.3c10.9 0 27.4-36.5 27.4-91.5s-16.5-91.4-27.4-91.4zM256 82.3a54.9 54.9 0 100 109.7 54.9 54.9 0 000-109.7zM238.7 131a9.1 9.1 0 11-17.2-6.2 36.7 36.7 0 0134.5-24.3 9.1 9.1 0 010 18.3c-7.7 0-14.7 4.9-17.3 12.2zm53.3 18.2a36.7 36.7 0 01-34.4 24.4 9.1 9.1 0 010-18.3c7.7 0 14.6-4.9 17.2-12.2a9.1 9.1 0 0117.2 6.1z"/><path d="M256 45.7a91.4 91.4 0 100 182.9 91.4 91.4 0 000-182.9zm0 164.6A73.1 73.1 0 11256 64a73.1 73.1 0 010 146.3z"/></svg>