<svg xmlns="http://www.w3.org/2000/svg" viewBox="0 0 560 400"><path xmlns="http://www.w3.org/2000/svg" fill="#01f603" d="M387 93c-26-25-62-28-107-28s-82 3-107 28c-25 26-28 62-28 107s3 82 28 107 62 28 107 28 82-3 107-28 28-62 28-107-3-81-28-107z"/><g fill="#fff"><path d="m362 149 2 2v104l-2 1h-23l-2-1V151l2-2h23zm-98 0c17 0 35 1 43 10 9 9 10 26 10 43v52l-2 2h-22l-2-2v-53c0-10-1-19-6-24-4-4-11-5-20-5h-40l-2 1v82l-2 1h-23l-2-1V151l2-2h66z"/><path d="m269 190 1 2v62l-1 2h-24l-2-2v-62l2-2z"/></g></svg>
