<svg id="Capa_1" data-name="Capa 1" xmlns="http://www.w3.org/2000/svg" viewBox="0 0 560 400"><path fill="#01f603" class="cls-1" d="M438.4,41.87C400.53,4.27,346.4,0,280,0S159.2,4.27,121.6,41.87C83.73,79.73,80,133.87,80,200.27s3.73,120.53,41.6,158.4C159.2,396.27,213.6,400,280,400s120.8-3.73,158.4-41.6C476,320.8,480,266.4,480,200,480,133.87,476,79.47,438.4,41.87ZM265.87,280.53a2.67,2.67,0,0,1-2.67,2.67H228a2.68,2.68,0,0,1-2.67-2.67v-92a2.67,2.67,0,0,1,2.67-2.66h35.2a2.67,2.67,0,0,1,2.67,2.66Zm69.06,0a2.66,2.66,0,0,1-2.66,2.67h-33.6a2.67,2.67,0,0,1-2.67-2.67V201.07c0-13.87-.8-28.27-8-35.2-6.13-6.14-17.6-7.47-29.6-8H197.87a2.66,2.66,0,0,0-2.67,2.66V280.8a2.68,2.68,0,0,1-2.67,2.67h-33.6a2.67,2.67,0,0,1-2.66-2.67V127.47a2.66,2.66,0,0,1,2.66-2.67h96.8v.27c25.34,0,51.74,1.06,64.8,14.13,12.8,12.8,14.14,38.4,14.4,63.2Zm69.07.27a2.68,2.68,0,0,1-2.67,2.67h-33.6a2.67,2.67,0,0,1-2.66-2.67V127.47a2.66,2.66,0,0,1,2.66-2.67h33.6v.27a2.66,2.66,0,0,1,2.67,2.66Z"/></svg>