<svg xmlns="http://www.w3.org/2000/svg" xml:space="preserve" viewBox="-200 -199.7 512 512"><path fill="#FF6900" d="M259-146c-49-48-118-54-203-54s-155 6-203 54-53 118-53 203c0 84 5 154 53 202s118 53 203 53 155-5 203-53 53-118 53-202c0-85-5-155-53-203z"/><path fill="#FFF" d="M205-41c1 0 3 1 3 3v189c0 2-2 4-3 4h-42c-2 0-3-2-3-4V-38c0-2 1-3 3-3h42zM24-41c32 0 65 1 81 17s17 48 17 79v96c0 2-1 4-3 4H78c-2 0-4-2-4-4V53c0-17-1-35-10-44-7-7-21-9-36-9h-75c-2 0-4 1-4 3v148c0 2-1 4-3 4h-41c-2 0-4-2-4-4V-38c0-2 2-3 4-3H24zm10 75c2 0 3 2 3 3v114c0 2-1 4-3 4h-44c-2 0-3-2-3-4V37c0-1 1-3 3-3h44z"/></svg>